<?xml version="1.0" encoding="utf-8"?>
<!-- Generator: Adobe Illustrator 25.0.1, SVG Export Plug-In . SVG Version: 6.00 Build 0)  -->
<svg version="1.0" id="katman_1" xmlns="http://www.w3.org/2000/svg" xmlns:xlink="http://www.w3.org/1999/xlink" x="0px" y="0px"
	 viewBox="0 0 600 400" style="enable-background:new 0 0 600 400;" xml:space="preserve">
<style type="text/css">
	.st0{fill:url(#SVGID_1_);}
	.st1{fill:url(#SVGID_4_);}
	.st2{fill:#20294E;}
</style>
<linearGradient id="SVGID_1_" gradientUnits="userSpaceOnUse" x1="2.0115" y1="619.1303" x2="3.109" y2="619.1303" gradientTransform="matrix(116.6266 -83.2258 -83.2258 -116.6266 51519.457 72556.0312)">
	<stop  offset="0" style="stop-color:#20294E"/>
	<stop  offset="0.5" style="stop-color:#005695"/>
	<stop  offset="1" style="stop-color:#26B5E3"/>
</linearGradient>
<path class="st0" d="M324.9,84.7c-12.8,4.3-29.6,11.5-47,18c9.6,4.5,19.1,8.6,26.7,12c24.5-10,43.2-15.6,43.2-15.6
	s-3.1,7.9-16.3,27.8c6.4,2.8,14.3,6.2,19.4,7.8c18.6-25.6,30.5-49,22.5-57c-1.4-1.4-3.1-2.9-8.3-2.9
	C358.8,74.8,347.2,77.1,324.9,84.7"/>
<g>
	<g>
		<defs>
			<path id="SVGID_2_" d="M333.2-0.5c5.9,4.6,10.4,2.2,15-1.3c-0.4,0.4-0.9,0.8-1.4,1.3c6.2-5.2,13.9-13.3,24.8-26.8
				c-5.8-3.5-11.5-6.9-16.2-9.7L333.2-0.5z"/>
		</defs>
		<clipPath id="SVGID_3_">
			<use xlink:href="#SVGID_2_"  style="overflow:visible;"/>
		</clipPath>
		<g style="clip-path:url(#SVGID_3_);">
			
				<image style="overflow:visible;" width="162" height="172" xlink:href="77089941.jpg"  transform="matrix(0.24 0 0 0.24 333 -37.12)">
			</image>
		</g>
	</g>
</g>
<linearGradient id="SVGID_4_" gradientUnits="userSpaceOnUse" x1="2.2701" y1="620.9969" x2="3.3676" y2="620.9969" gradientTransform="matrix(-104.4745 -110.0932 -110.0932 104.4745 68936.9688 -64437.707)">
	<stop  offset="0" style="stop-color:#20294E"/>
	<stop  offset="0.2951" style="stop-color:#005695"/>
	<stop  offset="0.9039" style="stop-color:#26B5E3"/>
	<stop  offset="1" style="stop-color:#26B5E3"/>
</linearGradient>
<path class="st1" d="M208.9,80.3c-0.5,0-0.9,0.1-1.3,0c-0.5,0-1.5,0.8-1.5,0.8C183.9,94.1,250,200,279.3,219.6
	c4.1,2.7,11.5,5.7,18,3.5c0.8-0.3,2.4-1.5,2.5-1.6c6.5-7.5,13-15.1,19.5-22.7c-0.2-1.8-2.1-0.7-2.3-0.6c-7.6,5.5-14.2,2.4-34.5-18.3
	c-21.7-22-42.7-60.5-42.7-60.5l97.7,44c6.5,2.9,10.1,1.3,12,0c0.5-0.3,18.2-21.7,18.2-21.7c0.1-1.5-1.5-0.7-1.5-0.7
	c-5.7,3.6-10,0.9-19.3-2.8c-6.2-2.5-71.7-31.5-95.1-42.5c-29.9-14.2-38.2-15.6-41.8-15.6C209.7,80.2,209.3,80.3,208.9,80.3"/>
<path class="st2" d="M108.7,305.6c0,1.6-1.2,2.8-2.7,2.8h-4.4c-1.5,0-2.7-1.3-2.7-2.8v-48.4c0-1.6,1.2-2.9,2.7-2.9h4.4
	c1.5,0,2.7,1.3,2.7,2.9L108.7,305.6z M500.7,305.7l-20.8-49.5c-0.3-0.7-0.9-1.1-1.9-1.2c-0.7-0.1-1.4-0.2-2.1-0.3h-0.1
	c-0.7,0-1.4,0.1-2.1,0.3c-1,0.2-1.6,0.6-1.9,1.2l-20.8,49.5c-0.1,0.1-0.1,0.2-0.1,0.4c0,0.6,0.2,1,0.7,1.2c0.5,0.3,1,0.4,1.6,0.5
	c0.6,0.1,1.3,0.1,1.9,0.1c0.6,0,1.2,0,1.6,0c0.9,0,1.8-0.1,2.7-0.3c1-0.2,1.7-0.8,2.1-1.7l2.9-7c0.2-0.5,0.6-0.8,1-1.2
	c0.4-0.3,0.9-0.5,1.5-0.5h18.1c0.6,0,1.1,0.2,1.5,0.5c0.4,0.3,0.7,0.7,1,1.2l2.9,7c0.4,0.9,1.1,1.5,2.1,1.7c1,0.2,1.9,0.3,2.7,0.3
	c0.4,0,0.9,0,1.5,0c0.6,0,1.3,0,1.9-0.1c0.6-0.1,1.1-0.3,1.6-0.5c0.5-0.2,0.7-0.6,0.7-1.2C500.7,305.9,500.7,305.7,500.7,305.7
	 M482.3,288.2c-0.3,0.3-0.7,0.5-1,0.5h-10.7c-0.4,0-0.7-0.2-1-0.5c-0.3-0.3-0.5-0.7-0.5-1c0-0.2,0.3-0.9,0.8-2.3l1.7-4.4
	c0.6-1.6,1.3-3.1,1.9-4.5c0.6-1.4,1-2.3,1.1-2.6c0.3-0.3,0.7-0.5,1.3-0.5h0.1v0h0l0,0h0.1c0.6,0,1,0.2,1.3,0.5
	c0.2,0.3,0.5,1.2,1.1,2.6c0.6,1.4,1.2,2.9,1.8,4.5c0.7,1.6,1.2,3.1,1.8,4.4c0.5,1.3,0.8,2.1,0.8,2.3
	C482.7,287.5,482.6,287.9,482.3,288.2 M240,305.7l-20.8-49.5c-0.3-0.7-0.9-1.1-1.9-1.2c-0.7-0.1-1.4-0.2-2.1-0.3h0
	c-0.7,0-1.4,0.1-2.1,0.3c-1,0.2-1.6,0.6-1.9,1.2l-20.8,49.5c-0.1,0.1-0.1,0.2-0.1,0.4c0,0.6,0.2,1,0.7,1.2c0.5,0.3,1,0.4,1.6,0.5
	c0.6,0.1,1.2,0.1,1.9,0.1c0.7,0,1.2,0,1.6,0c0.9,0,1.8-0.1,2.7-0.3c1-0.2,1.7-0.8,2.1-1.7l2.9-7c0.2-0.5,0.6-0.8,1-1.2
	c0.4-0.3,0.9-0.5,1.5-0.5h18.1c0.5,0,1,0.2,1.5,0.5c0.4,0.3,0.7,0.7,1,1.2l2.9,7c0.4,0.9,1.1,1.5,2.1,1.7c1,0.2,1.9,0.3,2.7,0.3
	c0.4,0,0.9,0,1.5,0c0.6,0,1.3,0,1.9-0.1c0.6-0.1,1.1-0.3,1.6-0.5c0.4-0.2,0.7-0.6,0.7-1.2C240.1,305.9,240.1,305.7,240,305.7
	 M221.7,288.2c-0.3,0.3-0.6,0.5-1.1,0.5h-10.7c-0.4,0-0.7-0.2-1-0.5c-0.3-0.3-0.5-0.7-0.5-1c0-0.2,0.3-0.9,0.8-2.3
	c0.6-1.5,1.2-2.9,1.8-4.4c0.6-1.6,1.3-3.1,1.8-4.5c0.6-1.4,1-2.3,1.1-2.6c0.3-0.3,0.7-0.5,1.3-0.5h0.1v0h0l0,0h0.1
	c0.6,0,1,0.2,1.3,0.5c0.2,0.3,0.5,1.2,1.1,2.6c0.6,1.4,1.2,2.9,1.8,4.5c0.6,1.6,1.2,3.1,1.8,4.4c0.5,1.3,0.8,2.1,0.8,2.3
	C222.1,287.5,222,287.9,221.7,288.2 M91.7,305.7l-20.8-49.5c-0.3-0.7-0.9-1.1-1.9-1.2c-0.7-0.1-1.4-0.2-2.1-0.3h0
	c-0.7,0-1.4,0.1-2.1,0.3c-1,0.2-1.6,0.6-1.9,1.2l-20.8,49.5c-0.1,0.1-0.1,0.2-0.1,0.4c0,0.6,0.2,1,0.7,1.2c0.4,0.3,1,0.4,1.6,0.5
	c0.6,0.1,1.2,0.1,1.9,0.1c0.7,0,1.2,0,1.6,0c0.9,0,1.8-0.1,2.7-0.3c1-0.2,1.7-0.8,2.1-1.7l2.9-7c0.2-0.5,0.6-0.8,1-1.2
	c0.4-0.3,0.9-0.5,1.5-0.5h18.1c0.5,0,1,0.2,1.5,0.5c0.4,0.3,0.7,0.7,1,1.2l2.9,7c0.4,0.9,1.1,1.5,2.1,1.7c1,0.2,1.9,0.3,2.7,0.3
	c0.4,0,0.9,0,1.5,0c0.6,0,1.3,0,1.9-0.1c0.6-0.1,1.1-0.3,1.6-0.5c0.5-0.2,0.7-0.6,0.7-1.2C91.8,305.9,91.7,305.7,91.7,305.7
	 M73.3,288.2c-0.3,0.3-0.7,0.5-1.1,0.5H61.5c-0.4,0-0.7-0.2-1-0.5c-0.3-0.3-0.5-0.6-0.5-1c0-0.2,0.3-0.9,0.8-2.3
	c0.5-1.3,1.1-2.8,1.8-4.4c0.6-1.6,1.3-3.1,1.8-4.5c0.6-1.4,1-2.3,1.1-2.6c0.3-0.3,0.7-0.5,1.3-0.5h0.1v0h0l0,0H67
	c0.6,0,1,0.2,1.2,0.5c0.2,0.3,0.6,1.2,1.1,2.6c0.6,1.4,1.2,2.9,1.8,4.5c0.6,1.6,1.2,3.1,1.8,4.4c0.5,1.3,0.8,2.1,0.8,2.3
	C73.8,287.5,73.6,287.9,73.3,288.2 M445.3,307L434,287.2c0,0-0.5-1,0.3-1.5c11.2-7.3,6.2-21.2,6.2-21.2c-3.2-10.1-16.5-10-16.5-10
	h-21.9c-3.6,0-3.4,2.5-3.4,2.5v48c0,0-0.2,3.2,2.1,3.4h1.5v0c2,0,4.4,0,4.4,0c2.3-0.2,2.1-3.4,2.1-3.4v-13.8
	c-0.1-0.7,0.9-0.6,0.9-0.6c0.4,0,11.7-0.4,13.6,0.4c0.8,0.4,1.8,1.2,2.3,2c0,0,7.6,12.6,7.6,12.6c0.6,1,1.2,1.8,2.1,2.5
	c0.8,0.7,1.8,0.6,2.8,0.6c1.7,0,3.4,0,5.1,0C446,308.8,445.3,307,445.3,307 M431.1,274.1c-1.4,6.5-9.6,6.3-9.6,6.3h-11.1
	c-2.1-0.2-2.2-2.2-2.2-2.2v-12.7c0-1.3,1-1.3,1-1.3h1.9c2.8,0,5.7,0,8.5,0c3.2,0,6.9-0.4,9.4,1.9c1.4,1.2,2.1,3.3,2.2,5.1
	C431.4,272.3,431.3,273.2,431.1,274.1 M167.4,307l-11.3-19.8c0,0-0.5-1,0.3-1.5c11.2-7.3,6.2-21.2,6.2-21.2
	c-3.2-10.1-16.5-10-16.5-10h-21.9c-3.6,0-3.4,2.5-3.4,2.5v48c0,0-0.2,3.2,2.1,3.4h1.5v0c2,0,4.5,0,4.5,0c2.3-0.2,2.1-3.4,2.1-3.4
	v-13.8c-0.1-0.7,0.9-0.6,0.9-0.6c0.4,0,11.7-0.4,13.6,0.4c0.8,0.4,1.8,1.2,2.3,2c0,0,7.6,12.6,7.6,12.6c0.6,1,1.2,1.8,2.1,2.5
	c0.8,0.7,1.8,0.6,2.8,0.6c1.7,0,3.4,0,5.1,0C168.1,308.8,167.4,307,167.4,307 M153.3,274.1c-1.4,6.5-9.7,6.3-9.7,6.3h-11.1
	c-2.1-0.2-2.2-2.2-2.2-2.2v-12.7c0-1.3,1-1.3,1-1.3h1.9c2.8,0,5.7,0,8.5,0c3.2,0,6.9-0.4,9.4,1.9c1.4,1.2,2.1,3.3,2.2,5.1
	C153.5,272.3,153.5,273.2,153.3,274.1 M549,303c0,1.1-0.2,2.1-0.6,2.8c-0.4,0.8-1.3,1.2-2.6,1.2h-35.9c-0.5,0-1-0.3-1.5-0.9
	c-0.5-0.6-0.8-1.1-0.8-1.6v-48.3c0-0.8,0.2-1.4,0.6-1.8c0.4-0.4,0.9-0.7,1.5-0.8c0.6-0.2,1.2-0.3,1.9-0.3h1.8c0.9,0,1.8,0.2,2.5,0.6
	c0.7,0.4,1.3,1,1.7,2v37.3c0,0.6,0.1,1.2,0.2,1.6c0.1,0.5,0.4,0.9,0.9,1.4c0.8,1,1.9,1.5,3.2,1.5h24.2c0.7,0,1.2,0.2,1.6,0.6
	c0.4,0.4,0.7,0.8,0.9,1.3c0.2,0.5,0.3,1.1,0.4,1.7C549,301.9,549,302.5,549,303 M386.7,254.6c0.9,0,1.6,0.4,2,1.2
	c0.4,0.8,0.5,1.6,0.5,2.3c0,0.4,0,0.9-0.1,1.6c0,0.6-0.1,1.3-0.3,1.9c-0.2,0.6-0.4,1.1-0.8,1.5c-0.4,0.4-0.9,0.6-1.5,0.6h-10.4
	c-0.9,0-1.6,0.2-2.2,0.6c-0.6,0.4-0.8,1.1-0.8,2.1l0.1,38.6c0,0.8-0.2,1.4-0.6,1.8c-0.4,0.4-0.9,0.7-1.5,0.8
	c-0.6,0.1-1.2,0.2-1.9,0.2c-0.7,0-1.3,0-1.9,0c-0.8,0-1.6-0.2-2.5-0.5c-0.9-0.4-1.3-1.1-1.3-2.1V266c0-0.7-0.2-1.3-0.7-1.7
	c-0.3-0.3-1.2-0.5-2.5-0.5c-1.4-0.1-2.8-0.1-4.2-0.1c-1.3,0-2.7,0-4,0.1c-0.7,0-1.4,0.1-2,0.1c-1.1,0-1.8-0.4-2.1-1.2
	c-0.4-0.8-0.5-1.6-0.5-2.5v-1.6c0-0.6,0.1-1.2,0.3-1.8c0.2-0.5,0.4-1,0.8-1.4c0.4-0.4,0.9-0.6,1.5-0.6L386.7,254.6z M319.8,308.3
	c-3.8,0-7.6-0.7-11.3-2.1c-3.7-1.4-7-3.5-9.8-6.1c-0.2-0.3-0.4-0.6-0.6-0.9c-0.2-0.3-0.2-0.7-0.2-1.1c0-0.5,0.2-1.1,0.7-1.7
	c0.5-0.6,1-1.2,1.6-1.8c0.6-0.5,1.2-1,1.9-1.4c0.7-0.4,1.3-0.5,1.8-0.5c0.7,0,1.5,0.3,2.5,1c0.9,0.7,2,1.4,3.4,2.2
	c1.3,0.8,2.8,1.6,4.5,2.2c1.7,0.7,3.7,1,6.1,1c1.2,0,2.6-0.1,4.1-0.3c1.4-0.2,2.8-0.6,4.1-1.2c1.2-0.6,2.3-1.4,3.1-2.4
	c0.8-1,1.3-2.3,1.3-3.9c0-1.4-0.5-2.6-1.5-3.4c-1-0.8-2.3-1.5-3.8-1.9c-1.6-0.4-3.4-0.8-5.4-1c-2.1-0.3-4.1-0.6-6.2-0.9
	c-2.1-0.3-4.2-0.8-6.2-1.3c-2-0.6-3.9-1.4-5.4-2.4c-1.6-1.1-2.9-2.5-3.9-4.2c-1-1.7-1.5-3.9-1.5-6.6c0-2.8,0.7-5.2,2.1-7.2
	c1.4-2,3.2-3.7,5.3-4.9c2.1-1.3,4.5-2.2,7-2.8c2.6-0.6,5-0.9,7.4-0.9c1.6,0,3.3,0.1,5.1,0.4c1.8,0.2,3.5,0.6,5.3,1.2
	c1.7,0.5,3.4,1.2,5,2.1c1.6,0.9,3,1.9,4.1,3.1c0.2,0.1,0.3,0.4,0.4,0.8c0.1,0.4,0.2,0.8,0.2,1c0,0.7-0.2,1.3-0.7,1.9
	c-0.5,0.6-1,1.2-1.6,1.6c-0.6,0.5-1.3,0.9-2,1.2c-0.7,0.3-1.4,0.5-2,0.5c-0.5,0-1-0.1-1.4-0.3c-1.9-1.6-3.9-2.9-6-3.8
	c-2.1-0.9-4.4-1.4-6.9-1.4c-1.1,0-2.2,0.1-3.6,0.3c-1.3,0.2-2.5,0.6-3.6,1.2c-1.1,0.5-2,1.3-2.8,2.2c-0.8,0.9-1.1,2.1-1.1,3.5
	c0,1.9,0.8,3.3,2.5,4.2c1.7,0.8,3.8,1.5,6.3,1.9c2.5,0.4,5.2,0.7,8.2,1.1c2.9,0.3,5.7,1,8.2,2c2.5,1,4.6,2.4,6.3,4.4
	c1.7,2,2.5,4.7,2.5,8.4c0,3-0.7,5.6-2.2,7.8c-1.5,2.2-3.3,4-5.5,5.5c-2.2,1.5-4.7,2.5-7.5,3.2C325.1,307.9,322.4,308.3,319.8,308.3
	 M283.8,253.7c0.6,0,1.2,0,1.9,0c0.7,0,1.3,0,2,0.2c0.6,0.1,1.1,0.4,1.6,0.8c0.4,0.4,0.6,1,0.6,1.9v29.1c0,3.3-0.6,6.3-1.8,9.1
	c-1.2,2.7-2.9,5.1-5,7.1c-2.1,2-4.6,3.5-7.4,4.6c-2.8,1.1-5.8,1.7-9.1,1.7c-3.2,0-6.3-0.6-9.1-1.7c-2.8-1.1-5.3-2.7-7.4-4.6
	c-2.1-2-3.7-4.4-5-7.1c-1.2-2.8-1.8-5.8-1.8-9.1c0-4.9,0-9.8,0-14.6c0-4.8,0-9.7,0-14.6c0-0.7,0.2-1.2,0.7-1.6
	c0.5-0.4,1-0.6,1.7-0.8c0.7-0.1,1.4-0.2,2.1-0.2c0.7,0,1.3,0,1.7,0c0.6,0,1.3,0.2,2.2,0.6c0.8,0.4,1.3,1,1.3,1.8v27.3
	c0,2.1,0.3,4,0.9,5.9c0.6,1.8,1.5,3.5,2.6,4.9c1.2,1.4,2.6,2.6,4.3,3.4c1.7,0.8,3.7,1.3,5.8,1.3c2.2,0,4.1-0.4,5.8-1.3
	c1.7-0.8,3.1-1.9,4.3-3.3c1.2-1.4,2-3,2.6-4.9c0.6-1.9,0.9-3.9,0.9-5.9v-27.1c0-1,0.4-1.7,1.1-2.1
	C282.1,253.9,282.9,253.7,283.8,253.7"/>
</svg>
