<svg version="1.1" id="Layer_1" xmlns="http://www.w3.org/2000/svg" xmlns:xlink="http://www.w3.org/1999/xlink" x="0px" y="0px" viewBox="0 0 418.1 60" style="enable-background:new 0 0 418.1 60;" xml:space="preserve">
 <style type="text/css">
  .st0{fill:#002F7C;}
	.st1{fill:#00125D;}
	.st2{fill:#B50029;}
	.st3{fill:#FFFFFF;}
	.st4{fill-rule:evenodd;clip-rule:evenodd;fill:#DD5365;}
	.st5{clip-path:url(#SVGID_2_);fill:url(#SVGID_3_);}
	.st6{clip-path:url(#SVGID_5_);fill:url(#SVGID_6_);}
	.st7{clip-path:url(#SVGID_8_);fill:url(#SVGID_9_);}
	.st8{clip-path:url(#SVGID_11_);fill:url(#SVGID_12_);}
	.st9{clip-path:url(#SVGID_14_);fill:url(#SVGID_15_);}
	.st10{clip-path:url(#SVGID_17_);fill:url(#SVGID_18_);}
	.st11{clip-path:url(#SVGID_20_);fill:url(#SVGID_21_);}
	.st12{fill-rule:evenodd;clip-rule:evenodd;fill:#FFFFFF;}
	.st13{fill-rule:evenodd;clip-rule:evenodd;fill:#B50029;}
 </style>
 <g>
  <path class="st0" d="M411.3,25.9L411.3,25.9c3.1,3.2,5.2,7.5,5.6,12.3c0.8,10.7-7.3,19.9-17.9,20.7c-5,0.3-9.7-1.2-13.4-4.1l0,0
		c3.8,3.5,9,5.5,14.5,5.1c10.7-0.7,18.7-10,18-20.6C417.7,33.9,415.1,29.2,411.3,25.9">
  </path>
  <path class="st0" d="M377.1,48c-0.6,0.3-0.8,0.9-0.4,1.7c0.3,0.7,0.7,1,1.2,0.8c0.4-0.2,0.5-0.5,0.3-1.4l-0.1-0.3
		c-0.2-0.8-0.2-1.2-0.1-1.6c0.1-0.4,0.3-0.7,0.7-0.8c0.9-0.4,1.7,0.2,2.2,1.4c0.5,1.3,0.2,2.3-0.8,2.8l-0.3-0.6c0.7-0.3,0.9-1,0.5-2
		c-0.3-0.8-0.8-1.1-1.3-0.9c-0.4,0.2-0.5,0.6-0.4,1.5l0.1,0.4l0.1,0.3c0.1,0.7,0.1,0.9,0.1,1.2c-0.1,0.3-0.3,0.6-0.7,0.7
		c-0.8,0.3-1.6-0.2-2.1-1.3c-0.5-1.2-0.2-2.1,0.7-2.5L377.1,48z">
  </path>
  <polygon class="st0" points="376.5,41 379.4,38.5 379.5,39.4 377,41.5 377.8,42.4 379.5,42.3 379.5,43 374.5,43.1 374.5,42.4 
		376.5,42.4 376.8,42.4 377,42.4 376.9,42.2 376.7,42 374.5,39.6 374.5,38.7 	">
  </polygon>
  <path class="st0" d="M378.7,33.2l1.9,0.7l-0.2,0.7l-1.9-0.7l-3.4,1l0.3-0.8l2.1-0.6l0.3-0.1c0.1,0,0.2,0,0.4-0.1
		c-0.2-0.2-0.2-0.2-0.4-0.5l-1.3-1.8l0.3-0.8L378.7,33.2z">
  </path>
  <polygon class="st0" points="382.1,24.1 381,25.4 384.2,27.9 383.4,28.9 380.3,26.3 379.2,27.6 378.5,27 381.4,23.5 	">
  </polygon>
  <polygon class="st0" points="388.8,19.3 386.3,20.8 386.8,21.7 389.2,20.4 389.6,21.1 387.3,22.5 387.9,23.5 390.5,22 390.9,22.8 
		387.3,24.9 384.8,20.6 388.4,18.5 	">
  </polygon>
  <path class="st0" d="M398.5,21.3l-1.3,0.1l-0.6-1.1l-2,0.3l-0.3,1.2l-1.2,0.3l1.3-5.5l1.2-0.2L398.5,21.3z M395.6,18.7
		c-0.3-0.5-0.4-0.7-0.5-1c0,0.4-0.1,0.6-0.2,1.1l-0.2,1l1.4-0.2L395.6,18.7z">
  </path>
  <path class="st0" d="M406.5,22.9l-1-0.4l0.4-1.5c0-0.2,0.1-0.4,0.2-0.7c0.1-0.3,0.1-0.6,0.2-0.7c0.1-0.2,0.1-0.4,0.2-0.6l0.1-0.4
		c-0.3,0.5-0.4,0.7-0.7,1.1c-0.1,0.2-0.2,0.3-0.3,0.5l-1.4,2l-0.9-0.2l-0.3-2.4c0-0.1,0-0.3,0-0.5c0-0.3,0-0.5,0-0.7
		c0-0.1,0-0.3,0-0.6l-0.1,0.6c-0.2,0.7-0.2,0.9-0.4,1.7l-0.4,1.6l-1.1-0.2l1.2-4.9l1.7,0.3l0.2,2.3c0.1,0.5,0.1,1,0,1.6
		c0.2-0.4,0.2-0.5,0.5-0.8c0.1-0.2,0.3-0.4,0.4-0.6l1.3-1.9l1.6,0.5L406.5,22.9z">
  </path>
  <path class="st0" d="M397,32.5c-0.6,0.5-1.8,1.7-3,2.8l-1.3,1.3c-1.1-0.2-2.1-0.3-3.2-0.3c-2.4,0-4.7,0.7-5.7,1.7
		c-0.4,0.4-0.6,0.8-0.6,1.3c0,1.2,1.4,1.8,1.8,1.9c2.2,0.8,4,0.6,5.9-0.8c1-0.7,2.3-1.9,3.3-2.9c0.8,0.2,1.6,0.4,2.6,0.7l0.9,0.2
		c-1.1,1.1-2.3,2.3-3.3,3.2l-0.1,0.1c-1.5,1.3-2.6,2.2-4.1,2.6c-1.1,0.2-1.9,0-2.1-0.1c0,0-0.1,0-0.1,0c0.9,0.7,1.7,1.2,3.2,1
		c1.4-0.1,3-1,4.6-2.5l2.2-2.2l1.6-1.5c0,0,3.1,0.9,3.1,0.9c0,0,0.1,0,0.1,0c0,0-1.9,1.9-1.9,1.9l-1.7,1.7c-1.7,1.7-2.6,2.5-3.6,3.2
		c-1.7,1.2-3.1,1.8-4.3,1.9c-0.7,0-1.6,0-2.4-0.5c0,0-0.1,0-0.1,0c0.8,0.7,1.9,1.6,3.7,1.5c2-0.1,3.8-1,6.6-3.6
		c1.3-1.2,2.5-2.5,3.6-3.6l2.1-2.1c1.4,0.3,2.6,0.4,3.9,0.4c1.9,0,3.6-1,3.6-2c0-0.8-0.6-1.2-1-1.5c-0.3-0.2-1.2-0.7-2.4-0.7
		c-1.5,0-3,0.7-4.5,1.9l-1,0.9c0,0-0.4-0.1-0.4-0.1l-2.9-0.8c0.9-0.8,1.6-1.5,2.2-2c1.6-1.4,3.3-2,4.3-2c0.8,0,2,0,2.6,0.4
		c0,0,0.1-0.1,0.1-0.1c-1.4-1.2-2.6-1.4-3.6-1.4c-1,0-2.6,0.3-4.5,1.8c-0.8,0.6-1.8,1.7-2.9,2.8l-1.4-0.4l-0.4-0.1l-1.5-0.5
		c0,0,0.9-0.8,0.9-0.8c1-1,2-2,2.8-2.6c2.8-2.3,4.5-2.6,5.7-2.6c1.3,0,2.4,0.3,3.1,0.8c0,0,0.1-0.1,0.1-0.1
		c-1.5-1.4-2.7-1.8-4.6-1.9C400.9,29.8,398.9,30.8,397,32.5 M386.1,40.7c-0.9-0.1-1.3-0.4-1.3-1.1c0-0.1,0.1-2.3,5.1-2.5
		c0.6,0,1.2-0.1,2.2,0.1c0,0-0.6,0.5-0.6,0.5l-0.3,0.3C390,39,387.9,40.9,386.1,40.7 M406.4,39c1.4-1,2.6-1.5,3.4-1.5
		c0.4,0,1,0.1,1,0.7c0,0.6-0.5,1-1.6,1.4c-0.9,0.3-2.3,0.4-3.8,0.2C405.7,39.5,406.1,39.2,406.4,39">
  </path>
  <line class="st0" x1="396.5" y1="40.1" x2="396.5" y2="41.5">
  </line>
  <path class="st0" d="M408.5,18.9c0.2-0.4,0.7-0.6,1.1-0.4c0.4,0.2,0.6,0.7,0.4,1.1c-0.2,0.4-0.7,0.6-1.1,0.4
		C408.6,19.8,408.4,19.3,408.5,18.9 M409.9,19.5c0.2-0.3,0-0.8-0.3-0.9c-0.3-0.2-0.8-0.1-0.9,0.3c-0.2,0.3-0.1,0.8,0.3,0.9
		C409.3,20,409.7,19.9,409.9,19.5 M409.4,19.8l-0.1-0.1l0-0.5l-0.1-0.1l-0.2,0.4l-0.1-0.1l0.4-0.8l0.3,0.2c0.1,0.1,0.3,0.2,0.2,0.4
		c-0.1,0.2-0.2,0.2-0.4,0.1L409.4,19.8z M409.3,19.1c0.1,0.1,0.3,0.2,0.3,0c0-0.1-0.1-0.2-0.1-0.2l-0.2-0.1l-0.1,0.2L409.3,19.1z">
  </path>
  <path class="st1" d="M92.3,31l-0.2,0.1c-1.7-1-4.4-1.8-6.9-1.8c-5.2,0-9.2,3.6-9.2,9.1c0,5.7,4.7,9,9.5,9c3.2,0,6.2-1.1,7.9-2.7
		l0.2,0.2l-1,4.7c-1.7,1-4.9,1.6-7.3,1.6c-8,0-14.7-4.8-14.7-12.7c0-7.2,5.5-12.9,14.6-12.9c3,0,5.9,0.7,8,1.6L92.3,31z M119.8,50.5
		c-0.1-1.4-0.2-2.8-0.2-4.1V30.1c0-1.2,0.1-2.8,0.2-4.1h-5.3c0.1,1.3,0.2,2.9,0.2,4.1v6H102v-6c0-1.2,0.1-2.8,0.2-4.1h-5.3
		c0.1,1.3,0.2,2.9,0.2,4.1v16.2c0,1.3-0.1,2.7-0.2,4.1h5.3c-0.1-1.4-0.2-2.8-0.2-4.1v-6.5h12.7v6.5c0,1.3-0.1,2.7-0.2,4.1H119.8z
		 M131.2,50.5c-0.1-1.4-0.2-2.8-0.2-4.1V30.1c0-1.2,0.1-2.8,0.2-4.1h-5.3c0.1,1.3,0.2,2.9,0.2,4.1v16.2c0,1.3-0.1,2.7-0.2,4.1H131.2
		z M159.8,26c-0.1,1.3-0.2,2.9-0.2,4.2v20.5h-0.8l-17.1-17.5v13.1c0,1.3,0.1,2.7,0.2,4.1h-4.5c0.1-1.4,0.2-2.8,0.2-4.1V28.9
		l-2.6-2.6V26h6.3l14.2,14.6V30.1c0-1.3-0.1-2.7-0.2-4.1H159.8z M190.6,50.5c-1.1-1.6-2-3.2-2.8-4.6l-11.5-21h-1.2l-13.7,25.7h5.5
		c0.4-1.3,1-2.5,1.4-3.3l1.5-3.1h11.7l1.6,3.2c0.5,0.9,1.1,2.1,1.3,3.2H190.6z M175.5,32.2h0.2l4.2,8.5h-8.4L175.5,32.2z
		 M227.7,50.5c-1.1-1.6-2-3.2-2.7-4.6l-11.5-21h-1.2l-13.7,25.7h5.5c0.4-1.3,0.9-2.5,1.4-3.3l1.5-3.1h11.7l1.6,3.2
		c0.5,0.9,1.1,2.1,1.3,3.2H227.7z M212.6,32.2h0.2l4.2,8.5h-8.4L212.6,32.2z M234.8,50.5c-0.1-1.4-0.2-2.8-0.2-4.1V30.1
		c0-1.2,0.1-2.8,0.2-4.1h-5.3c0.1,1.3,0.2,2.9,0.2,4.1v16.2c0,1.3-0.1,2.7-0.2,4.1H234.8z M241,50.5c0.1-1.4,0.2-2.8,0.2-4.1V30.1
		c0-1.2-0.1-2.8-0.2-4.1h9.5c5.4,0,9,2.8,9,6.6s-2.8,6.1-6.3,6.7l6.2,6.9c1.1,1.3,2.4,2.6,3.9,3.9v0.3h-6.4l-10.8-12.7v8.6
		c0,1.3,0.1,2.7,0.2,4.1H241z M246.1,37.2h2.8c3.3,0,5.3-1.3,5.3-4.2c0-2.5-1.9-3.8-5.3-3.8h-2.8V37.2z M280,50.5l1-4.4l-0.3-0.1
		c-1.3,0.7-3,1.2-4.8,1.2h-5.9v-17c0-1.2,0.1-2.8,0.2-4.1h-5.3c0.1,1.3,0.2,2.9,0.2,4.1v16.2c0,1.3-0.1,2.7-0.2,4.1H280z
		 M289.1,50.5c-0.1-1.4-0.2-2.8-0.2-4.1V30.1c0-1.2,0.1-2.8,0.2-4.1h-5.3c0.1,1.3,0.2,2.9,0.2,4.1v16.2c0,1.3-0.1,2.7-0.2,4.1H289.1
		z M317.7,26c-0.1,1.3-0.2,2.9-0.2,4.2v20.5h-0.8l-17.1-17.5v13.1c0,1.3,0.1,2.7,0.2,4.1h-4.5c0.1-1.4,0.2-2.8,0.2-4.1V28.9
		l-2.6-2.6V26h6.3l14.2,14.6V30.1c0-1.3-0.1-2.7-0.2-4.1H317.7z M340,50.5l1.1-4.4l-0.3-0.1c-1.3,0.7-3,1.2-4.9,1.2h-8v-7.9h6.4
		c1.6,0,3,0.1,4.3,0.5l0.9-3.7h-11.6v-6.7h6.9c1.8,0,3.4,0.2,4.9,0.6l0.9-3.9h-17.8c0.1,1.3,0.2,2.9,0.2,4.1v16.2
		c0,1.3-0.1,2.7-0.2,4.1H340z M360.4,31.4c-1.6-1.5-4.5-2.4-7.1-2.4c-3.4,0-5.2,1.1-5.2,2.8c0,1.9,2.4,2.8,6.7,4.7
		c6.3,2.7,7.8,4.3,7.8,7.5c0,4.2-4.1,7.1-10.2,7.1c-3.5,0-7.1-1.3-9.2-2.6l0.9-4.4h0.3c1.6,2.1,5.1,3.5,8,3.5c3.2,0,5.4-1.2,5.4-3.1
		c0-1.8-1.8-2.6-6.7-4.6c-5.7-2.3-7.9-4.2-7.9-7.8c0-3.7,3.2-6.5,10.1-6.5c2.7,0,6.2,0.9,8.2,2l-0.9,4H360.4z">
  </path>
  <path class="st2" d="M8.5,43c0.7,3.1,0.6,8.3-1.5,10.8c-3,3.7-5.9-0.4-6.6-3.4c-0.8-3.3-0.7-9.1,1.7-11.7c0.8-1,2.2-1.7,3.4-0.8
		C7.5,39.2,7.9,40.9,8.5,43">
  </path>
  <path class="st3" d="M5.8,47.1c0.1,0.4-0.2,0.9,0.4,1.1c0.4,0.3,1.3,0.2,1.2,0.8c-0.7,0-1.3-0.7-2.1-0.5c-0.4,0.1-0.8,0.3-1.3,0.5
		c-0.1-0.1-0.1-0.1-0.1-0.2c0.4-0.3,1.1-0.3,1.5-0.7l0-1.1C5.5,46.6,5.8,46.8,5.8,47.1">
  </path>
  <path class="st3" d="M6.4,49.5c0.4,0.4,0.1,0.9,0.2,1.4c0,1.1,0,2.1,0.3,3.2c0,0.1-0.1,0.3-0.2,0.4c-0.1,0-0.2-0.1-0.2-0.2
		c-0.1-1.5-0.2-2.9-0.3-4.4c-0.1-0.4-0.7-0.1-0.9-0.2c-0.1,0-0.3,0.1-0.4,0.2c-0.1,1.5,0,3-0.2,4.5c0,0-0.1,0.1-0.2,0.1l-0.1-0.1
		c0.1-1.5,0.1-3.2,0.2-4.6c0.2-0.2,0.5-0.4,0.9-0.4C5.8,49.3,6.2,49.4,6.4,49.5">
  </path>
  <path class="st3" d="M3.2,52c0,0.4,0,0.6,0,0.9c0,0.3-0.1,0.7-0.1,1c0,0.2-0.1,0.3-0.1,0.5h0.2c0.3-0.2,0.3-0.5,0.3-0.8
		c0.1-0.4,0-0.6,0.1-0.9c0-0.7,0-1.2,0.1-1.8c0-0.2,0-0.2,0-0.4c0.1-0.6,0-1.2,0-1.8c-0.2-0.6-0.8-0.6-1.3-0.7
		c-0.1-0.1-0.2-0.3-0.2-0.4c0.1-0.2,0.4-0.3,0.7-0.4c0.1,0,0.2,0,0.2-0.1c0.2-0.1,0.2-0.1,0.4-0.1c0.1,0,0.1-0.1,0.1-0.2
		c-0.2-0.3-0.5,0-0.8,0c-0.3,0.1-1,0.1-1,0.7c-0.1,0.2,0.1,0.4,0.2,0.6c0.1,0.1,0.2,0.2,0.4,0.2c0.3,0.1,0.7,0.1,0.9,0.5
		c0,0.2,0,0.5,0,0.6c0,0.1,0,0.2,0,0.4c0.1,0.2,0,0.4,0,0.7c-0.1,0.2-0.4,0.1-0.5,0.1c-0.1-0.1-0.3,0-0.5-0.1
		c-0.1-0.2-0.1-0.4,0-0.6c0.3-0.1,0.5-0.1,0.8-0.3c0,0,0,0,0-0.1c0,0,0-0.1,0-0.1c0,0,0,0-0.1-0.1c-0.2-0.2-0.2,0-0.5,0
		c-0.1,0-0.1,0-0.2,0c-0.4,0-0.1-0.5-0.3-0.7c-0.1,0-0.1-0.2-0.2-0.1c-0.3,0.2,0,0.5,0,0.8c0.1,0.7,0.1,1.5-0.1,2.3
		c0.1,0.3-0.1,0.8-0.1,1.1c-0.1,0.2,0,0.3-0.1,0.5c0,0.2-0.2,0.4,0,0.6c0.1-0.1,0.2-0.1,0.2-0.2C2,53,2.1,52.5,2.1,52
		c0-0.1,0.1-0.2,0.2-0.1c0.2,0,0.3,0.2,0.5,0.2C3.2,52,3,51.7,2.9,51.7c-0.3,0-0.2-0.1-0.5-0.2c-0.1,0-0.2,0-0.2-0.1
		c0-0.2,0-0.4,0.1-0.6c0.2-0.1,0.4,0,0.7,0c0.1,0,0.3,0,0.3,0.1C3.3,51.3,3.3,51.7,3.2,52">
  </path>
  <path class="st3" d="M7.5,43.1l-0.4-0.1C7,43,6.9,42.9,6.7,42.8c-0.3-0.2-0.8-0.4-1.1-0.7c-0.3,0-0.4,0.3-0.7,0.5
		c0,0-0.1,0.1-0.1,0c0.1-0.2,0.4-0.4,0.5-0.5c0.1-0.1,0.2-0.1,0.3-0.2c0.2,0.1,0.3,0.2,0.5,0.3c0.3,0.1,0.4,0.3,0.6,0.4
		c0.2,0.1,0.4,0.2,0.6,0.3C7.4,42.9,7.7,42.8,7.5,43.1L7.5,43.1z">
  </path>
  <path class="st3" d="M6.9,39.6c0,0.1-0.2,0.2-0.4,0.2c-0.2,0-0.3,0.1-0.4,0.2C6.1,40,6,40.1,6.1,40.2c0,0.2,0.3,0.2,0.4,0.3
		c0.1,0,0.1,0.1,0.1,0.1c-0.1,0-0.2,0-0.3,0c-0.3,0.1-0.6-0.1-0.8,0c-0.1,0-0.1,0-0.3,0.1c-0.1,0-0.1,0-0.2,0
		c-0.2,0.1-0.5,0-0.5,0.2c0,0.2-0.1,0.4-0.1,0.6c0,0.1,0,0.2-0.1,0.3c0,0.3,0.1,0.7,0.1,1.1c0,0.1,0,0.2,0,0.3
		c0.2,0.2,0.5,0.1,0.6,0.1c0.2,0,0.3,0,0.5,0c0.2,0,0.4,0,0.5,0.1c0,0,0.1,0,0.1,0.1c0,0.1-0.1,0.1-0.2,0.1c-0.1,0-0.3,0-0.5,0
		c-0.4,0-0.7,0.1-1.2,0c-0.2,0-0.3,0-0.6,0c0,0-0.3,0-0.3,0c-0.2,0-0.3,0-0.5-0.1c-0.1,0-0.2,0-0.2-0.1c0-0.1,0.1-0.1,0.1-0.1
		c0.2,0,0.5,0,0.7,0c0.3,0,0.4,0,0.6-0.1c0-0.1,0-0.2,0-0.2c0-0.3-0.1-0.6,0-1c0-0.2,0-0.5,0-0.7c0-0.2,0-0.6,0.2-0.7L5,40.4
		c0.2,0,0.4,0,0.6,0c0.1,0,0.3-0.1,0.3-0.2c0-0.1-0.1-0.2-0.2-0.3c-0.2,0-0.1,0-0.3,0c-0.1,0-0.2,0-0.3-0.1c-0.2-0.3-0.3-0.6-0.2-1
		c0-0.1,0.1-0.2,0.2-0.1c0.1,0.1,0,0.3,0,0.4c0,0.3,0.2,0.5,0.3,0.6c0.1,0.1,0.2,0,0.3,0c0.2-0.1,0.1-0.3,0.1-0.5
		c0-0.3,0-0.4,0.1-0.6c0.1,0,0.1,0.1,0.1,0.2l0,0.1c0,0.2,0,0.5,0.1,0.7c0.1,0.1,0.1,0.1,0.2,0.1c0.2-0.1,0.3-0.1,0.3-0.3
		c0.1-0.2-0.1-0.5,0.2-0.5c0.1,0,0.1,0,0.1,0.1L6.9,39.6z">
  </path>
  <path class="st3" d="M6.9,41.8c-0.1,0-0.2,0-0.2-0.1c-0.2-0.2-0.7-0.3-0.9-0.5c-0.3-0.1-0.3,0-0.4,0.1c-0.1,0.1-0.2,0.2-0.4,0.2
		c-0.1,0.1-0.1,0.1-0.2,0.1c0,0-0.1-0.1-0.1-0.1c0.1-0.1,0.2-0.2,0.3-0.3c0.2-0.1,0.4-0.3,0.6-0.4c0.2,0.1,0.6,0.2,0.8,0.3
		C6.6,41.5,6.9,41.6,6.9,41.8C7,41.8,7,41.8,6.9,41.8">
  </path>
  <path class="st3" d="M5.9,45.1C6,45.4,6,45.9,5.8,46c-0.1,0.2-0.2,0.2-0.4,0.2c-0.4,0-0.3,0-0.6,0.1l-0.6,0.1c-0.4,0-0.6,0-1,0
		c-0.2,0-0.4-0.1-0.6-0.1c0-0.1-0.1-0.1-0.1-0.2C2.6,46,2.8,46,3,46c0.3,0,0.7,0.1,1,0.1c0.4,0,0.5,0,0.9,0C5,46,5.2,46,5.3,45.9
		c0.3-0.1,0.3-0.1,0.4-0.4c0-0.3,0-0.4-0.3-0.4c-0.4-0.1-0.6,0-0.8-0.3c-0.2-0.2,0-0.5-0.3-0.7c-0.3,0-0.5,0.1-0.8,0
		c-0.2,0-0.3,0-0.4,0c-0.1,0-0.2,0-0.4,0c-0.1,0-0.1,0-0.2,0c0-0.1-0.2-0.1-0.1-0.2c0.1-0.1,0.2,0,0.3,0c0.3,0,0.5,0,0.8,0
		c0.1,0,0.2,0,0.3,0c0.3,0,0.5,0,0.8,0c0.2,0,0.4,0,0.6,0c0.2,0,0.3,0,0.4,0c0.2-0.1,0.4,0,0.5,0c0.3,0,0.4-0.1,0.6,0
		c0.1,0,0.1,0.1,0.1,0.1c0,0.1,0,0.1-0.1,0.1c-0.2,0.1-0.4,0-0.6,0c-0.2,0-0.4,0-0.6,0c-0.1,0-0.3,0-0.5-0.1c-0.1,0-0.3,0-0.4,0
		c0,0.2,0,0.3,0.2,0.4c0.1,0.1,0.4,0.1,0.6,0.1C5.6,44.9,5.9,44.9,5.9,45.1">
  </path>
  <path class="st3" d="M4.3,38.8c0,0.3,0,0.8-0.3,1.1c-0.2,0.1-0.6,0-0.7,0.2c-0.1,0.2,0,0.4,0,0.6c0.1,0.3,0.3,0.4,0.5,0.6
		C3.9,41.4,4,41.5,4,41.6c-0.1,0-0.1,0.1-0.2,0l-0.1-0.1l-0.1-0.1c-0.1-0.1-0.2-0.2-0.3-0.2c-0.4,0-0.6,0.4-0.9,0.6
		c-0.1,0.1-0.2,0.2-0.3,0.2C2,42.1,2,42.1,1.9,42.2c-0.1,0.1-0.2,0.2-0.4,0.2l0-0.1c0-0.1,0.2-0.2,0.3-0.2c0.2-0.2,0.4-0.5,0.8-0.7
		c0.2-0.2,0.5-0.3,0.6-0.6c0-0.1-0.1-0.2-0.1-0.3c0-0.2,0.1-0.4-0.1-0.5c-0.2,0-0.5-0.1-0.6-0.2C2.1,39.5,2,39,2.2,38.6l0,0
		c0.2,0,0.1,0.3,0.1,0.4c0,0.2,0.1,0.5,0.2,0.6c0.1,0.1,0.2,0.2,0.3,0.2c0.1,0,0.2-0.1,0.2-0.2c0.1-0.3-0.1-0.6,0.1-0.9
		c0-0.1,0-0.2,0.1-0.3l0.2,0c0,0.2-0.1,0.4-0.1,0.6c0,0.2,0,0.4,0.1,0.5c0.1,0.1,0.2,0.1,0.2,0.1c0.2,0,0.4-0.2,0.4-0.4
		c0-0.2,0.1-0.5,0-0.6l0-0.1C4.3,38.6,4.3,38.7,4.3,38.8">
  </path>
  <path class="st3" d="M3.8,42.7c-0.1,0-0.1-0.1-0.2-0.2c-0.1-0.1-0.2-0.3-0.5-0.2c-0.1,0.1-0.2,0.1-0.3,0.2c-0.3,0.4-0.6,0.5-1,0.9
		c-0.1,0-0.1,0-0.1-0.1C1.9,43.1,2,43,2.2,42.9c0.1-0.1,0.2-0.2,0.3-0.3c0.1-0.1,0.1-0.1,0.2-0.2C2.8,42.2,3,42.2,3.1,42
		c0.1-0.1,0.2-0.1,0.3,0c0.1,0.2,0.3,0.3,0.4,0.4C3.9,42.5,4,42.6,3.8,42.7">
  </path>
  <path class="st4" d="M38.7,0c0.7,0,1.1,0.3,1.5,0.5c0.8,0.4,1.4,0.8,2.5,0.8c0.6,0,1.2,0.1,1.7,0.3c1.9,0.9,3,4.2,3.4,6
		c0.1,0.6,0.1,1.3,0,1.9c-0.1,0.6-0.1,1.2,0,1.7c0.2,0.9,0.6,0.9,0.8,0.9h0c0.2,0,0.5-0.1,0.8-0.1c0.2,0,0.5-0.1,0.7-0.1
		c0.5-0.1,1.1-0.1,1.6-0.1c0.7,0,1.5,0.1,2.1,0.3c0.7,0.2,1.4,0.2,2.1,0.3c0.5,0,1.1,0.1,1.7,0.2c0.6,0.1,2.5,0.5,3.7,0.9
		c0.6,0.3,1.1,0.7,1.6,1.1c0.4,0.4,0.8,0.7,1.3,1c2.8,1.5,3.6,3.2,2.8,6c-0.1,0.3-0.2,0.6-0.3,0.9c-0.3,0.9-0.5,1.9-0.9,2.8
		c-0.4,1.2-1,1.7-1.7,2.2c-0.2,0.2-0.4,0.4-0.7,0.6c-0.7,0.6-1.2,1.4-1.7,2.2c-0.7,1.1-1.5,2.3-2.7,3.1c-1,0.6-1.9,0.6-2.9,0.7
		c-0.1,0-0.1,0-0.2,0c-0.5,0.2,0,1.2,0.4,1.8c0.2,0.3,0.4,0.7,0.6,1.2c0.1,0.3,0.1,0.7,0.1,1.1c0,0.3,0,0.6,0.1,0.8
		c0,0.1,0.2,0.2,0.3,0.4c0.3,0.2,0.6,0.5,0.7,0.9c0.3,1.1,0.2,3.4-0.1,4.2c-0.1,0.2-0.3,0.5-0.5,0.7c-0.2,0.2-0.4,0.5-0.5,0.6
		C57,46,57,46.2,56.9,46.5c-0.1,0.4-0.2,0.8-0.4,1.2c-1.1,1.6-3.5,2.4-5.3,3.1c-0.5,0.2-0.9,0.3-1.3,0.5c-0.5,0.2-0.9,0.3-1.3,0.3
		c-0.5,0-1-0.2-1.4-0.4c-0.2-0.1-0.5-0.2-0.8-0.3c-0.8-0.3-1.5-0.4-2.4-0.4c-0.4,0-0.8-0.1-1.3-0.1c-0.9-0.1-1.5-0.5-2-0.9
		c-0.1,0-0.1-0.1-0.2-0.2h-0.1c-0.8,0-1.4-0.2-1.8-0.5c-0.9,1.3-2.2,2.2-4.2,3c-1.3,0.7-2.7,1-3.8,1.3c-0.3,0.1-0.6,0.2-0.8,0.3
		c-1.1,0.3-2.2,0.5-3.4,0.5c-0.4,0-0.9,0-1.3-0.1c-1.5,0-2.7-0.4-3.7-1c-1-0.5-1.9-1.2-2.7-1.9c-1.1-0.7-2.3-1.6-2.8-2.8
		c-0.7-1.4-0.3-2,0.1-2.9c0.1-0.2,0.2-0.5,0.4-0.7c0-0.1,0.1-0.1,0.1-0.2c0.8-1.8,1-2.6,1.1-2.9c-0.9-0.3-1.7-1.1-2.4-2.4
		c-0.4-0.7-0.8-1.4-1.1-1.7c-0.2-0.2-0.4-0.4-0.6-0.7c-0.2-0.2-0.4-0.3-0.5-0.4c-0.8-0.8-1.8-1.3-2.8-1.7c-0.9-0.4-1.8-0.9-2.5-1.5
		c-0.5-0.4-0.9-1-1.3-1.7c-1.1-1.8-2.3-3.6-2.6-5.5c-0.3-1.8,0.1-2.9,0.7-4c0.2-0.4,0.4-0.8,0.6-1.1c0.1-0.2,0.2-0.4,0.3-0.6
		c0.1-0.3,0.2-0.5,0.3-0.7C5.9,18.4,6,18,6.6,17.4c0.7-0.8,1.3-1.2,2.2-1.6c0.9-0.4,1.9-0.7,2.7-0.8c0.1,0,0.6-0.1,0.8,0
		c0.2,0,0.4,0.1,0.5,0.1c0,0,0.1,0,0.1,0c0.2,0,0.4-0.1,0.5-0.2c0.2-0.1,0.5-0.2,0.9-0.2h0.1c0.9,0,3.9,1.6,4.7,1.6c0,0,0.2,0,0.3,0
		c0.1,0,0.2-0.1,0.2-0.1c0.4-0.3,0.7-0.7,0.9-1.3c0,0,0-0.1,0.1-0.1l0,0c0-0.1,0.1-0.2,0.1-0.3l0,0c0-0.1,0.1-0.2,0.1-0.3
		c0.2-0.6,0.3-1.2,0.4-1.8c0-0.2,0.1-0.3,0.1-0.5l0-0.1l0-0.2c0,0,0-0.2,0-0.2c0,0,0-0.1,0-0.1l0,0c0,0,0-0.1,0-0.1l0-0.1
		c0-0.1,0-0.1,0-0.1l0,0c0,0,0-0.1,0-0.1l0,0c0-0.1,0-0.1,0-0.2v0c0-0.1,0-0.1,0-0.1l0,0c0-0.1,0-0.1,0-0.1l0,0c0,0,0-0.1,0.1-0.1
		l0,0c0-0.1,0-0.1,0.1-0.1v0c0,0,0-0.1,0.1-0.1l0,0c0,0,0-0.1,0.1-0.1c0.3-0.6,0.5-1.4,0.7-2.1c0.4-1.6,0.9-3.2,2.3-4.1
		c0.6-0.4,1.3-0.4,1.9-0.5c0.5,0,1-0.1,1.5-0.3c0.4-0.2,0.7-0.5,1.1-0.8c0.5-0.4,1-0.8,1.7-1c0.1,0,0.1,0,0.2-0.1l0.1,0
		c0.1,0,0.1,0,0.2,0l0,0c0.1,0,0.1,0,0.2,0l0.1,0c0.1,0,0.1,0,0.2,0l0.1,0c0.1,0,0.1,0,0.2,0l0.1,0c0.1,0,0.1,0,0.2,0
		c0,0,0.1,0,0.1,0c0,0,0.1,0,0.1,0c0,0,0.1,0,0.1,0c0,0,0.1,0,0.1,0H33h0.1h0.1h0.1h0.1c0.2,0,0.5,0,0.7,0h0c0.1,0,0.2,0,0.3,0h0
		c0.1,0,0.2,0,0.3,0c0.2,0,0.4,0,0.6,0c0.6,0,1.1-0.1,1.7-0.2C37.7,0.1,38.3,0,38.7,0">
  </path>
  <g>
   <defs>
    <path id="SVGID_1_" d="M38.4,0.4c-0.2,0-0.3,0-0.5,0c-1.3,0.2-1.9,0.5-3.2,0.3c-1.1-0.1-2.2-0.2-3.4,0.2
				c-1.1,0.3-1.7,1.3-2.7,1.8c-1.1,0.6-2.3,0.2-3.4,0.8c-1.9,1.2-1.9,4.2-2.8,6.1c-1,2.1-0.6,5.3-2.6,6.9c0,0-0.1,0.1-0.3,0.1
				c-0.1,0-0.4,0-0.4,0c-0.9,0-3.6-1.5-4.8-1.6c-0.6,0-0.9,0.3-1.5,0.4c-0.3,0-0.5,0-0.7,0c-0.2,0-0.5,0-0.7,0
				c-0.8,0.1-1.8,0.4-2.5,0.8c-0.8,0.4-1.4,0.8-2,1.5c-0.8,0.9-0.7,1.2-1.2,2.1c-1,2.1-2,3-1.5,5.5c0.4,2.1,1.8,4.3,3,6.1
				c1.4,2.1,4.2,2.4,6.1,4.2c0.7,0.7,1.5,1.4,2.1,2.2c0.5,0.6,2.3,2.4,2.5,3.1c0.1,0.6-0.9,2.9-1.2,3.5c-0.6,1.3-1.2,1.7-0.5,3.3
				c0.9,1.9,3.6,3.1,5.2,4.4c2.1,1.8,5.2,1.1,7.7,0.7c2.6-0.4,5-0.8,7.1-2.9c1.1-1.1,1.5-2.2,3.3-1.6c1.3,0.5,1.8,1.4,3.3,1.6
				c1.4,0.2,2.5,0.1,3.8,0.6c1.4,0.5,1.7,1.1,3.3,0.5c1.9-0.7,5.2-1.5,6.5-3.4c0.4-0.6,0.3-1.3,0.6-1.9c0.2-0.4,0.9-1,1-1.3
				c0.3-0.7,0.4-2.9,0.1-3.9c-0.2-0.6-0.8-0.8-1-1.3c-0.2-0.6,0-1.3-0.2-1.9c-0.5-1.4-1.8-2.8-0.9-3.5c0.2-0.1,2.1,0,3.2-0.7
				c2.1-1.2,2.7-3.7,4.3-5.2c1-0.9,1.8-1.3,2.3-2.7c0.4-1.2,0.7-2.4,1.1-3.7c0.8-2.8-0.2-4.3-2.6-5.6c-1.1-0.6-1.8-1.6-2.9-2.1
				c-1-0.4-2.6-0.8-3.6-0.9c-1.4-0.2-2.6-0.2-3.9-0.5c-1.1-0.3-2.3-0.3-3.6-0.1c-1.3,0.2-2.3,0.8-2.7-1c-0.2-1.1,0.2-2.5,0-3.6
				c-0.3-1.8-1.4-4.9-3.2-5.7c-1-0.5-2.2-0.1-3.4-0.8c-0.9-0.5-1.4-0.8-2.3-0.8H38.4z">
    </path>
   </defs>
   <clipPath id="SVGID_2_">
    <use href="#SVGID_1_" style="overflow:visible;">
    </use>
   </clipPath>
   <radialGradient id="SVGID_3_" cx="-300.3996" cy="312.5916" r="1.9493" gradientTransform="matrix(14.8959 0 0 -14.8959 4510.2368 4683.1113)" gradientUnits="userSpaceOnUse">
    <stop offset="0" style="stop-color:#FFFFFF">
    </stop>
    <stop offset="6.748470e-02" style="stop-color:#FFFFFF">
    </stop>
    <stop offset="0.3804" style="stop-color:#F9DDE3">
    </stop>
    <stop offset="1" style="stop-color:#DD5365">
    </stop>
   </radialGradient>
   <rect x="3.7" y="0.4" class="st5" width="63.8" height="53.4">
   </rect>
  </g>
  <g>
   <defs>
    <path id="SVGID_4_" d="M38.4,0.3c-0.2,0-0.3,0-0.5,0.1c-1.3,0.2-1.9,0.4-3.1,0.3c-0.2,0-0.9-0.1-1.2-0.1c-0.7,0-1.4,0-2.2,0.3
				c-1.1,0.3-1.7,1.3-2.7,1.8c-1.1,0.6-2.3,0.2-3.4,0.8c-1.9,1.2-1.9,4.2-2.8,6.1c-0.8,1.6-0.7,3.7-1.5,5.4c0.1,0.6,0.2,1.2,0.3,1.8
				c0.3,0.9,2.1,0.9,1.8,2.7l0.1,0.3c1.5,4.8,10.1,3.6,12.5,1.7c1.2-1,3.6-1.7,4.6-2.9c0.8-1.1,3.6-1.9,4.2-3.1
				c1.1-1.8,2.5-4.2,2.3-5.8c-0.4-5-3.5-7.4-5.8-8.4c-1.1-0.5-1.5-0.9-2.5-0.9C38.5,0.3,38.4,0.3,38.4,0.3">
    </path>
   </defs>
   <clipPath id="SVGID_5_">
    <use xlink:href="#SVGID_4_" style="overflow:visible;">
    </use>
   </clipPath>
   <radialGradient id="SVGID_6_" cx="-294.9163" cy="308.9188" r="1.9493" gradientTransform="matrix(11.445 0 0 -11.445 3408.314 3539.4839)" gradientUnits="userSpaceOnUse">
    <stop offset="0" style="stop-color:#DD5365">
    </stop>
    <stop offset="0.2086" style="stop-color:#DD5365">
    </stop>
    <stop offset="0.2967" style="stop-color:#DF5C6D">
    </stop>
    <stop offset="0.4392" style="stop-color:#E47483">
    </stop>
    <stop offset="0.6183" style="stop-color:#EC9BA6">
    </stop>
    <stop offset="0.825" style="stop-color:#F6D0D7">
    </stop>
    <stop offset="0.8712" style="stop-color:#F9DDE3">
    </stop>
    <stop offset="1" style="stop-color:#F9DDE3">
    </stop>
   </radialGradient>
   <rect x="20.9" y="0.3" class="st6" width="26" height="24.2">
   </rect>
  </g>
  <g>
   <defs>
    <path id="SVGID_7_" d="M39.2,1c-0.2,0-0.4,0-0.6,0.1c-1.3,0.2-2,0.5-3.3,0.4c-0.2,0-1-0.1-1.3-0.1c-0.7,0-1.5,0-2.3,0.3
				c-1.1,0.3-1.8,1.3-2.8,1.8c-1.1,0.6-2.4,0.2-3.5,0.8c-1.1,0.7-2.4,3-2.8,6c-0.1,1,0.5,1.9,0.4,3C22.6,18.1,24,17,25,18.9
				c1.9,3.6,1.7,4.8,0.8,4.6c1.1,1.3,2,2.9,1.3,4c3.3,0.7,7.5-0.2,9.1-1.4c1.3-1,3.1-2,4.1-3.3c0.9-1.1,2.5-4.6,3.2-5.8
				c1.1-1.8,2.3-2.2,3.2-5.6c1.5-5.7-1.4-8.1-4.5-9.4C41.2,1.5,40,1,39.2,1C39.3,1,39.3,1,39.2,1">
    </path>
   </defs>
   <clipPath id="SVGID_8_">
    <use xlink:href="#SVGID_7_" style="overflow:visible;">
    </use>
   </clipPath>
   <radialGradient id="SVGID_9_" cx="-297.2763" cy="309.8426" r="1.9493" gradientTransform="matrix(12.7539 0 0 -12.143 3827.1926 3770.6409)" gradientUnits="userSpaceOnUse">
    <stop offset="0" style="stop-color:#DD5365">
    </stop>
    <stop offset="8.672770e-02" style="stop-color:#DE596B">
    </stop>
    <stop offset="0.2059" style="stop-color:#E26B7B">
    </stop>
    <stop offset="0.3439" style="stop-color:#E88895">
    </stop>
    <stop offset="0.4948" style="stop-color:#F0B0BA">
    </stop>
    <stop offset="0.638" style="stop-color:#F9DDE3">
    </stop>
    <stop offset="0.7635" style="stop-color:#FAE4E9">
    </stop>
    <stop offset="0.9489" style="stop-color:#FEF8F9">
    </stop>
    <stop offset="1" style="stop-color:#FFFFFF">
    </stop>
   </radialGradient>
   <rect x="22.6" y="1" class="st7" width="25.5" height="27.2">
   </rect>
  </g>
  <g>
   <defs>
    <path id="SVGID_10_" d="M34.4,31.3c-2,0.5-5.7,0-7.4,1.3c-1.6,1.1-3,2.6-3.8,4.3c-1.8,2-3.9,3.8-5,5.4c-1.2,1.7-1.5,4.5-0.7,6.1
				c2.2,4.4,7.8,5.8,12.1,4.5c4.1-0.9,9.2-2.1,9.8-7.6c0.3-2.7,1.1-5.5,0.1-8.1c-0.7-1.8-0.8-5.9-4.1-5.9
				C35.1,31.1,34.8,31.2,34.4,31.3">
    </path>
   </defs>
   <clipPath id="SVGID_11_">
    <use xlink:href="#SVGID_10_" style="overflow:visible;">
    </use>
   </clipPath>
   <radialGradient id="SVGID_12_" cx="-286.1442" cy="299.7796" r="1.9493" gradientTransform="matrix(8.2809 0 0 -8.2809 2395.5859 2517.7681)" gradientUnits="userSpaceOnUse">
    <stop offset="0" style="stop-color:#FFFFFF">
    </stop>
    <stop offset="0.411" style="stop-color:#F9DDE3">
    </stop>
    <stop offset="1" style="stop-color:#DD5365">
    </stop>
   </radialGradient>
   <rect x="16.7" y="31.1" class="st8" width="23.7" height="23">
   </rect>
  </g>
  <g>
   <defs>
    <path id="SVGID_13_" d="M4.1,24.5c0,2,1.6,4.2,2.4,5.9c1.3,2.5,2.4,2.6,4.7,3.8c1.9,1,3.1,2.2,4.1,4.2c2.8,5.3,5.7,0.4,8.1-1.6
				c1.8-1.4,2.9-4.6,2.3-7c-0.3-1.5-1.6-3.8-2.9-4.7l0.8,0.5c-1-1-0.2-2.3-0.7-3.5c-0.4-1.1-1-2.4-1.6-3.6c-0.9-1.8-1.8-1.3-2.7-0.9
				c-0.5,0.2-0.9,0.5-1.3,0.4c-1.1-0.3-2.8-0.7-3.8-1.1c-0.7-0.3-1.5-0.4-2.2-0.4C7.7,16.7,4.2,20.4,4.1,24.5">
    </path>
   </defs>
   <clipPath id="SVGID_14_">
    <use xlink:href="#SVGID_13_" style="overflow:visible;">
    </use>
   </clipPath>
   <radialGradient id="SVGID_15_" cx="-293.1434" cy="306.0186" r="1.9493" gradientTransform="matrix(10.5286 0 0 -10.5286 3112.5073 3252.6506)" gradientUnits="userSpaceOnUse">
    <stop offset="0" style="stop-color:#FFFFFF">
    </stop>
    <stop offset="6.748470e-02" style="stop-color:#FFFFFF">
    </stop>
    <stop offset="0.4294" style="stop-color:#F9DDE3">
    </stop>
    <stop offset="1" style="stop-color:#DD5365">
    </stop>
   </radialGradient>
   <rect x="4.1" y="16.7" class="st9" width="22.3" height="27">
   </rect>
  </g>
  <g>
   <defs>
    <path id="SVGID_16_" d="M49,13c-1.1,0.2-2.3,1-3.2,1.6c-0.9,0.7-1.5,2.5-2.4,3.1c-2.1,1-2.2,1.5-3.3,3.3
				c-0.9,1.5-2.1,3.6-3.1,5.3c0,0.6,0,1.3,0.2,1.9c0.2,1,1.4,2.7,1.3,3.6l0.1-0.4c1,5.2,11.6,6.8,9.7,4.3c-5.1-6.6,2.8-9.8,3.8-8.6
				c6.2,7.7,8.7,3.2,9.3,2.4c1.3-1.7,2.3-3.5,2.6-5.2c2-10.9-4.2-9.4-7.6-10.9c-0.2,0-0.4,0-0.6,0c-1.3,0.1-2,0.2-3.3-0.1
				c-0.2,0-0.4-0.1-0.6-0.1c-0.2,0-0.4-0.1-0.6-0.1c-0.4-0.1-0.8-0.1-1.2-0.1C49.8,12.9,49.4,12.9,49,13">
    </path>
   </defs>
   <clipPath id="SVGID_17_">
    <use xlink:href="#SVGID_16_" style="overflow:visible;">
    </use>
   </clipPath>
   <radialGradient id="SVGID_18_" cx="-305.028" cy="317.5237" r="1.9493" gradientTransform="matrix(21.2346 0 0 -21.2346 6552.1748 6754.7646)" gradientUnits="userSpaceOnUse">
    <stop offset="0" style="stop-color:#DD5365">
    </stop>
    <stop offset="0.3067" style="stop-color:#DD5365">
    </stop>
    <stop offset="0.4134" style="stop-color:#E36F7F">
    </stop>
    <stop offset="0.6422" style="stop-color:#F1B6BF">
    </stop>
    <stop offset="0.7607" style="stop-color:#F9DDE3">
    </stop>
    <stop offset="1" style="stop-color:#F9DDE3">
    </stop>
   </radialGradient>
   <rect x="37.1" y="12.9" class="st10" width="28.9" height="25.3">
   </rect>
  </g>
  <g>
   <defs>
    <path id="SVGID_19_" d="M48,34.7C48,34.7,48,34.7,48,34.7C48,34.7,48,34.7,48,34.7C48,34.7,48,34.7,48,34.7 M45.8,14.5
				c-0.3,0.3-0.7,0.7-0.8,1c-0.4,0.7-0.7,1.2-1.5,1.6c-0.6,0.3-1,0.5-1.5,1c-0.4,0.5-0.7,1-1.1,1.5c-0.7,1-2.1,1.2-3.3,1.2
				c-0.3,0-0.6,0-0.9,0c-1.7,1.1-3.4,1.7-5.1,1.3c-1-0.2-2.2-2-3.2-1.9c-0.9,0.1,0.5,0.6-0.2,1.4c-0.8,0.9-1.8,0.2-2.5-0.6
				c-0.5-0.5-0.8-1-0.9-1c-0.2,0.1,0,0.6,0,0.8c0,0.5-0.5,0.8-0.6,1.4c-0.1,0.5,0,0.8,0.1,1.1c0.1,0.3,0.2,0.7,0.2,1.3
				c0,0.9,0,0.6-0.1,1.6c-0.1,1.8-0.8,2.6-1.3,4.4c-0.5,2,1.6,3-0.9,6.7c-0.8,1.2-4.5,2.9-4.3,4.4c1-0.2,1.6-1.3,2.4-2.1
				c1.8-1.8,6.6-3.7,9.5-3.8c3-0.1,0.1,3.2,1,3.8c0.8,0.6-0.8,2.4,0.1,1.9c0.9-0.5,2.2-4.8,2.8-5.8c0.3-0.7,5-11.6,5.2,4.8
				c0,1.6,0.9,2.3,0.5,3.8c-0.2,0.7-3,4.7,1.6,4.2c0.6-3.4-2-5.8-0.6-7.5c0.7-0.9,3.2-1,3.2-2.2c-0.1-2.5,1.1-2.5,2.2-2.4
				c0.7,0,1.3,0.1,1.6-0.5c0.4-0.9,0.6-1.2,0.7-1.3c0,0-0.1-0.1-0.1-0.4c-0.1-1.1,0.9-1.1,0.4-2.2c1.1,0.3,1.4-0.8,2.3-1.1
				c0.6-0.2,1.8-0.1,2.5,0c1.5,0.2,2.2,2.7,2.5,2.5c0.3-0.5-0.5-1.8-1.3-2.5c-0.6-0.6-1.4-1.8-1.9-2.4c-0.8-1-0.3-2.3-1.4-2.9
				c-0.3-0.2-0.6-0.1-0.9-0.1c-0.5,0.1-1.1,0.2-2.2-0.5c-5.9,4.2-0.9-2.1-1.3-3.7C45.8,19.5,44.2,18.9,45.8,14.5
				C45.9,14.5,45.9,14.5,45.8,14.5C45.8,14.5,45.8,14.5,45.8,14.5">
    </path>
   </defs>
   <clipPath id="SVGID_20_">
    <use xlink:href="#SVGID_19_" style="overflow:visible;">
    </use>
   </clipPath>
   <radialGradient id="SVGID_21_" cx="-293.8366" cy="306.9732" r="1.9479" gradientTransform="matrix(11.0281 0 0 -11.0281 3277.3135 3416.9629)" gradientUnits="userSpaceOnUse">
    <stop offset="0" style="stop-color:#FFFFFF">
    </stop>
    <stop offset="9.202450e-02" style="stop-color:#FFFFFF">
    </stop>
    <stop offset="0.3742" style="stop-color:#F9DDE3">
    </stop>
    <stop offset="0.466" style="stop-color:#F1B7C1">
    </stop>
    <stop offset="0.5873" style="stop-color:#E98C99">
    </stop>
    <stop offset="0.6966" style="stop-color:#E26D7D">
    </stop>
    <stop offset="0.7888" style="stop-color:#DE5A6B">
    </stop>
    <stop offset="0.8528" style="stop-color:#DD5365">
    </stop>
    <stop offset="1" style="stop-color:#DD5365">
    </stop>
   </radialGradient>
   <rect x="17.9" y="14.5" class="st11" width="38" height="34.6">
   </rect>
  </g>
  <path class="st12" d="M27.2,35.5c-0.6-0.4,0-2,0.7-2.8c0.7-0.8,1.8-2.1,1.6-2.2c-0.3-0.1-1.6,0.1-2,0c-0.4-0.1,2.2-1.2,2.5-1.3
		c0.3-0.2-1.9-0.7-2.6-0.8c-0.8-0.1-2.4,0.1-2.2-0.2c0.1-0.3,1.1-0.8,1.3-1c0.2-0.2-1.2-0.9-1.3-1.3c-0.1-0.3,0.3-0.7,1.8-0.3
		c1.5,0.3,2.7,0.2,3.3,0.3c0.6,0.1,1,0.3,1.2,0.4c0.2,0.2,0.4-0.4,0.6-0.3c0.2,0.1,0.7,0.4,0.7,0.1c0-0.3-0.2-0.8-0.6-1.2
		c-0.4-0.4-1-1.1-1.1-1.3c-0.1-0.3-0.4-0.9,0-1c0.4-0.1,0.7,0,0.9-0.1c0.2-0.1,0.6-0.6,1.1-0.4c0.5,0.2,0.8,0.4,0.9,0.5
		c0.2,0.1,0.5,0.2,0.7,0.1c0.2-0.1,0.6-0.6,1.1-0.3c0.5,0.3,1.3,0.9,2,0.8c0.7-0.2,1.2-0.5,1.4-1c0.2-0.4,0.8-1.8,1.1-2.1
		c0.3-0.3,0.9-0.8,0.8-0.6c-0.1,0.2-0.8,1.7-0.7,2.4c0,0.7-0.1,0.9,0.1,1.1c0.2,0.2,0.5,0.1,0.8,0c0.3-0.1,0.7-0.4,0.7-0.2
		c0.1,0.2-1.5,1.2-1.9,1.7c-0.5,0.4-0.9,1.3-0.7,1.7c0.2,0.4,1.1,0.2,1.5,0.2c0.4,0,1.4,0.1,1.3,0.3C42,27,40.4,28,40.4,28.2
		c0,0.2,1,0.5,1.5,0.5c0.5,0,1.8,0.2,2.3,0.3c0.5,0.1,0.9,0.1,1,0.4c0.1,0.3,0.3,0.5,0.1,0.5c-0.2,0-1.3-0.1-1.6-0.3
		c-0.4-0.1-2.2-0.6-2.7-0.5c-0.4,0-1.7,0-1.9,0.4c-0.2,0.4,0.7,0.7,0.9,0.9c0.2,0.2,0.9,1,0.5,1c-0.5,0.1-0.8-0.3-1-0.3
		c-0.2-0.1-0.9-0.6-1.1-0.7c-0.2-0.1-1-1-1.3-0.9c-0.4,0-1.2,0.2-1.6,0.5c-0.4,0.3-0.9,0.8-1.2,1.1c-0.3,0.3-1.3,1-1.8,1.3
		c-0.4,0.4-2.9,2.3-3.3,2.6C28.8,35.4,27.7,35.9,27.2,35.5">
  </path>
  <path class="st13" d="M34.2,21.1c-0.2-0.3-0.1-0.9,0-1.3c0.1-0.3,1.2-2.2,2.2-1.9c0.4,0.1,0.7,0.3,0.8,0.8c0.2,0.8,0.2,1.9-0.3,2.5
		C36.2,22.1,34.7,21.8,34.2,21.1">
  </path>
  <path class="st13" d="M29.2,23.4c0.3-0.1,0.7-0.4,0.8-0.7c0.1-0.4,0.9-0.4,0.9-0.6c0-0.2-0.8-2.3-1.3-2.5c-0.6-0.2-0.7,0.1-1.2,0.1
		c-0.4,0-0.7-0.2-1,0.2c-0.4,0.6-1,1.5-0.5,2.2C27.4,22.9,28.2,23.6,29.2,23.4">
  </path>
  <path class="st13" d="M41.2,25.1c-0.1,0.2-0.5,0.3-0.7,0.1c0.6-0.8,1.2-1,2-1.6c0.3-0.3,0-1.6,0.2-2c0.1-0.4,1.5-1.3,2-1
		c0.3,0.2,0.6,0.2,0.8,0.5c0.3,0.5,0.3,1.3,0.3,1.7c0,0.5-0.3,0.9-0.4,1.4c-0.1,0.5-1,0.4-1.4,0.4c-0.5,0-1-0.4-1.5,0
		C42.2,24.7,41.5,24.9,41.2,25.1">
  </path>
  <path class="st13" d="M35.4,26.9c0.2-0.3,0-0.8,0-1.1c0-0.3,0.1-0.7-0.2-0.8c-0.1,0.6-0.2,1.4,0,2C35.3,27,35.4,26.9,35.4,26.9">
  </path>
  <path class="st13" d="M23.5,28.6c0.7-1,1.4-1.3,2.3-1.5c0-0.1-0.2-0.2-0.3-0.2c-0.6-0.1-1.1-0.5-1.5-1c-0.8-0.9-1.2-1.7-2.5-1.3
		c-1.3,0.4-1.4,2.6-1,3.6C21,29.6,22.7,29.7,23.5,28.6">
  </path>
  <path class="st13" d="M49.7,27c1.4-0.5,2.5,0.2,1.8,1.3c-0.3,0.6-0.2,1.2-0.6,1.8c-0.3,0.5-1.1,0.7-1.6,0.5
		c-0.5-0.2-1.2-0.5-1.6-0.9c-0.4-0.4-0.5-0.8-1.2-1c-1.1-0.3-2.3,0-3.4-0.4c1.2-0.6,2.7,0.1,3.9,0C47.5,28.3,47.9,27.3,49.7,27">
  </path>
  <path class="st13" d="M43,28.3c-0.3-0.2-0.7-0.2-1,0C42.2,28.4,42.7,28.4,43,28.3">
  </path>
  <path class="st13" d="M26.2,32.3c-1.2-1.5-3.9,1.3-4.1,1.5c-0.2,0.2-0.7,0.6-0.7,0.7c-0.2,0.6,1.2,1.4,1.6,1.6
		c0.6,0.3,1,1.2,1.8,0.6c0.7-0.6,0.8-1.1,1-2c0.2-0.8,0.5-1.6,1.1-2.1c0.6-0.6,1.3-1,1.8-1.6C27.6,30.9,27.1,31.9,26.2,32.3">
  </path>
  <path class="st13" d="M44.7,25.9c-0.2-1-1.9,0-2.3,0c0.5,0.1,1.2,0.1,1.8,0.2C44.4,26.1,44.8,26.1,44.7,25.9">
  </path>
  <path class="st13" d="M37.5,31.3c0.5,0.3,0.6,0.9,1.1,1.2c0.4,0.2,1,0.6,1.4,0.9c0.2,0.2,0.5,1,0.1,1.1c-0.5,0.3-0.7-0.8-1,0.1
		c-0.3,0.9-1.3,1.3-1.5,2.2c-0.1,0.6-0.6,1.5-0.2,2.2c0.1,0.2,0.3,0.3,0.6,0.3c0.5,0.1,0.6,0,1,0.3c0.5,0.3,1,0.5,1.6,0.2
		c0.6-0.3,1-0.7,1.1-1.3c-0.1-0.7-0.3-1.4-0.3-2.1c0-0.7,0.3-1.1,0-1.8c-0.3-0.6-0.5-0.8-1-1.2c-0.4-0.3-0.5-0.8-0.8-1.2
		c-0.4-0.6-1.3-1.4-1.5-1.7c-0.3-0.3-0.6-0.5-1.1-0.5c-0.5,0-1.2,0.5-1.5,0.9c-0.4,0.5-1.1,0.8-1.5,1.3c-0.5,0.5-0.4,1.2-0.7,1.8
		c-0.2,0.5-0.6,1.1-0.7,1.7c0.3-0.2,0.6-0.7,0.8-1c0.2-0.2,0.3-0.5,0.5-0.7c0.2-0.2,0.5-0.2,0.7-0.4c0.6-0.6,0.7-1.3,1.1-2
		C35.9,31.2,37,31.1,37.5,31.3">
  </path>
  <path class="st13" d="M48.9,37.2c0-0.4-0.2-0.7-0.1-1.1c0.1-0.5,0-0.8-0.3-1.3c-0.3-0.5-1.1-1.7-1.8-1.4c-0.2,0.1-0.5,0.4-0.8,0.2
		c-0.4-0.2-0.5-0.5-0.9-0.7c-0.4-0.1-0.8-0.2-1.2-0.3c-0.3-0.1-0.5-0.1-0.9-0.2c0.3,0.6,1.2,0.9,1.7,1.3c1,0.8,0.5,1.8,0.5,2.8
		c0,0.3-0.1,0.8,0.1,1.1c0.2,0.3,1.1,0.4,1.3,0.5c0.1,0.1,1.1,0.4,1.6,0.2C48.5,38.2,48.9,37.5,48.9,37.2">
  </path>
  <path class="st13" d="M37.7,47c0.3-0.1,0.7,0.3,1.4,0.5c0.7,0.3,1.2,0.4,1.7,0.4c0.5,0,1.5,0.6,1.7,1c0.2,0.4,0.3,1.3,0,1.9
		c-0.3,0.6-0.8,1.3-0.6,2.5c0.3,1.2,0.8,1.7-0.1,1.6c-0.9-0.1-1.6-0.4-2.1-0.5c-0.5-0.2-1.3-0.2-1.8-0.9c-0.6-0.7-0.9-0.6-1.8-1.1
		c-0.9-0.6-1.5-1.7-1-2.2c0.5-0.5,1.9-1.8,2-2C37.3,47.8,37.5,47,37.7,47">
  </path>
  <path class="st13" d="M55.8,39.8c0-0.3,0.7-0.7,0.7-0.9c0-0.2,0.1-1.3-0.1-1.7c-0.1-0.5-0.2-1,0.1-1.2c0.3-0.2,1.3-0.5,1.9-0.3
		c0.6,0.2,1,0.5,1.5,0.7c0.5,0.2,1.9,0.9,2.1,1.4c0.2,0.5,0.6,1,0.2,1.6c-0.4,0.5-0.4,0.9-0.6,1.2c-0.3,0.2-1,0.7-1.4,1.2
		c-0.4,0.5-0.7,1.5-1.1,1.7c-0.5,0.2-1.4,0.5-1.6,0.2c-0.3-0.3-0.4-1-0.3-1.3c0.1-0.3,0.7-0.8,0.5-1.3c-0.2-0.5-0.6-0.5-1.1-0.7
		C56.2,40.2,55.8,40,55.8,39.8">
  </path>
  <path class="st13" d="M13,43.9c-0.2-0.3-0.5-0.5-0.4-0.8c0.1-0.3,0.4-0.8,0.5-1.3c0.1-0.4,0-1.5,0-1.8c0-0.3,0.2-0.8,0.2-1.1
		c0.1-0.3,0-0.8,0.5-1c0.5-0.2,1.1-0.1,1.6,0c0.5,0.1,1.4,0.3,1.7,0.8c0.3,0.5,0.4,1.1,0.7,1.3c0.3,0.2,1.3,0.6,1.3,0.8
		c0,0.1-0.2,0.3-0.5,0.9c-0.3,0.6-0.3,2.1-0.3,2.3c0,0.3,0,1.4-0.4,1.6c-0.4,0.2-1,0-1.5-0.3c-0.5-0.3-1.3-0.6-1.6-0.8
		c-0.3-0.3-0.3-0.6-0.5-0.7C14.2,43.8,13.3,44.1,13,43.9">
  </path>
  <path class="st13" d="M33,38.5c0.2,0.2,0.3,0.9,0.3,1.1c0,0.4-0.1,1-0.3,1.3c-0.2,0.3-0.9,0.7-1.2,0.8c-0.2,0.1-0.9,0.3-1.3,0
		c-0.2-0.1-0.7-0.5-0.9-0.9c-0.2-0.4-0.4-1.7,0.3-2.4c0.3-0.4,0.9-0.4,1.3-0.7c0.3-0.3,0.6-0.6,1-0.8c0,0.4-0.3,0.8,0,1.1
		C32.4,38.2,32.8,38.3,33,38.5">
  </path>
  <path class="st13" d="M41.4,30.2c-0.5-0.1-0.7-0.2-1.2-0.2c0.3,0.4,1,0.4,1.5,0.5c0.2,0.1,0.4,0.2,0.5,0.3c0.5,0.3,1.5,0.6,1.6,0.8
		c0.1,0.2,1.1,0.6,1.5,0.4c0.2-0.1,0.6-0.2,0.5-0.4c-0.4-0.8-1.5-0.5-2.1-0.9c-0.2-0.1-0.2-0.3-0.5-0.3c-0.3-0.1-0.6,0-0.8-0.1
		C42.1,30.1,41.7,30.2,41.4,30.2">
  </path>
  <path class="st13" d="M35.9,22.9c0,0,0,0.1-0.1,0.5c-0.1,0.3-0.2,1.1,0.1,1.7c0,0,0.2-0.2,0.1-0.7c0-0.5,0.1-0.6,0.1-0.8
		C36.1,23.4,35.9,22.9,35.9,22.9">
  </path>
  <path class="st13" d="M33.8,29.3c0.2,0.3-0.1,0.7-0.2,0.9c-0.2,0.2-0.5,0.4-1.1,1c-0.6,0.6-1.2,1.4-1.4,1.6
		c-0.2,0.2-0.6,0.8-0.7,0.7c-0.1-0.1,0.3-1,0.4-1.1c0.1-0.2,0.8-1.1,1-1.2C32,31,33.1,30,33,29.9c0-0.1-0.4-0.1-0.6-0.1
		c-0.2,0-1,0.3-1.3,0.4c-0.2,0.1-0.5-0.1-0.2-0.4c0.3-0.3,0.4-0.3,0.6-0.4c0.2,0,0.7-0.1,0.8-0.2c0.1-0.1,0.1-0.5,0-0.5
		c-0.1-0.1-0.3,0-0.4,0c-0.1,0-1.9-0.3-2.2-0.4c-0.3-0.1-2-0.5-2.2-0.5c-0.3-0.1-0.3-0.3,0.1-0.3c0.5,0,1.3,0.2,1.6,0.2
		c0.3,0,0.7-0.1,1,0c0.3,0,1.3,0.2,1.5,0.1c0.3-0.1,0.7-0.3,0.7-0.4c0.1-0.2,0.1-0.4-0.1-0.6c-0.2-0.2-0.9-0.7-1.1-1
		c-0.2-0.4-0.4-0.8-0.6-0.9c-0.2-0.1-0.5-0.2-0.7-0.4c-0.1-0.2-0.2-0.7,0-0.6c0.3,0.1,1,0.5,1.1,0.6c0.1,0.1,0.3,0.5,0.5,0.8
		c0.2,0.3,0.7,0.7,0.9,0.8c0.2,0.1,0.7,0.5,0.8,0.7c0.7,0,0.8,0,1.3,0c0.5,0,1.2,0.1,1.3,0.2c0.1,0.1,0.6,0.3,0.8,0.1
		c0.2-0.2,0.6-1.1,0.8-1.4c0.2-0.2,1-1.3,1.2-1.5c0.2-0.3,1.1-1.1,1.2-1c0.1,0.1,0.3,0.2-0.1,0.5c-0.4,0.3-1.4,1.3-1.5,1.6
		c-0.1,0.3-0.7,1.2-0.8,1.4c-0.1,0.2-0.4,0.4-0.3,0.5c0.1,0.1,0.7,0.3,0.8,0.4c0.1,0.1,0.5,0.8,0.2,1c-0.3,0.2-0.6,0-0.8-0.2
		c-0.2-0.3-0.4-0.5-0.6-0.7c-0.3-0.2-0.6-0.3-1-0.4c-0.5-0.2-1.5-0.2-1.8-0.1c-0.3,0.1-0.9,0.3-0.9,0.6
		C33.1,28.2,33.2,28.6,33.8,29.3">
  </path>
  <path class="st13" d="M34.6,26.3c-0.2,0-0.7-0.5-0.9-0.9c-0.2-0.4-0.6-1.1-0.7-1.2c-0.1-0.2-0.2-0.5-0.3-0.6
		c-0.1-0.1-0.7-0.8-0.5-0.9c0.2-0.1,0.8,0.5,0.8,0.7c0.1,0.2,0.7,1,0.8,1.2c0.1,0.2,0.6,0.9,0.7,1.1C34.6,25.8,34.8,26.3,34.6,26.3">
  </path>
 </g>
</svg>