<?xml version="1.0" encoding="utf-8"?>
<!-- Generator: Adobe Illustrator 25.0.1, SVG Export Plug-In . SVG Version: 6.00 Build 0)  -->
<svg version="1.0" id="katman_1" xmlns="http://www.w3.org/2000/svg" xmlns:xlink="http://www.w3.org/1999/xlink" x="0px" y="0px"
	 viewBox="0 0 600 400" style="enable-background:new 0 0 600 400;" xml:space="preserve">
<style type="text/css">
	.st0{fill:#DE0038;}
	.st1{fill:#FFFFFF;}
	.st2{clip-path:url(#SVGID_2_);fill:#DE0038;}
</style>
<g>
	<path class="st0" d="M416.8,249.6c0,0,15.4-1.9,36.5-22.4l69.1-76.2h38.4l-32,97.9L416.8,249.6z M416.8,249.6"/>
	<path class="st1" d="M465.1,223.8c0,0,0.5-0.6,1-0.6c0.5,0,0.9,0.6,0.9,0.6H465.1z M536,185.4c0.5,0-14.2-0.7-18.9,0.2
		c-4.7,0.9-9.2,1.5-13.5,7.8c-4.3,6.2-8.3,12.5-10.9,16.1c-8.2,11.3-8.2,13.1-17.2,13.9c-4.9,0.4-6.1,0.2-7.4-0.4
		c-1.5-0.7-2.2-1.5-4.3,0.1c-2.4,1.9-5.7,1.4-5.6,1.7h69.1c0,0,3.4,0.1,4.5-2l-1.7-0.6c0,0-0.4,2.2-7.2,1.5
		c-6.9-0.6-15.8-2.3-15.8-2.3l21.3-30c1.3-1.6,3.1-3.4,4.9-4.9c0,0-8.6,0.9-12.2,6.1c-3.7,5.3-20,27.7-20,27.7l-1.1-0.2l20.8-28.9
		C520.9,191.2,523.9,186.3,536,185.4"/>
	<path class="st1" d="M466,220.3c-1.2,0-2.2,1.6-2.2,1.6h4.5C468.3,221.9,467.2,220.3,466,220.3"/>
	<path class="st0" d="M402.4,223.9l-0.6,5.6l-13.6,0c0,0-2.3-0.3-2.8,1.4c-0.7,2.2,1.3,1.9,1.3,1.9l10.7,0.1c0,0,4.9,1.6,4.9,6.5
		c-0.1,4.6-2.4,8.1-6.3,8.1h-17.6l0.4-5.4h17.1c0,0,3.1-2.3,0-3.8h-12.2c0,0-3.8-0.3-3.9-5.5c-0.1-4.3,0.8-5.4,2.7-7
		c2.2-1.9,5.4-1.9,5.4-1.9L402.4,223.9z M66.6,223.9l-0.6,5.6l-13.5,0c0,0-2.3-0.3-2.8,1.4c-0.7,2.2,1.3,1.9,1.3,1.9l10.7,0.1
		c0,0,4.9,1.6,4.8,6.5c-0.1,4.6-2.4,8.1-6.3,8.1H42.7l0.3-5.4h17.1c0,0,3-2.3,0-3.8H47.9c0,0-3.8-0.3-3.9-5.5
		c-0.1-4.3,0.8-5.4,2.7-7C48.9,224,52,224,52,224L66.6,223.9z M66.6,223.9"/>
	<path class="st0" d="M357.4,247.6H377l0.4-5.4h-13.7l0.2-3.5h13.2l0.3-5.4h-13.1l0.3-3.8h13.3l0.3-5.6h-18.9L357.4,247.6z
		 M348.9,247.6l-9.5-14.1l-1,14.1h-5.8l1.9-23.7h5.7l9.4,15l1.2-15h5.6l-1.7,23.7H348.9z M323.1,247.6l2-23.7h5.6l-1.8,23.7H323.1z
		 M321.5,242l-0.7,5.4h-16.8l1.8-23.5h5.7l-1.3,18.1H321.5z M321.5,242"/>
	<path class="st0" d="M280.7,223.9l-1.8,23.6h5.6l1.5-17.7h9.2c0,0,1.4-0.2,1.1,2c-0.3,1.8-1.5,1.4-1.5,1.4h-7.2l7.9,14.4h6.6
		l-5.6-10.2c0,0,5.6-0.3,5.6-6.5c0-6.2-4.6-7-6-7H280.7z M280.7,223.9"/>
	<path class="st0" d="M252.3,238.7l3.8-6.8l2.3,6.8H252.3z M259.4,223.9h-5.8l-13.8,23.6h7l3.1-5.2h9.7l1.7,5.2h6.5L259.4,223.9z
		 M201.8,238.7l3.8-6.8l2.3,6.8H201.8z M208.9,223.9h-5.8l-13.8,23.6h7l3.2-5.2h9.7l1.7,5.2h6.5L208.9,223.9z M208.9,223.9"/>
	<path class="st0" d="M269.2,247.6l2-23.7h5.6l-1.8,23.7H269.2z M218.4,247.6l2-23.7h5.6l-1.8,23.7H218.4z M218.4,247.6"/>
	<path class="st0" d="M102,238.7l3.8-6.8l2.3,6.8H102z M109.1,223.9h-5.8l-13.8,23.6h7l3.2-5.2h9.7l1.7,5.2h6.5L109.1,223.9z
		 M109.1,223.9"/>
	<path class="st0" d="M184.2,247.5l0.6-8.7h-10.2l-0.9,8.7h-5.7l1.9-23.6h5.9l-0.7,9.5h10.1l0.9-9.5h5.6l-1.9,23.6H184.2z
		 M84.5,247.5l0.6-8.7H74.9l-0.9,8.7h-5.7l1.8-23.6h5.9l-0.7,9.5h10.1l0.9-9.5H92l-1.9,23.6H84.5z M84.5,247.5"/>
	<path class="st0" d="M167,223.9h-15c0,0-8.4,0.3-8.8,7.3c-0.4,7-0.3,9.1-0.3,9.1s-0.2,7.2,6.5,7.2h16.2l0.6-14.6h-11.2l-0.2,5.3
		h5.6L160,242h-9.9c0,0-1.7,0.2-1.7-1.7c0-1.9,0.4-8.4,0.4-8.4s0-2.6,3.7-2.6h13.9L167,223.9z M167,223.9"/>
	<g>
		<defs>
			<rect id="SVGID_1_" x="37.6" y="151" width="523.7" height="99"/>
		</defs>
		<clipPath id="SVGID_2_">
			<use xlink:href="#SVGID_1_"  style="overflow:visible;"/>
		</clipPath>
		<path class="st2" d="M133.6,247.5l-9.4-13.7l-1,13.8h-5.9l1.9-23.7h5.6l9.5,15l1.4-15l5.5,0l-1.6,23.6H133.6z M133.6,247.5"/>
		<path class="st2" d="M103.5,209.1c-1.1,3.4,3.2,6.7,5.1,3.9c7-10.4,6-18.1,6-18.1S104.4,206.4,103.5,209.1 M272.7,196.6
			c-0.8,1.5-5.1,2.3-5.1,2.3v-5.5c0,0,9.2-3.2,3.8-4.9c-5.5-1.7-14.3,4.2-14.3,4.2c1.1,2.6,6.2,1.9,6.2,1.9l-0.2,4.9
			c0,0-6.8,1-8.7,1c-2.8,0-4.5,1.5-4.5,2.8c0,1.3,4,2.1,4,2.1c0.9-1.5,8.8-2.1,8.8-2.1s12.1-1.7,13.4-3.2
			C278,197.7,273.5,195.1,272.7,196.6 M73.3,192.7c-4,1.9-7.6,1.7-7.6,1.7l1.1-13.3h6.3c6.3-2.5,0.4-6.5,0.4-6.5H61.7
			c-2.3-4.4-4.9-2.3-6.1,0.4c-1.7,3.6,3.2,21,3.2,21s-3,1-5.5,1.1c-2.5,0.2-14.7,2.7-15.4,5c-1.5,4.6,3.6,4.8,6.5,5.3
			c2.9,0.6,32.7-6.1,34.5-6.7c1.7-0.6,3.6-2.1,3.4-5.3C82.1,192.1,75.2,191.8,73.3,192.7 M115.6,179.2c-1.3-10.3-7.4-7.4-7.4-7.4
			s-3.6,1.3-0.9,5.3C112.9,183.1,115.6,179.2,115.6,179.2 M110.6,192.2c-1.3-10.3-7.4-7.5-7.4-7.5s-3.6,1.3-1,5.3
			C107.9,196,110.6,192.2,110.6,192.2 M137.9,194.9c-0.7,1.2-3.8-4.4,0-5C137.9,189.9,140.5,189.9,137.9,194.9 M136.4,201.5
			c-1.3,1.1-4-4,0-4.4C136.4,197.2,139.6,198.9,136.4,201.5 M134.2,190.9c-0.6,1.4-1.1,0.1-1.7-0.1c-1.9-0.4,0.8-2.7,0.8-2.7
			S135.3,188.3,134.2,190.9 M122.4,206.7c-1.6-0.5,5.1-7.6,5.1-7.6s5.6,3.7,5.3,5C132.5,206.1,125.7,207.6,122.4,206.7 M130,193.7
			c0,0,1.5,0.5,1.4,1.7h-2.1L130,193.7z M150.6,192.4c-2.1-1.1-5.9,1.1-5.9,1.1s1.7-9.2-0.2-9.5c-1.9-0.4-9.3,4-9.5,1.9
			c-0.2-2.1,10.5-9.5,10.5-9.5s1.3-1.2-0.4-1.9c-3.8-1.7-17.3,7.2-18.1,7.6c-0.8,0.4-0.9-0.6-0.9-0.6s10.3-16,11-18.1
			c0.8-2.1-1.5-4.2-5-2.9c-3.4,1.3-1.3,6.6-1.3,6.6c0.9,1.2-4.4,7.2-4.4,7.2s-5.9,9-6.1,10.5c-0.2,1.5,1.5,4,2.7,2.5
			c1.1-1.5,10.7-3.6,10.7-3.6l-8.2,13.3c0,0-6.1,0.2-8.4,1.3c-2.3,1.1-1.1,3.6-1.1,3.6s6.8-0.8,5.5,0.6c-5,5.5-4,9.9-4,9.9l16-2.3
			c0,0-1.9,8.8-0.2,8.6c6.7-0.8,7-8.8,7-8.8l1.7-1.9c0,0,1.2-8.6,1.2-10.3c0-1.7,6.7-0.7,8.2-1.1
			C152.9,196.4,152.7,193.5,150.6,192.4 M285.6,164.5c-4,2.9-11,4.2-12,4c-1-0.2-8.2-7.1-8.2-7.1c-6.5-1.2-5.7,2.5-5.7,3.8
			c0,1.3,4.9,5.9,4.9,5.9c-1.5,1.3-13.3,2.7-13.3,2.7s-6.1-1.5-7.6,0c-4.6,4.4-1.3,12-0.2,13.4c1.1,1.3,2.8-1.3,3.4-2.1
			c0.6-0.7-0.6-5.7-0.2-6.7c0.4-0.9,10.1-3,10.1-3c1.2,9.2-3.6,10.3-3.6,10.3L253,187c0,0,1.3,1.3,2.5,0.2
			c9.1-9.1,5.1-13.5,6.1-13.4c1,0.2,9.5-1.9,9.5-1.9s11.6-4.4,12.2-2.9c1.1,3-4.8,5.7-4.8,5.7c0.9,1,4.6-0.8,4.6-0.8
			s6.3,1.1,7.8-3.4C291.9,167.7,287.2,163.4,285.6,164.5"/>
	</g>
	<path class="st0" d="M278.7,179.8c-0.6,0.8-1.9,0.4-1.9,0.4c1.7-2.7-0.4-7.6-2.3-7.6c-1.9,0-3.8,7.4-2.5,10.7c1.3,3.2,9,1.9,9,1.9
		s0.7-0.7,1.7-2.7C284.2,179.6,279.3,179,278.7,179.8 M336.3,194.9l-1.1,5c-1.4-1.1-7.9,2.5-7.9,2.5s-1.5,0.6-1.7-0.6
		c-0.2-1.2,7.1-7.8,7.1-10c0-2.1-4.4-1-4.4-1L318.1,203c0,0-1.1,2.9,2.5,3.8c6,1.5,15.6-4.2,15.6-4.2s1.5,4,3.3,3.3
		c1.7-0.8,4.9-3.5,3.3-7.3C339.6,191.3,336.3,194.9,336.3,194.9 M319.2,182.6c1.4-1.6-1-6-4.9-5.4c-3.9,0.6-8.6,10.2-7.2,12
		C308.9,191.6,317.9,184.2,319.2,182.6 M343.6,172.4c-6.6,2.7-1.4,13.1-0.4,14.4c1,1.4,5.2,0.9,5.6-0.8
		C350,182,348.1,170.6,343.6,172.4 M403.8,162.5c-0.6,0.6-14.9,5.5-14.9,5.5s-6.7-1.9-7.1,3c1.9,6.1,7.2,2.1,7.2,2.1
		c8.4-6.1,12.2-5.5,12.2-5.5l0.4,33.5c0,0-5.9,5.5-2.9,9.5c2.7,3.6,5.6,0,6.7-1.3c1.1-1.3,1.9-41.9,1.9-43.6
		C407.4,164.1,404.3,161.9,403.8,162.5"/>
	<path class="st0" d="M377.1,183.7l-4.6,0.2c-0.6,3,3.8,4.2,6.5,3c11.8-5,13.5-8.8,13.5-8.8C390.8,174.9,377.1,183.7,377.1,183.7
		 M383.4,197.4c-2.8,1.7-5.5,2.1-5.9-0.7c0,0,7.2-6.5,7.6-5.5C385.5,192.1,386.2,195.7,383.4,197.4 M387,186.9
		c-2.5,0.2-13.5,9.2-13.5,9.2c0.7,7.6,9.3,5.9,11.2,5.1c1.9-0.8,6.3-9.7,7.1-10.9C392.5,189.2,389.5,186.7,387,186.9 M221.9,193.2
		c0,0-0.1-0.7-0.8-0.3c-3,1.7-1.5,10-6.9,11.1c-6.6,1.3-9-2.7-9.6-5.3c-0.7-3.3,3.8-11.4,4.5-13.9c0.8-2.5-5-2.6-5-2.6
		c2.5-4,4.6-6.5,7.1-6l0.2-2.1l-1.7,0.1c0,0,0.3-4.9-5.1-7.9c-3-1.7-6.1,0.7-6.3,1.3c-1.8,6.4,6.5,5.7,6.5,7.9
		c-0.1,1.5-8.5,2.5-10.1,3.2c-1.1,0.6-1.3,2.3-0.2,2.9c2.1,1.2,7-2.7,7.9-3.6c0.9-0.2,0.4,1.1,0.2,1.8c-0.9,2.9-7.6,10.6-13.5,21.2
		c-0.3,0.5,0.1,2.5,1.2,1.6c1-0.9,7.7-12.8,10.1-15c3.3-3,4.6-1.6,4.6-0.7c-0.1,2.6-5.7,14.8-1.4,19.2c3.1,3.3,15.2,1.7,18.1,0.2
		c0.7-0.4,1.8-1.8-0.2-3.6C220.1,201.7,221.9,193.2,221.9,193.2 M183.4,194.9c-0.4,0-0.7-0.2-0.7-0.2s-0.3-1.8,0.2-2.1
		c0.5-0.3,0.7-0.1,0.7-0.1S183.8,194.8,183.4,194.9 M187.6,187.2c-0.4-1.3,3.2-4.5,1.6-6.8c-0.5-1.5-3.8-1.3-3.8-1.3s3-4.9,3.6-7.4
		c0.6-2.5-3.9-3.7-3.9-3.7c-7,5.2-15,19.7-15,19.7s0.8,2,1.4,0.5c0.6-1.5,7.9-5.8,7.9-5.8c2.4,4.1,5.3,0.7,5.3,0.7s-0.1,2.8,0,3.5
		c0.1,0.5-3.6-1.4-5-1.2c-3.4,0.4-0.1,3.7-0.1,3.7c0,1.1-0.1,1.7-0.1,2.1c-0.7,0.5-2.2,0.2-2.2,0.2s0.6-5.7-0.4-5.8
		c-0.8-0.1-1.9,1.9-1.9,1.9s-0.7,3.6-0.9,6c-12.2,2.5-13,4.3-13,4.3s0.1,2,1.6,2.7c1.4,0.7,2.8,1.1,4.1-0.9c1-1.5,7.1-4.1,7.1-4.1
		l-0.4,10.7c0,0,0.1,3.6,2.1,2.8c2.7-1.1,2-13.5,2-13.5l0.8,0.1c0.9,5.8,5,5.4,5,5.4s1,1.5,0.6,2.5c-0.4,1-2.8,0.6-2.8,0.6
		c1.2,1.7,2.1,0.8,2.9,5.5c0.3,1.5,3.4-0.2,3.9-1.5c0.5-1.3-0.4-15.8-0.4-15.8C192.9,186.7,187.8,187.3,187.6,187.2"/>
</g>
</svg>
