<svg xmlns="http://www.w3.org/2000/svg" height="800" width="1200" viewBox="-44.968065 -18.495 389.72323 110.97"><g fill="#d7000f"><path d="M278.7695 4.7448c-.8353.3132-1.3423.88-2.1179 2.3565-.7607 1.4765-.8353 1.5362-2.3863 1.6853-1.3722.1343-2.5355-.1044-3.9972-.8054-1.1783-.5667-1.208-.5816-1.8793-.3728-.8202.2386-1.2677.6711-1.1484 1.1037.0447.164-.0596.9247-.2087 1.6853-.1641.7457-.358 1.8793-.4475 2.4908-.0895.6114-.3132 1.5063-.4922 1.9687l-.343.8501.7308.6264.7457.6264 1.9688-.7904c1.0738-.4326 1.9687-.8203 1.9985-.8352.0298-.015.1491-.4922.2834-1.059.2834-1.2379 1.059-2.953 1.6108-3.5348.8353-.85 2.3863-1.223 3.4602-.8203.2237.0746.865.6563 1.4318 1.2678 1.1633 1.2528 1.3423 1.2975 3.0127.88.9695-.2536 1.4468-.552 3.0576-1.9837l1.0589-.9247h1.6704c2.9979 0 4.564.522 5.6825 1.8941.6115.7309.6861.9098.6861 1.5512 0 .701-.0299.7606-.6712 1.208-.3728.2685-.6712.522-.6712.5966 0 .2088.701.5817 1.8196.9695 2.2074.7606 4.4446.4027 5.5632-.8949.6711-.7755.7457-1.1932.3878-2.2372-.9098-2.625-2.7593-4.355-5.4886-5.1157-.6562-.1939-1.939-.2685-5.3395-.358-2.4609-.0596-4.7726-.164-5.1455-.2237-.4623-.0895-.88-.2983-1.3423-.7159-1.2678-1.1037-2.431-1.4765-3.49-1.0887zm-95.8265.164c-.2835.1343-.8204.4773-1.1783.7756l-.6563.5369.1044 6.0554c.1044 6.7861.179 5.921-1.2827 17.3904-.5965 4.6832-.6114 4.8324-.522 8.054.1044 3.669.2834 5.5332.6115 6.4878.3281.9396 1.417 2.804 1.9538 3.3856.7905.8203.9695.7159 2.297-1.3274 1.8792-2.8487 2.1477-3.848 2.1625-7.8003 0-2.0135-.0596-2.983-.2535-3.8779-.2983-1.3572-1.0142-7.845-1.1186-10.2314-.0895-1.8196.2387-4.3998.7159-5.757.3132-.88.358-1.7898.4474-10.5447 0-.8501-.0597-1.1783-.4176-1.8494-.2237-.4474-.5966-.9545-.8054-1.1037-.522-.3878-1.4318-.4773-2.0582-.1939zm49.7552.1342c-1.3275.4773-2.0434 1.4319-2.0434 2.7294 0 .9247.4773 1.9538 1.4617 3.132.4325.5072.7755.9845.7755 1.059 0 .1343-2.7592.3282-4.6832.3282-1.1782 0-1.581.179-1.9538.8948-.4921.9397-.2387 2.1627.5966 2.8636.5966.522 3.49 1.1932 3.848.895.2088-.179 3.6839-.9844 5.1753-1.2082 1.596-.2535 4.5192.015 7.1292.6563l2.2522.5518.4474-.343c.5966-.4325 1.1186-1.5064.9993-2.0135-.164-.6115-1.0739-1.4914-2.0135-1.909l-.88-.3878-3.2514.1491c-1.7748.0746-3.2961.1044-3.3557.0597-.3282-.194-.1193-1.4617.4176-2.6548.4026-.895.5518-1.417.5518-2.0135.0149-.7607-.0149-.8203-.6562-1.387-.8352-.7458-1.7749-1.223-2.804-1.4468-.9993-.2088-1.3125-.1939-2.0134.0448z"/><path d="M217.1422 5.7291c-.5518.2237-1.059.9993-1.3274 2.0433-.6115 2.3118-2.2969 4.534-4.37 5.7123-.7905.4475-.9397.6115-1.1485 1.1932-.2088.6264-.1938.8352.1492 3.0128.1939 1.2975.4773 2.8188.6114 3.4005.2387.9396.2387 1.208.0746 2.1925-.2535 1.5063-.2535 1.5063-.9694 1.6853-1.1782.2983-2.7443.9247-2.983 1.1783-.6412.7159-.0894 1.4616 1.8794 2.5653 2.2819 1.2826 2.267 1.2528 2.1625 3.7137-.164 3.9822-1.7897 8.4715-4.6682 12.8714l-.9546 1.4616.3282.2834c.1939.164.3877.2833.4623.2983.3878.0149 2.3416-1.1783 2.968-1.8196 1.3722-1.417 3.3707-4.6832 4.2954-7.0547.7756-1.9836 1.5213-3.5049 1.7301-3.5049.1194 0 .7756.2685 1.4766.5966 1.059.4773 1.3423.5518 1.566.4176.6414-.4027.7756-1.566.358-3.162-.3878-1.5361-1.1037-2.1774-2.625-2.4012-.9247-.1342-1.3572-.5965-1.3721-1.4765-.015-.358.0298-.701.0746-.7457.0746-.0895 1.909.0447 4.5787.2982.7309.0746.7905.1194 1.0142.6265.6712 1.6107.8204 2.5653.8204 5.25 0 2.8635-.2685 4.877-.7309 5.5034-.4325.6115-1.5361 1.2827-2.8636 1.745l-1.208.4326.0894 1.7897c.164 2.7443.686 3.4751 2.5802 3.6243 1.0292.0596 1.0739.0596 1.8047-.4773.9546-.701 2.0731-2.3565 2.6995-3.9971.2685-.6861.5071-1.2678.537-1.2976.0298-.0298.3132.179.6413.4773.3281.2833.7606.6413.9694.7755.373.2387.4027.2387 1.059-.1491 1.4169-.8203 3.311-3.0724 4.012-4.7727.6115-1.4616 1.4915-6.9651 1.76-11.1114.179-2.61.2088-2.7741.5667-3.1768.2983-.3281.5817-.4475 1.3423-.5817 1.1634-.179 1.7152-.015 1.9538.5817.2237.537-.1044 7.2634-.3877 8.3224-.5966 2.1477-.7607 6.7563-.3132 8.6355.7457 3.1321 4.37 5.9062 7.681 5.9062.9695 0 2.6697-.4922 4.012-1.1484 1.5213-.7457 1.6258-3.3558.194-4.5639-.88-.7457-2.5654-.7457-3.5199-.0149-.4773.358-.716.4325-1.4318.4325-.6414 0-.9695-.0745-1.2827-.3132-.9843-.7159-1.581-2.5802-2.0731-6.294-.2387-1.8494-.2387-2.0731 0-3.7286.1342-.9546.4772-2.6846.7606-3.833.2685-1.1485.6414-3.0576.8352-4.2358.4027-2.5206.4624-2.3864-1.3423-2.789-1.029-.2238-1.402-.2387-4.191-.0448-1.6853.1044-3.7585.179-4.6235.1491-1.5213-.0298-1.581-.0298-1.939.358l-.3579.3878.4176 1.1931c.4027 1.1336.4326 1.3125.343 2.789-.0894 1.6705-.3728 3.2664-1.2378 6.9652-.9695 4.1612-1.8793 6.3536-3.1918 7.7109-.4027.4176-.7756.7308-.8054.701-.0448-.0448 0-2.4908.0895-5.4439l.179-5.3842 1.7598-1.1484c1.581-1.0291 1.76-1.1932 1.76-1.581 0-.4026-.1342-.507-1.5064-1.223l-1.4915-.7904.0895-.522c.4326-2.7294.8352-6.6818.7905-7.8451-.0447-1.238-.1044-1.4467-.5668-2.2223-.507-.8352-.5816-.8949-2.1924-1.6555l-1.6704-.7905-.2387-.7905c-.1342-.4325-.3281-1.402-.4474-2.1626-.2386-1.581-.4773-2.1179-1.1484-2.625-.537-.4027-1.7749-.6115-2.2969-.4027zm2.3266 9.0681c.6265.3132 1.3125 1.4766 1.8644 3.2216.358 1.1037.6562 3.5348.6711 5.3245v.701l-.9992.2535c-1.0292.2536-1.6108.5072-2.3565 1.044-.343.2387-.6563.2835-1.7003.2835-.701 0-1.4318-.0896-1.6108-.194-.537-.2833-.7756-.9246-1.0738-2.8785-.3729-2.5504-.2536-6.5922.2236-7.2336.5072-.6711.88-.7904 2.7444-.7904 1.3423 0 1.8345.0596 2.2371.2684z"/><path d="M216.4561 19.1075c-.2386.5966-.343 3.6541-.1193 4.0568.2983.5817 1.029.9098 2.0284.9098.4921 0 1.0142-.0895 1.1484-.1939.3132-.2386.6712-1.2677.7904-2.2819l.1045-.8054-.5817-.2237c-1.402-.5519-2.0134-.8949-2.461-1.3572-.5965-.6116-.686-.6265-.9097-.1045zM116.7816 7.6531c-.164.0746-.9098.1492-1.6704.1492-1.1634.0149-1.5363.0895-2.5355.4772-.6413.2536-1.7003.5817-2.3565.701-.6563.1342-1.4915.4176-1.8644.6264-.7755.4624-3.4453 1.2529-5.041 1.4766-.5967.0895-1.611.164-2.2522.164-.6562 0-2.103.1044-3.2365.2238-2.8636.328-3.0724.4474-3.7436 2.3117-.7606 2.088-1.0888 3.2663-1.0888 3.9971 0 .358-.1043 1.1186-.2386 1.6854-.179.8203-.2237 1.6108-.179 3.5348.0597 2.1924.1194 2.61.4475 3.5347.2088.5668.4922 1.8793.6264 2.8786.194 1.4168.343 2.0433.686 2.7293.2835.5519.4475 1.1037.4475 1.4915 0 .9396.7756 2.4162 1.9389 3.6392.9695 1.029 1.0888 1.2528 1.402 2.7592.0447.2088.358.686.686 1.0738.7309.8502 1.4915 1.1335 2.2074.8203.8502-.358 2.103-2.4907 2.1478-3.669.0447-1.0142-.2387-3.1917-.5519-4.191-.1939-.6115-.6264-1.76-.9546-2.5355-.328-.7755-.6114-1.6108-.6114-1.8345s-.164-.7308-.358-1.1186c-.537-1.0738-.8203-2.0731-.9545-3.3856-.0746-.6711-.2536-1.4169-.3878-1.6704-.179-.358-.2386-.88-.2386-1.9837 0-1.8046.1938-2.1775 1.5063-2.8337.4475-.2387 1.1634-.6861 1.566-.9993.4028-.3132 1.417-.9098 2.2671-1.3274l1.5362-.7607.1044.4624c.0447.2535.0895.4922.0746.537-.0149.0596-.1342.85-.2685 1.7897-.2088 1.566-.2684 1.7599-.8053 2.446-.8054 1.0738-.9099 1.3274-.9099 2.103 0 2.8784 1.0292 4.9516 2.8935 5.8315.507.2536.537.2536.8501-.0298.4475-.4027 1.581-2.0134 1.7749-2.5355.0895-.2386.2386-.7904.328-1.2379.0747-.4474.3133-1.0738.5221-1.4169.2238-.343.6115-1.0888.865-1.6555.537-1.1633 1.1783-1.7748 2.0434-1.9389.4773-.0895.5667-.0597.8203.3281.1491.2237.5667.701.9396 1.0291l.6712.6264.0448 1.7301c.0597 1.745-.179 3.2067-.6563 4.1314-.2536.4922-3.6839 3.8032-4.549 4.3849-.8203.5518-2.9829 2.7145-3.833 3.8181-.6265.8203-1.3722 2.6698-1.3722 3.3707 0 .4624.537 1.5214.9546 1.8495.164.1491.5369.3132.7904.3728.2685.0448.9397.3878 1.4915.7309.5668.358 1.581.8352 2.267 1.0589 1.2081.4027 1.2976.4027 2.5057.2237 1.4318-.2088 2.1925-.4623 3.2514-1.1335.9843-.6264 3.4452-2.0135 3.5646-2.0135.0597 0 .358.179.686.3878.522.343.7309.3878 1.9091.3878.895 0 1.4617-.0746 1.76-.2237.507-.2685 3.1917-2.2074 4.191-3.0575.4026-.3132 1.0141-.7309 1.387-.9247.3729-.179.8203-.4773 1.0142-.6563.1939-.164.7905-.6115 1.3423-.9844.8054-.5518 1.044-.7904 1.2528-1.3423.1492-.3728.4326-1.1037.6563-1.6406.7308-1.8046.8054-2.2968.8054-5.071 0-1.8345-.0895-3.1768-.2983-4.549-.4326-2.8337-.537-3.2215-1.5362-5.563-.88-2.0583-.9546-2.1776-2.2521-3.5796-.7458-.7905-1.4915-1.6108-1.6555-1.8196-1.1187-1.4169-4.9368-3.326-7.8302-3.9225-1.3722-.2834-4.5937-.4475-4.9964-.2685zm4.191 3.311c2.625 1.1634 4.3402 2.2373 7.4126 4.6683 2.5056 1.9837 3.3409 3.8779 3.49 7.86.1044 2.8338-.1342 4.1165-1.1783 6.1747-1.6107 3.1917-2.5504 4.1314-4.7428 4.7876-.686.2088-2.4013 1.223-2.5951 1.5362-.0597.0895-.3281.2685-.6116.3729-.492.2088-.492.2088-1.2528-.522-.4772-.4624-.8949-.7308-1.1186-.7308-.1938 0-.6115-.1045-.9247-.2387-.7159-.2983-1.7748-.179-3.2514.343-1.029.373-1.7898.4773-1.9836.2834-.3729-.3728 3.326-5.1306 6.1597-7.9196 1.8196-1.7898 1.924-2.0434 1.8196-4.3999l-.0746-1.566-.8203-1.4169c-.4474-.7756-1.0888-1.924-1.4318-2.5355-.4325-.8203-.8501-1.3274-1.4616-1.8196l-.8352-.6711-1.2976.4623c-.7607.2685-1.9687.895-2.9084 1.4915-1.387.88-2.625 1.4169-3.3856 1.4318-.179 0-.4325-1.73-.4325-3.0128v-1.3124l.6413-.4027c1.6705-1.059 5.5632-2.6697 7.4872-3.1023 1.4765-.3281 2.1626-.2684 3.296.2387zm38.3455-2.7591c-.686.4623-1.6704 1.924-1.9836 2.953-.3132 1.059-.4326 3.8928-.2237 5.7571.2685 2.3714-.1343 8.5163-.7458 11.544-.4623 2.2819-2.3415 7.7705-3.0127 8.7846-.895 1.3274-1.1484 2.0135-1.1484 3.0575 0 1.4915.6264 2.6101 1.9388 3.4602 1.3125.8353 1.5064.6414 2.8935-2.9083 2.7443-7.0695 3.311-8.7847 3.5199-10.8579.179-1.7748.5369-3.132 1.0142-3.8032.5667-.7905.7158-2.5504.6412-7.7407-.0447-2.4758-.0149-2.7741.2536-3.3558.6413-1.3274.9247-2.2372.9247-2.9382 0-.6264-.0895-.85-.6562-1.6257-.3729-.4921-.8352-1.1633-1.044-1.5063-.3281-.522-1.2976-1.2081-1.6854-1.2081-.0746 0-.3878.179-.686.3878zm12.7968 4.4893c-.9694 1.0142-1.1186 1.6406-1.2826 5.1157-.1641 3.7435-.4922 5.593-1.1187 6.294-.179.179-.2088.3877-.1491.7457.0597.2684.1491 1.9538.2088 3.7286.1044 3.147.1193 3.2365.4623 3.6094.2834.3132.5072.3878 1.044.3878h.6861l.7756-1.6108c.686-1.4318.7756-1.7301.8501-2.8636.1194-1.6406.373-3.0277 1.0291-5.5184.7458-2.7742.9993-4.385.9993-6.2493-.0149-3.1619-.6114-4.3401-2.2073-4.3401-.537 0-.701.0894-1.2976.701zM274.653 16.229c-.358.194-1.3423 2.2372-1.566 3.2216-.2536 1.1335-.4922 4.1015-.343 4.2805.2684.3281.7904.2088 1.2379-.2536.9843-1.029 3.7584-2.6846 4.5787-2.7443.5966-.0447.895-.4026 1.0292-1.2379.2684-1.6853.2834-1.6704-1.2081-2.5653-1.208-.7159-1.4467-.8054-2.3566-.865-.686-.0299-1.1185.0149-1.3721.164zm12.23 2.7742c-.4474 1.7897-.6114 2.6995-.5518 3.132.1044.7607.5966 1.8047 1.1634 2.4013.4324.4623.4324.4623 1.7598.4027 1.2678-.0448 1.3722-.0746 2.1925-.6414.4624-.328 1.059-.85 1.2976-1.1484.88-1.1037.6413-2.8934-.6116-4.4893-.507-.6711-.7009-.7755-2.416-1.4467-1.0292-.4027-1.939-.7308-2.0285-.7457-.0895 0-.4474 1.1335-.8054 2.5355zm-10.2016 9.6348c-1.3125.4773-2.3267 1.7898-2.3267 3.0277 0 .9843.3729 1.1186 3.162 1.1484 2.5503.0298 3.0425.1491 3.3706.8352.2685.5668.2536 2.8935-.0447 4.5788-.1342.7756-.2983 1.939-.343 2.61-.1343 1.4915-.2536 1.581-2.2074 1.581-1.0887 0-1.8047-.1193-3.7286-.5966-2.9233-.7457-3.2365-.7308-3.8928.1193-.701.9248-.865 1.76-.8053 4.2209l.0149.8352 1.0142.4475c1.76.7755 2.1775.8352 5.071.7457 1.4467-.0597 2.9381-.164 3.311-.2536 1.4467-.343 3.7884-.5965 6.7861-.7457 3.2962-.1491 3.6243-.2088 4.6981-.7457 1.581-.7905 2.2373-1.6854 2.2671-3.0575.0149-1.059-.7159-1.6705-2.5653-2.2074-.9396-.2684-1.8047-.1491-3.5944.537-1.044.4026-3.0426.7606-3.8032.671l-.4476-.0446 1.924-4.9965c1.059-2.7442 1.9688-5.235 1.9986-5.5184.0746-.6264-.3728-1.387-1.1484-1.909-.537-.373-.6115-.373-2.3266-.0895-.522.0745-.8204 0-2.2522-.6712-1.4467-.6711-1.745-.7606-2.5951-.7457-.522 0-1.223.1044-1.5362.2237zm-55.1692 25.8918c.0596.7607.1043 4.027.1193 7.2336v5.8615h4.2954l-.0895-.8651c-.0597-.4624-.1491-2.983-.1939-5.593l-.1044-4.728h1.1484c1.3424 0 2.3565.2238 2.6996.5967.4176.4623.4325 1.208.0447 1.7897-.4027.5966-1.059.88-2.103.88-.4773.015-.7308.0895-.7905.2237-.0447.1193.6264 1.8942 1.5064 3.9524l1.5959 3.7436h2.2968c1.2678 0 2.2969-.0299 2.2969-.0746 0-.0448-.701-1.3423-1.566-2.9084-.865-1.551-1.5661-2.8785-1.5661-2.953 0-.0896.4624-.522 1.0291-.9695 1.2976-1.059 1.6556-1.745 1.6556-3.1768 0-1.7003-.9248-3.2663-2.3565-3.9673-.6861-.3281-.8353-.343-5.3694-.3878l-4.6682-.0597.1193 1.402zm14.482 5.071c.015 3.5497.0746 6.6817.1194 6.9502.0447.2983.2237.5817.4773.7457.343.2238.88.2536 5.3245.2536h4.9218l.0448-1.6108.0447-1.5959h-3.1022c-1.7003 0-3.1917-.0596-3.296-.1342-.1642-.0895-.209-1.223-.209-5.593l-.0148-5.4587h-4.3551zm12.6328.7905v7.2336h4.3401l-.0149-7.2336v-7.2336h-4.3252zm6.7414-.0448l.0597 7.2038 1.939.0447 1.9388.0448-.0895-1.4616c-.179-2.7593-.164-6.8011.015-6.8608.0893-.0298.3877.2983.671.7308.2685.4325 1.223 1.924 2.103 3.2962.88 1.3721 1.8196 2.9083 2.0582 3.4005l.4624.88 2.4907-.0299 2.4908-.0447v-.6413c-.0149-.343-.0298-3.5796-.0448-7.1889l-.0299-6.5624h-3.8927l.0894 1.9687c.0448 1.0888.1044 3.0575.1194 4.37.0298 1.9687 0 2.3863-.179 2.3863-.1194 0-1.2827-1.8792-2.6847-4.355l-2.4758-4.37h-5.1008l.0597 7.1888zm16.6896-6.7861c.0596.2237.1192 3.475.1192 7.2335l.0149 6.831h10.9622v-3.0576l-3.3558.0597-3.3558.0447v-2.7144h5.6676v-2.9531c0-.0597-1.2528-.1044-2.804-.1044h-2.789l-.0448-1.3721-.0447-1.3573 1.0141-.1193c.552-.0597 2.0732-.0597 3.3708 0l2.3416.0895v-2.9829h-11.186l.0895.4027zm16.6595-.179c-1.0888.2983-1.924.8949-2.4013 1.7003-.328.5667-.4026.865-.4026 1.745 0 1.4914.4026 2.088 2.953 4.2805 2.476 2.1328 2.7295 2.6697 1.4916 3.1917-.7607.3132-2.2074.179-3.52-.3132l-.9992-.3729v1.7003c0 1.9687-.2535 1.745 2.3118 2.103 3.1171.4176 4.6832.149 6.0404-1.0739.8054-.7308 1.1782-1.5511 1.1931-2.5653 0-1.4766-.6562-2.461-2.6547-3.9971-2.3864-1.8495-2.7741-2.3267-2.3416-2.983.2833-.4325 1.2528-.701 2.0731-.5816.6562.1044 2.1626.4772 2.5504.6115.1939.0745.2237-.1492.2237-1.6108v-1.7152l-1.6853-.179c-2.1925-.2088-3.863-.1939-4.8324.0597zm-190.8178.0746c-2.8785.343-4.4595 2.6846-3.3558 4.9964.3729.7904.9396 1.3721 2.8785 2.968 2.0433 1.6704 2.3267 2.1775 1.5959 2.7592-.5817.4623-2.3118.4325-3.7138-.0597-.5667-.2088-1.0589-.3728-1.0738-.3728-.0298 0-.0448.7606-.0448 1.7002v1.6854l1.8345.179c.9993.1043 1.9688.2088 2.1328.2535.4475.0746 2.5654-.1939 3.1172-.4176 1.5362-.5966 2.461-1.8643 2.461-3.3558 0-1.3721-.6563-2.3416-2.5952-3.8182-2.2074-1.6704-2.7444-2.2968-2.5355-2.8636.2684-.701 1.924-.865 3.7883-.3728.6115.164 1.1335.2983 1.1633.2983.015 0 .0298-.7309.0298-1.6257V53.784l-.6264-.0895c-.358-.0448-1.1484-.1193-1.76-.164-.6114-.0448-1.387-.1045-1.715-.1343-.3282-.0298-1.0441 0-1.581.0596zm8.0688-.0746s0 3.1917-.0149 7.0844v7.0845h4.37l-.015-7.0845-.0149-7.0844h-4.3253zm12.1555.164c-1.6258.2834-2.9382.9546-4.027 2.0583-1.3722 1.387-1.8494 2.61-1.8643 4.7876 0 2.9232 1.2677 5.0411 3.7584 6.2492 1.402.6712 2.4013.8501 5.3842.9396l2.789.0895v-1.2528c0-2.0732.164-1.924-2.252-1.924-2.461 0-3.2515-.2237-4.2656-1.223-.8203-.8054-1.1485-1.76-1.059-3.0128.0895-1.044.3878-1.73 1.0739-2.446.8352-.9098 1.1186-.9843 3.848-1.044l2.5056-.0596-.0894-1.5213c-.0448-.8203-.1044-1.596-.1492-1.7003-.0746-.2536-4.0866-.2237-5.6526.0596zm8.6206 6.9503l-.0149 7.1292h4.2954v-5.8167h5.5632l-.1044 2.9083-.1044 2.9084h4.4147l.015-7.1292.0148-7.1143h-4.3252l.0298 2.6399.0298 2.6548h-5.5631l.1044-2.6548.1044-2.64h-4.4296zm16.4955-7.0845c0 .0746-.0149 2.4758-.0149 5.3693l-.0149 5.25.4027.8352c.701 1.4317 2.4759 2.3415 5.0859 2.61 3.6243.3729 6.786-.6413 7.696-2.4907.3578-.716.3578-.7756.4027-6.2045l.0447-5.4737h-4.3403v3.5348c0 4.176-.164 6.0553-.5668 6.5922-.522.716-1.029.9695-1.8643.9695-1.0738 0-1.8345-.4027-2.2372-1.1633-.3132-.5817-.3281-.8054-.3729-5.2798l-.0596-4.6534h-2.0731c-1.1336 0-2.0732.0448-2.0881.1044zm17.6143 6.9353c-1.745 3.8778-3.2067 7.0994-3.2365 7.174-.0448.0596.9992.0894 2.2968.0745l2.3566-.0447.7606-2.0135.7756-2.0135h5.1753l.686 2.0135.6862 2.0135 2.2819.0447c2.1179.0299 2.267.015 2.1925-.2237-.0895-.343-5.4588-13.453-5.6378-13.811-.1342-.2237-.4176-.2535-2.6399-.2535h-2.5056l-3.1917 7.0397zm6.5624-1.5064c.2535.7905.4474 1.5064.4474 1.6108 0 .1044-.4623.164-1.4169.164-.7755 0-1.4168-.0447-1.4168-.1192 0-.2088 1.223-3.2365 1.387-3.4304.2536-.3132.4922.1193.9993 1.7748zm8.6206 1.5809l.0447 7.1293 1.939.0447 1.924.0448-.1194-2.5803c-.164-3.848-.1342-5.6824.0746-5.742.0895-.03.343.1938.537.507.2088.3132 1.1334 1.7748 2.0731 3.2514.9545 1.4766 1.924 3.1023 2.1924 3.6093l.4623.9397h5.1158l-.0894-1.238c-.0597-.6711-.1044-3.8927-.1044-7.159v-5.921h-3.9077l.0894 1.2975c.2089 3.1022.2685 7.159.1194 7.2634-.2387.1342-.522-.2834-3.0575-4.6086l-2.267-3.8778-2.5504-.0448-2.5355-.0298.0597 7.1143zm23.3713-.164c-1.7152 3.8182-3.162 7.0099-3.1768 7.0845-.0448.0895.8501.1193 2.2968.1044l2.3416-.0448.7457-1.9836.7458-1.9688h5.25l.6413 2.0135.6413 2.0135h2.2969c1.2677 0 2.3117-.0149 2.3117-.0447 0-.015-1.2976-3.1918-2.8785-7.0397l-2.8636-7.01-2.6101-.0297-2.61-.0448-3.1321 6.9502zm6.0553-3.1171c.0895.2386.3282.9545.522 1.6107.194.6563.4027 1.3126.4474 1.4468.0746.2386-.0596.2684-1.4019.2684H203.54l.6413-1.6555c.5817-1.4765.895-2.0731 1.059-2.0731.0447 0 .1342.179.2237.4027zm9.1427 3.3259v7.159h4.3402v-14.318h-4.3253zM34.3198.088c-4.7363.3255-9.7771 1.7012-14.0304 3.8436-2.1738 1.0817-4.5893 2.657-6.7421 4.3792-1.3967 1.1132-4.3057 4.0327-5.4504 5.4714C4.3267 18.5185 1.7749 23.9584.6406 29.64.063 32.549 0 33.284 0 36.9911c0 2.762.042 3.7177.189 4.7258 1.0397 7.0677 3.4026 12.6547 7.6978 18.2206 1.1552 1.4913 4.3373 4.7048 5.818 5.881 3.7281 2.9405 7.2673 4.8518 11.657 6.301 9.2835 3.077 19.4598 2.3105 28.1867-2.1003 5.5765-2.8145 10.4808-7.1517 13.9884-12.3396 2.951-4.3687 4.7993-8.916 5.755-14.1248.441-2.4364.5356-3.5707.5356-6.5637 0-3.623-.2836-5.9334-1.1027-9.189-1.7643-6.9732-5.7865-13.5893-11.1634-18.3571C53.979 2.7134 44.349-.5947 34.3198.088zm6.5216 2.5624c4.5263.525 8.937 1.9638 12.9066 4.1902 8.853 4.9673 15.2171 13.7468 17.076 23.587.3675 1.9638.4095 1.7222-.3781 1.8693-2.1634.4095-5.608 2.4889-11.7305 7.1097a7064.9822 7064.9822 0 00-6.154 4.6312c-4.4528 3.3606-5.9336 4.2533-8.286 5.0514-.9136.315-1.3022.3885-2.1633.42-.9346.042-1.1027.021-1.5228-.1995-.6615-.3465-.8926-.7876-.8821-1.7118.0105-.9031.126-1.3022 1.0712-3.5706.8927-2.1423.9977-2.5624.9452-3.497-.042-.8822-.3466-1.3443-1.1027-1.7119-.4306-.2205-.6512-.252-1.5018-.2415-.8611.0105-1.1867.0735-2.3104.4411-5.7865 1.8588-10.0607 2.6464-14.461 2.6464-4.0326 0-6.9416-.6196-9.9556-2.1318-1.5648-.7772-2.7935-1.6593-4.1902-3.014-1.8588-1.8063-3.035-3.4656-4.2742-6.028l-.6511-1.3548.126-.6406c.168-.8191.8716-2.9825 1.3757-4.2637 3.4026-8.496 10.1342-15.406 18.5146-19.0082 3.7492-1.6068 7.2357-2.4154 11.888-2.7725.9557-.0735 4.3583.0525 5.6605.1996zM3.623 39.942c2.1424 1.7118 4.6208 3.0666 7.2042 3.9172 2.8775.9557 5.3034 1.3757 7.9289 1.3757 3.8436 0 7.2777-.8611 14.1143-3.5496 1.6173-.63 3.4866-1.3232 4.1482-1.5437 2.0374-.6616 3.2976-.6091 3.5812.1365.168.441-.1156 1.4072-.9662 3.203-1.1447 2.4575-1.3862 3.245-1.3968 4.6418-.0104 1.3337.1576 1.8378.8192 2.4995.8717.8716 1.9848 1.1656 4.1062 1.0921 2.3944-.084 4.0957-.609 7.4877-2.2789 3.0245-1.4912 5.1774-2.7514 9.8402-5.755 3.9382-2.5519 5.44-3.392 7.0887-3.9696.9346-.3255 2.615-.4516 3.35-.252l.4516.1155-.0735.7036c-.063.6931-.315 2.447-.42 2.9615-.0526.2625-.063.2625-1.1237.231-2.2684-.0735-3.8437.5251-8.748 3.329-6.301 3.6022-11.1634 5.5975-15.5952 6.3747-1.3652.2415-3.6126.2415-4.5157.0105-2.0478-.5461-3.266-1.7013-3.7386-3.5496-.3571-1.3757-.042-2.783 1.1762-5.3034 1.0816-2.2369 1.1552-2.531.7561-3.035-.21-.273-.252-.2836-.9662-.2416-.9661.0525-1.3337.21-6.259 2.6045-4.2742 2.0793-5.713 2.699-7.6663 3.287-2.5415.7667-4.4422 1.0607-6.9312 1.0502-3.1295-.0105-5.944-.6196-9.0315-1.9428-2.0163-.8612-5.1459-2.6255-5.3454-3.014-.084-.1576-.3466-2.0058-.483-3.4761-.0631-.6511-.0631-.6721.126-.5146.105.0945.588.4936 1.0816.8926zm34.3828 2.1004c.252.0945.1996.5566-.105 1.0922-.5671.9767-1.4177 2.741-1.7118 3.5496-1.2077 3.2765-.7246 6.0595 1.3232 7.5823 2.1634 1.5962 6.007 1.9848 10.8484 1.0922 2.8144-.5251 4.9778-1.1552 10.3232-3.0246 3.7596-1.3232 5.6605-1.9113 7.1622-2.2158.9767-.1996 2.7304-.252 2.8985-.084.126.126-.6091 1.8693-1.3863 3.266-.3675.6721-.462.7666-.651.7141-.5986-.1785-1.6803-.273-2.4365-.2205-1.8903.147-3.77.5146-9.8716 1.9428-3.2766.7667-6.175 1.3232-7.8239 1.5123-2.8564.336-5.4294.1575-7.3722-.5041-1.3127-.441-2.0583-.8927-2.9195-1.7433-1.9428-1.9323-2.2263-5.0094-.7456-8.2859.6616-1.4597.8086-2.0058.6511-2.3104-.294-.546-1.2182-.063-3.1085 1.6173-1.4808 1.3232-3.6441 3.098-4.7363 3.8961-1.5543 1.1342-3.9277 2.615-5.1564 3.203-1.9848.9662-4.6208 1.6909-7.2777 1.9954-2.405.2835-6.427.105-8.2334-.357-.4936-.126-.5146-.147-1.0292-1.0712-.294-.5251-.7351-1.3863-.9871-1.9219-.5251-1.1236-.5986-1.0711.9661-.756 5.902 1.2181 10.1342 1.3756 13.8518.504 3.7177-.8611 7.5928-2.846 11.7515-6.0175 2.4574-1.8693 3.9487-2.846 4.9779-3.266.7036-.2941.5986-.2626.7981-.1891zm-3.3816 4.8413c-.9031 2.1319-1.1132 2.8775-1.2707 4.4213-.1785 1.7433.1575 3.3815.9557 4.6207 2.4364 3.7702 9.063 5.0199 20.405 3.8542 3.4235-.357 5.0513-.4306 6.1434-.273.9242.1365 1.6804.3885 1.6804.546 0 .1366-1.6908 1.8904-2.3315 2.426l-.4935.4095-1.2918-.1575c-1.8168-.231-4.7573-.378-7.5927-.378-6.5636-.0106-9.5567-.3887-12.4131-1.5648-1.5333-.6406-2.5834-1.3128-3.6021-2.321-.9977-1.0081-1.4598-1.7117-1.9324-2.972l-.3255-.861v-2.4155c0-2.2369-.0105-2.4154-.189-2.4469-.3361-.063-.8507.462-1.8168 1.8273-2.447 3.4971-4.1377 5.4504-6.1856 7.1622-2.951 2.468-6.07 3.8016-9.273 3.9802l-1.1972.063-1.4073-1.4072c-.7771-.7667-1.4072-1.4388-1.4072-1.4703 0-.0315.4096-.0945.9241-.1365 3.8437-.3046 7.9079-1.5333 11.1109-3.371 2.594-1.4913 3.9277-2.6465 6.7106-5.776 3.1086-3.4971 4.9989-5.335 5.23-5.104.0524.0526-.1156.5882-.4307 1.3443zm-2.93 5.0934c-.147 1.0082-.084 3.5286.1156 4.4842.6196 2.951 2.1843 4.9674 5.2299 6.7212 2.6044 1.5017 5.4819 2.4364 11.4259 3.7386 2.8565.6196 3.7806.8611 3.7806.9767 0 .042-.441.273-.9767.5145-8.6534 3.9172-18.2415 4.1797-27.0105.7457-1.4072-.5566-4.6733-2.1529-4.6733-2.279 0-.042.5041-.42 1.1342-.8296 2.7515-1.8168 4.8518-3.8856 6.5846-6.49.378-.5566 1.4913-2.615 2.4784-4.5683.9872-1.9639 1.8378-3.5601 1.8903-3.5601.063 0 .0736.2205.021.546z"/><path d="M15.5741 14.7169c-1.2812.1995-1.6802.3046-1.5437.4096.021.021.42.21.8716.4305.5986.294 1.0607.6301 1.6698 1.2077.8191.7877 1.0397 1.0817 3.3816 4.7048.8506 1.3023 1.9323 2.4995 2.8354 3.1086 1.3443.9136 3.8017 1.8168 7.6558 2.8144 1.3233.3361 2.6675.7351 2.993.8822.8297.3885 1.9009 1.4702 1.9009 1.9428 0 .063-.273.105-.6617.105-.8296 0-1.5437.21-2.2263.6406-.2836.189-.7141.3676-.9347.3991-.5986.0945-.5776.273.063.4936.3046.0945.7246.2835.9242.4096.5356.336 1.7328.7456 2.7304.9346 1.6593.315 3.161.168 4.6418-.462.4201-.1786 1.0397-.3571 1.3653-.3886.5145-.0525.6826-.021 1.1657.231l.567.2835.5356-.273c.8612-.441.6301-.6721-1.2812-1.2602-1.3652-.4306-1.8378-.7456-1.6488-1.1027.063-.105.3466-.378.6406-.588.2941-.2206 1.2077-1.1553 2.0374-2.09 1.8483-2.0793 3.8436-4.0116 4.9779-4.8203.9766-.7036 2.7304-1.6172 3.623-1.9008.5041-.1575.8507-.1785 1.9954-.147 1.6068.063 2.468.252 3.5916.8191l.7771.3886.4516-.2205c.5986-.294 1.7538-1.4493 2.1108-2.1319.1576-.294.3781-.9032.4936-1.3547.21-.8087.2836-2.2474.126-2.2474-.0525 0-.63.357-1.2917.8086-2.8564 1.9113-5.1563 2.6045-9.231 2.762-2.5204.0945-3.4866.252-5.0619.7981-3.098 1.0817-5.734 3.098-7.7818 5.9546-.3255.441-.7351 1.0711-.9136 1.3757-.3886.6826-.2416.7036-2.3944-.3571-3.3711-1.6803-5.503-3.497-9.2731-7.8763-1.0187-1.1867-2.1949-2.489-2.6254-2.8985-.8927-.8612-2.1214-1.6908-2.804-1.8903-.7036-.2206-2.762-.168-4.4528.105z"/></g></svg>