<svg version="1.1" id="Layer_1" xmlns="http://www.w3.org/2000/svg" xmlns:xlink="http://www.w3.org/1999/xlink" x="0px" y="0px" viewBox="0 0 253.9 48.8" style="enable-background:new 0 0 253.9 48.8;" xml:space="preserve">
 <style type="text/css">
  .st0{fill:#996A4E;}
	.st1{fill:#84754E;}
	.st2{fill-rule:evenodd;clip-rule:evenodd;fill:#41464B;}
 </style>
 <g>
  <g>
   <path class="st0" d="M25.6,20.8l17-17C44.5,2,46.5,0.9,49.1,0H30.8c-0.5,0-1,0.2-1.5,0.2H29c-1.7,0.5-3.1,1.2-4.4,2.2
			c-0.3,0.3-0.7,0.5-1,0.9l-20.6,21H17C20.3,24.2,23.3,23,25.6,20.8z">
   </path>
   <path class="st1" d="M23.5,27.8L6.6,44.6c-1.7,1.7-3.9,3.1-6.6,3.7h18.1c0.5,0,1-0.2,1.5-0.2h0.3c1.5-0.5,3.1-1.2,4.4-2.2
			c0.3-0.3,0.7-0.5,1-0.9l21-21H32.2C29,24.2,25.9,25.6,23.5,27.8z">
   </path>
   <path class="st0" d="M53.3,13.3c0-0.2,0-0.2,0.2-0.2c1.9-0.5,7.3-1.2,7.3-1.2s-5.5-0.3-7.3-0.9l-0.2-0.2c0.2-0.7,1.9-2.9,1.9-2.9
			l-2.9,2c0,0-0.2,0-0.2-0.2c-0.5-2.9-1-8.2-1-8.2s-0.3,5.3-1,8.2c0,0,0,0.2-0.2,0.2L47,8c0,0,1.7,2.2,2,2.9c0,0,0,0.2-0.2,0.2
			c-1.9,0.5-7.3,1-7.3,1s5.5,0.5,7.3,1.2l0.2,0.2c-0.2,0.7-1.9,2.7-1.9,2.7l2.9-1.7c0,0,0.2,0,0.2,0.2c0.5,2.9,1,8.2,1,8.2
			s0.3-5.3,1-8.2c0,0,0-0.2,0.2-0.2l2.9,1.7C55.4,16,53.7,14,53.3,13.3z">
   </path>
  </g>
  <path class="st2" d="M87,34.2c6.2,0,9.1,1.9,9.1,6v2.1c0,5.8-4.8,6.3-9.6,6.3H68.9c-0.3,0-0.7-0.3-0.7-0.7v-2.6
		c0-0.3,0.3-0.7,0.7-0.7h16.2c4.4,0,5.8-0.5,5.8-3.8c0-2.7-1-3.2-5-3.2h-4.3c-9.6,0-13-0.5-13-7c0-5.6,3.4-6.5,9.9-6.5h15.9
		c0.3,0,0.7,0.3,0.7,0.7v2.4c0,0.3-0.3,0.7-0.7,0.7H81.2l-1.3,0c-4.6,0-6,0-6,3.2c0,2.4,0.3,3.1,5.5,3.1H87z M167.1,38.5
		c7.2,9.4,7.7,10.1,7.7,10.1h-5.1c-0.7,0-1.2-0.2-1.7-0.7l-9.1-13h4.4c1.7,0,4.8-0.9,5-3.8c0-1.2-0.5-2.2-1.9-2.7
		c-0.9-0.3-2.2-0.7-2.9-0.7c-0.4,0-0.8,0-1.3-0.1c-0.4,0-0.7-0.1-1-0.1h-6.5c-0.3,0-0.9,0.2-0.9,0.9v19.6c0,0.3-0.3,0.7-0.7,0.7
		h-4.1c-0.3,0-0.7-0.3-0.7-0.7V25.2c0-0.3,0.3-0.7,0.7-0.7h14.4c0.3,0,3.6,0,6.2,1.5c2.2,1.4,3.6,3.2,3.6,5.1c0,5-5.8,6.5-6,6.5
		c-0.5,0.2-0.5,0.3-0.5,0.3C166.8,38.2,166.8,38.3,167.1,38.5z M199.2,45.9c0-0.3-0.3-0.7-0.7-0.7c0,0-16.1,0-16.1,0.2
		c-0.3,0-0.7-0.3-0.7-0.7V25.5c0-0.5-0.5-1-1-1h-3.2c-0.5,0-1,0.5-1,1v22.2c0,0.5,0.5,1,1,1h21c0.3,0,0.7-0.3,0.7-0.7
		C199.2,48.1,199.2,45.9,199.2,45.9z M224.5,24.2c0.5,0,1,0.5,1,1v15c0,5-5.3,8.4-12.6,8.4s-12.6-3.6-12.6-8.4v-15c0-0.5,0.5-1,1-1
		h3.2c0.5,0,1,0.5,1,1v14.5c0,3.2,2.7,5.1,7.3,5.1c4.4,0,7.3-2.1,7.3-5.1V25.2c0-0.5,0.5-1,1-1H224.5z M253.9,48.6l-10.6-12.1
		c0-0.2,0-0.3,0.2-0.5l8.9-10.4c0.2-0.2,0.2-0.3,0.2-0.5c0-0.3-0.3-0.7-0.7-0.7h-3.2c-0.7,0-1.5,0.3-1.9,0.7l-6.3,7.2
		c0,0.2-0.2,0.2-0.3,0.2c-0.1,0-0.1,0-0.2,0c0,0-0.1-0.1-0.2-0.2l-6.3-7.2c-0.3-0.3-1.2-0.7-1.9-0.7h-3.2c-0.3,0-0.7,0.3-0.7,0.7
		c0,0.2,0,0.3,0.2,0.5l8.9,10.4c0.2,0.2,0.2,0.3,0,0.5L226,48.6h4.8c1,0,1.5-0.3,1.9-0.7l6.8-8c0-0.2,0.2-0.2,0.3-0.2
		c0.1,0,0.1,0,0.2,0c0,0,0.1,0.1,0.2,0.2l7,8c0.3,0.3,0.9,0.7,1.9,0.7C249.1,48.6,253.9,48.6,253.9,48.6z M141.8,48.6
		c-0.7,0-1.2-0.3-1.5-0.9l-8.9-17.9c0-0.2-0.2-0.2-0.2-0.2c-0.2,0-0.2,0-0.3,0.2c0,0-7.3,15-8.9,17.8c-0.3,0.5-0.9,1-1.5,1H116
		l12.6-23.7c0.2-0.3,0.5-0.5,1-0.5h3.1c0.3,0,0.7,0.2,1,0.5l12.6,23.7H141.8z M122,25c0-0.3-0.3-0.7-0.7-0.7H97.6
		c-0.3,0-0.7,0.3-0.7,0.7v1.9c0,0.3,0.3,0.7,0.7,0.7h8.5c0.3,0,0.7,0.3,0.7,0.7v19.8c0,0.3,0.3,0.7,0.7,0.7h3.9
		c0.3,0,0.7-0.3,0.7-0.7V28.3c0-0.3,0.3-0.7,0.7-0.7h8.5c0.3,0,0.7-0.3,0.7-0.7C122,26.9,122,25,122,25z">
  </path>
 </g>
</svg>