<svg version="1.1" id="Layer_1" xmlns="http://www.w3.org/2000/svg" xmlns:xlink="http://www.w3.org/1999/xlink" x="0px" y="0px" viewBox="0 0 93.8 46.9" style="enable-background:new 0 0 93.8 46.9;" xml:space="preserve">
 <style type="text/css">
  .st0{fill:#FF7701;}
 </style>
 <g>
  <path class="st0" d="M58.3,24.7c-0.1,3.5-0.9,6.9-1.3,10.4c-0.1,1.2,1.1,2.2,2.2,2.2c1.3,0,2.1-1,2.2-2.2c0.4-3.4,1.3-6.9,1.3-10.4
		c0-1.4-1.1-2.1-2.2-2.1C59.5,22.6,58.3,23.3,58.3,24.7 M50.8,22.8c-2.2,2.1-3.5,4.9-4.8,7.7c-0.1,0.2-0.2,0.5-0.3,0.7
		c0.1-1.5-0.1-3-0.7-4.5c-0.5-1.3-1.9-2.1-3.3-1.3c-1.1,0.7-2.1,1.5-3,2.5c-1.1-1.4-4-1-4.1,1.3c0,3.7-0.6,7.3-0.7,11
		c0,2.9,4.2,2.8,4.5,0c0.2-2.6,1.1-5.9,2.7-8.3c0,0.6-0.1,1.1-0.1,1.7c-0.2,2.1-0.4,4.1-0.1,6.2c0.3,1.8,2.6,2,3.7,1
		c2.7-2.4,3.9-5.8,5.4-9C50,33.4,49.9,35,50,36.5c0.1,2.3,0.5,4.7,2,6.6c1.6,2,4.2,2.3,6.6,1.9c1.2-0.2,1.9-1.7,1.6-2.7
		c-0.4-1.3-1.6-1.7-2.8-1.5c-0.7,0.1-1.3,0-1.5-0.1c-0.5-0.3-0.1,0-0.5-0.4c0,0,0,0,0,0c0,0,0-0.1-0.1-0.1c-0.1-0.2-0.2-0.4-0.3-0.5
		c0.2,0.3-0.2-0.5-0.2-0.7c-0.1-0.5-0.2-0.8-0.2-1.1c-0.1-1.1-0.1-2.1-0.1-3.2c0.1-2.1,0.3-4.1,0.4-6.2c0.1-1.5,0.2-3.3-0.3-4.7
		c-0.4-1-1.3-1.6-2.2-1.6C51.8,22.2,51.2,22.4,50.8,22.8 M75.9,28c0.3-0.8,0.8-1.6,1.4-2.4c0.4-0.5,1.1-1.1,1.4-1.2
		c0.5-0.2,0.2-0.1,0.8-0.1c0,0,0.1,0,0.2,0c0,0.1,0,0.1,0,0.2c-0.4,1.5-1.7,3.2-2.8,4.4c-0.6,0.6-1.2,1.2-1.8,1.8
		C75.2,29.8,75.5,28.9,75.9,28 M76.2,22.1c-3.4,3.4-5.2,9.8-4.1,14.5c0.6,2.7,2.9,5.4,5.5,6.5c2.8,1.2,5.9,1,8.7,0
		c2.6-0.9,4.9-2.3,6.9-4.2c2.1-1.9-1-5.1-3.2-3.1c-2.9,2.6-7.8,5.2-11.5,2.7c-1-0.6-1.5-1.5-1.9-2.4c1.9-0.8,3.5-2.3,4.9-3.8
		c1.7-1.8,3.3-4,4.1-6.4c0.8-2.4-0.2-4.9-2.7-5.7c-0.6-0.2-1.2-0.3-1.8-0.3C79.3,19.9,77.5,20.8,76.2,22.1 M20.4,20.4
		c-1.8,0.9-3.6,1.9-5.3,3.2c-1.2,0.9-2.6,1.9-3.3,3.4c-0.7,1.5-0.1,3.4,1.3,3.9c4.2,1.4,9.5,0.6,13.2,2.5c0.2,0.1,0.4,0.2,0.6,0.4
		c0.1,0,0.1,0.1,0.1,0.1c0,0,0.1,0.1,0.1,0.1c0.2,0.2,0.2,0.2,0.2,0.4c0,0.2,0,0.3,0,0.7c-0.1,0.6-0.3,0.9-0.5,1.4
		c-0.8,1.7-2.2,2.8-4,3.8c-3.6,1.9-8.5,2-12.4,0.8C8.7,40.4,7,39.4,5.8,38c-0.5-0.5-0.9-1.4-1.1-1.9c-0.3-1.1-0.3-1.5-0.2-2.8
		c0.1-1.4-1.1-2.6-2.2-2.6c-1.3,0-2.1,1.2-2.2,2.6c-0.5,5.7,3,9.8,7.2,11.8c4.5,2.1,9.8,2.2,14.5,0.9c4.4-1.3,9.2-4.7,10-10.3
		c1-7.1-6-8.3-10.4-8.9c-0.6-0.1-1.3-0.1-1.9-0.2c0.5-0.3,1-0.6,1.5-0.9c1.1-0.6,2.3-1.2,3.5-1.6c0.2-0.1,0.5-0.1,0.7-0.2
		c0.4-0.1,0.3-0.1,0.3-0.1c0,0,0,0,0.1,0c1.5,1.6,4.5,0.2,3.7-2.6c-0.6-2-1.9-2.7-3.4-2.7C24,18.7,21.9,19.7,20.4,20.4 M67.6,15.7
		c-1.4,8.5-3.5,16.9-3.6,25.6c0,2.9,4.5,2.9,4.5,0c0-8.3,2-16.3,3.4-24.4c0.3-1.7-1.2-2.8-2.5-2.8C68.6,14.1,67.8,14.6,67.6,15.7
		 M62.5,15c-0.2,1.2-1,2.4-1.9,3.2c-0.1,0.1-0.1,0.1-0.2,0.2c-0.2-0.4-0.3-1-0.3-1.3C60,16,56.5,16.7,56.7,18c0.2,1,0.5,2.1,1.5,2.4
		c1.3,0.5,2.7,0,3.8-0.6c1.8-1,3.5-3.2,3.9-5.2c0.1-0.5-0.4-0.7-1-0.7C64,13.9,62.7,14.3,62.5,15">
  </path>
  <path class="st0" d="M60,9.4C60,9.6,60,9.8,60,10c0,0.1,0,0.2,0,0.3c0,0.3-0.1,0.5-0.2,0.8c-0.1,0.3-0.2,0.5-0.4,0.7
		c-0.2,0.2-0.3,0.5-0.5,0.7c-0.2,0.2-0.4,0.4-0.7,0.5c-0.3,0.2-0.5,0.3-0.8,0.4c-0.3,0.1-0.6,0.1-1,0.1c-0.3,0-0.6,0-0.9-0.1
		c-0.3-0.1-0.6-0.2-0.8-0.3c-0.3-0.1-0.5-0.3-0.7-0.5c-0.2-0.2-0.4-0.4-0.5-0.7c-0.1-0.3-0.2-0.5-0.3-0.8c0-0.1,0-0.3,0-0.4
		c0-0.1,0-0.2,0-0.4c-0.3,0.2-0.5,0.3-0.8,0.4c-0.3,0.1-0.7,0.2-1.1,0.2c-0.4,0-0.7,0-1-0.1c-0.3-0.1-0.6-0.2-0.9-0.3
		c-0.3-0.1-0.5-0.3-0.8-0.5c-0.2-0.1-0.3-0.3-0.5-0.4c0,0-0.2-0.2-0.3-0.4c-0.1-0.1-0.3-0.3-0.4-0.5c0,0-0.3-0.4-0.3-0.4
		C47.1,8.2,47,8.1,46.9,8c-0.1-0.1-0.2-0.3-0.4-0.4C46.3,7.4,46,7.2,45.8,7c-0.1,0-0.1-0.1-0.2-0.1c0,0-0.1,0-0.1-0.1
		c0,0-0.1,0-0.1-0.1c0,0,0-0.1,0.1-0.1c0,0,0.1,0,0.1-0.1c0.1,0,0.1-0.1,0.2-0.1c0.3-0.2,0.5-0.4,0.7-0.6c0.1-0.1,0.3-0.3,0.4-0.4
		c0.1-0.1,0.2-0.2,0.3-0.3c0,0,0.3-0.4,0.3-0.4c0.1-0.2,0.3-0.3,0.4-0.5C48,4.2,48.2,4,48.2,4c0.2-0.2,0.3-0.3,0.5-0.4
		c0.2-0.2,0.5-0.4,0.8-0.5c0.3-0.1,0.6-0.3,0.9-0.3c0.3-0.1,0.7-0.1,1-0.1c0.4,0,0.8,0.1,1.1,0.2C52.7,2.9,53,3,53.2,3.2
		c0-0.1,0-0.2,0-0.4c0-0.1,0-0.3,0-0.4c0-0.3,0.1-0.5,0.3-0.8c0.1-0.2,0.3-0.5,0.5-0.7c0.2-0.2,0.4-0.4,0.7-0.5
		c0.3-0.1,0.5-0.2,0.8-0.3C55.8,0,56.1,0,56.5,0c0.3,0,0.6,0.1,1,0.1c0.3,0.1,0.6,0.2,0.8,0.4c0.2,0.1,0.5,0.3,0.7,0.5
		c0.2,0.2,0.4,0.4,0.5,0.7c0.1,0.2,0.3,0.5,0.4,0.7C59.9,2.7,60,3,60,3.2c0,0.1,0,0.2,0,0.3c0,0.2,0,0.4-0.1,0.7
		c-0.1,0.3-0.1,0.6-0.3,0.9c-0.1,0.3-0.3,0.5-0.5,0.8c-0.2,0.2-0.4,0.4-0.6,0.6c-0.1,0.1-0.2,0.2-0.4,0.2c-0.1,0-0.1,0.1-0.2,0.1
		c0.1,0,0.1,0.1,0.2,0.1v0c0.1,0.1,0.3,0.1,0.4,0.2c0.2,0.2,0.4,0.4,0.6,0.6c0.2,0.2,0.3,0.5,0.5,0.8C59.8,8.7,59.9,9,60,9.4
		 M59.8,10c0-0.2,0-0.4-0.1-0.6c-0.1-0.3-0.1-0.6-0.3-0.9C59.3,8.3,59.2,8,59,7.8c-0.2-0.2-0.4-0.4-0.6-0.5c-0.1,0-0.1-0.1-0.2-0.1
		C58,7.1,57.8,7,57.6,6.9c0,0-0.3-0.1-0.3-0.1c0,0,0.3-0.1,0.3-0.1c0.2-0.1,0.4-0.2,0.6-0.3c0.1,0,0.1-0.1,0.2-0.1
		c0.2-0.2,0.4-0.3,0.6-0.5c0.2-0.2,0.3-0.5,0.4-0.7c0.1-0.3,0.2-0.6,0.3-0.9c0-0.2,0.1-0.4,0.1-0.6c0-0.1,0-0.2,0-0.3
		c0-0.2-0.1-0.5-0.2-0.7c-0.1-0.2-0.2-0.5-0.3-0.7c-0.1-0.2-0.3-0.4-0.5-0.6c-0.2-0.2-0.4-0.4-0.6-0.5c-0.2-0.1-0.5-0.3-0.8-0.3
		c-0.3-0.1-0.6-0.1-0.9-0.1c-0.3,0-0.6,0-0.9,0.1c-0.3,0.1-0.5,0.2-0.8,0.3c-0.2,0.1-0.4,0.3-0.6,0.5c-0.2,0.2-0.3,0.4-0.5,0.6
		c-0.1,0.2-0.2,0.5-0.2,0.7c0,0.1,0,0.3,0,0.4c0,0.2,0,0.3,0,0.5c0,0,0.1,0.4,0.1,0.4l-0.3-0.2c-0.3-0.2-0.6-0.4-1-0.5
		c-0.3-0.1-0.7-0.2-1-0.2c-0.3,0-0.7,0-1,0.1c-0.3,0.1-0.6,0.2-0.8,0.3c-0.2,0.1-0.5,0.3-0.7,0.5c-0.2,0.2-0.4,0.4-0.6,0.6
		C48,4.5,47.8,4.7,47.6,5c0,0-0.3,0.4-0.3,0.4c-0.1,0.2-0.3,0.3-0.4,0.5c-0.3,0.3-0.5,0.5-0.7,0.7c-0.1,0.1-0.2,0.2-0.3,0.2h0
		l-0.1,0c0,0-0.1,0-0.1,0c0,0,0,0,0,0c0,0,0,0,0,0c0,0,0.1,0,0.1,0l0.1,0l0,0C46,6.9,46.1,7,46.2,7.1c0.2,0.2,0.5,0.4,0.7,0.7
		c0.1,0.1,0.3,0.3,0.4,0.5l0.3,0.4C47.8,8.8,48,9,48.2,9.2c0.2,0.2,0.4,0.4,0.6,0.6c0.2,0.2,0.5,0.3,0.7,0.5
		c0.3,0.1,0.5,0.2,0.8,0.3c0.3,0.1,0.6,0.1,1,0.1c0.4,0,0.7-0.1,1-0.2c0.3-0.1,0.6-0.3,1-0.5l0.3-0.2c0,0-0.1,0.4-0.1,0.4
		c0,0.2,0,0.3,0,0.5c0,0.1,0,0.3,0,0.4c0,0.2,0.1,0.5,0.2,0.7c0.1,0.2,0.3,0.4,0.5,0.6c0.2,0.2,0.4,0.3,0.6,0.5
		c0.2,0.1,0.5,0.2,0.8,0.3c0.3,0.1,0.6,0.1,0.9,0.1c0.3,0,0.6-0.1,0.9-0.1c0.3-0.1,0.5-0.2,0.8-0.3c0.2-0.1,0.4-0.3,0.6-0.5
		c0.2-0.2,0.4-0.4,0.5-0.6c0.1-0.2,0.3-0.4,0.3-0.7c0.1-0.2,0.1-0.5,0.2-0.7C59.8,10.2,59.8,10.1,59.8,10 M58.9,8.8
		c-0.1-0.2-0.3-0.5-0.4-0.7c-0.2-0.2-0.4-0.4-0.6-0.5c-0.2-0.1-0.5-0.3-0.7-0.3c-0.3-0.1-0.6-0.1-0.8-0.1c-0.3,0-0.6,0-0.9,0.1
		c-0.2,0.1-0.5,0.1-0.7,0.3c-0.2,0.1-0.4,0.2-0.6,0.3c-0.2,0.1-0.3,0.3-0.5,0.4c-0.2,0.1-0.3,0.2-0.5,0.3c-0.2,0.1-0.3,0.2-0.5,0.3
		c-0.2,0.1-0.4,0.1-0.6,0.1c-0.3,0-0.6-0.1-0.8-0.2c-0.3-0.1-0.5-0.3-0.7-0.5c-0.2-0.2-0.4-0.4-0.5-0.7c-0.1-0.3-0.2-0.5-0.2-0.8
		c0-0.3,0-0.6,0.2-0.8c0.1-0.3,0.3-0.5,0.5-0.7c0.2-0.2,0.4-0.4,0.7-0.5c0.3-0.1,0.6-0.2,0.8-0.2c0.2,0,0.4,0,0.6,0.1
		c0.2,0.1,0.4,0.1,0.5,0.3c0.2,0.1,0.3,0.2,0.5,0.3c0.2,0.1,0.3,0.3,0.5,0.4c0.2,0.1,0.4,0.2,0.6,0.3c0.2,0.1,0.5,0.2,0.7,0.3
		c0.3,0.1,0.6,0.1,0.9,0.1c0.3,0,0.6,0,0.8-0.1c0.3-0.1,0.5-0.2,0.7-0.3c0.2-0.1,0.4-0.3,0.6-0.5c0.2-0.2,0.3-0.4,0.4-0.7
		C59,4.5,59.1,4.2,59.1,4c0-0.3,0-0.6,0-0.9c-0.1-0.3-0.1-0.6-0.3-0.8c-0.1-0.2-0.3-0.5-0.5-0.7c-0.2-0.2-0.4-0.4-0.7-0.5
		c-0.2-0.1-0.5-0.2-0.8-0.3c-0.3-0.1-0.6-0.1-0.9,0c-0.3,0-0.6,0.1-0.8,0.2c-0.2,0.1-0.5,0.3-0.6,0.5c-0.2,0.2-0.3,0.4-0.4,0.7
		C54,2.4,54,2.7,54,3c0,0.3,0,0.6,0.1,0.8c0,0,0,0.1,0,0.1c0,0,0,0,0,0.1c0,0,0,0,0,0.1c0,0,0,0,0,0c0,0,0,0,0,0c0,0,0-0.1,0-0.1
		c0-0.1,0.1-0.3,0.1-0.4c0.1-0.2,0.3-0.4,0.5-0.6c0.2-0.1,0.5-0.2,0.8-0.2c0.3,0,0.6,0,0.8,0.2c0.2,0.1,0.4,0.3,0.5,0.5
		c0.1,0.2,0.2,0.5,0.2,0.8c0,0.3-0.1,0.5-0.2,0.8c-0.1,0.2-0.4,0.4-0.6,0.5s-0.5,0.2-0.8,0.1c-0.2,0-0.4-0.1-0.5-0.2
		c-0.2-0.1-0.3-0.2-0.5-0.3c-0.2-0.1-0.3-0.3-0.5-0.4c-0.2-0.1-0.3-0.3-0.5-0.4c-0.2-0.1-0.4-0.3-0.6-0.4c-0.2-0.1-0.5-0.2-0.7-0.3
		c-0.3-0.1-0.6-0.1-0.8-0.1c-0.3,0-0.6,0-0.9,0.1c-0.2,0.1-0.5,0.1-0.7,0.3c-0.2,0.1-0.4,0.2-0.6,0.4c-0.2,0.1-0.3,0.3-0.5,0.5
		c-0.2,0.2-0.3,0.3-0.4,0.5c-0.1,0.2-0.3,0.3-0.4,0.5c-0.1,0.2-0.3,0.3-0.4,0.5c-0.2,0.2-0.3,0.3-0.5,0.4c0,0-0.1,0-0.1,0.1
		c0,0-0.1,0-0.1,0c0,0,0,0,0,0.1c0,0,0,0,0,0.1c0,0,0.1,0,0.1,0c0,0,0.1,0,0.1,0.1c0.2,0.1,0.4,0.3,0.5,0.4c0.2,0.2,0.3,0.3,0.4,0.5
		C48,8,48.1,8.2,48.3,8.4c0.1,0.2,0.3,0.4,0.4,0.5C48.9,9,49,9.2,49.2,9.3c0.2,0.1,0.4,0.3,0.6,0.4c0.2,0.1,0.5,0.2,0.7,0.3
		c0.3,0.1,0.6,0.1,0.9,0.1c0.3,0,0.6,0,0.8-0.1c0.2-0.1,0.5-0.2,0.7-0.3c0.2-0.1,0.4-0.2,0.6-0.4C53.6,9.1,53.8,9,54,8.9
		c0.2-0.1,0.3-0.3,0.5-0.4c0.2-0.1,0.3-0.2,0.5-0.3C55.1,8.1,55.3,8,55.5,8c0.3,0,0.6,0,0.8,0.1s0.5,0.3,0.6,0.5
		c0.1,0.2,0.2,0.5,0.2,0.8c0,0.3-0.1,0.5-0.2,0.8c-0.1,0.2-0.3,0.4-0.5,0.5c-0.3,0.1-0.5,0.2-0.8,0.2c-0.3,0-0.5-0.1-0.8-0.2
		c-0.2-0.1-0.4-0.4-0.5-0.6c-0.1-0.1-0.1-0.3-0.1-0.4c0,0,0-0.1,0-0.1c0,0,0,0,0,0c0,0,0,0,0,0c0,0,0,0,0,0.1c0,0,0,0,0,0
		c0,0,0,0.1,0,0.1C54,10,53.9,10.3,54,10.6c0,0.3,0.1,0.5,0.2,0.8c0.1,0.2,0.2,0.5,0.4,0.7c0.2,0.2,0.4,0.4,0.6,0.5
		c0.2,0.1,0.5,0.2,0.8,0.2c0.3,0,0.6,0,0.9,0c0.3-0.1,0.5-0.1,0.8-0.3c0.2-0.1,0.5-0.3,0.7-0.5c0.2-0.2,0.4-0.4,0.5-0.7
		c0.1-0.3,0.2-0.5,0.3-0.8c0.1-0.3,0.1-0.6,0-0.9C59.1,9.3,59,9,58.9,8.8 M50.6,7.6c0.1,0.2,0.3,0.4,0.6,0.5
		c0.3,0.1,0.5,0.2,0.8,0.2c0.4,0,0.7-0.2,1-0.4c0.3-0.2,0.6-0.4,0.9-0.7c0.3-0.2,0.6-0.4,0.9-0.5c0,0,0,0,0,0c0,0,0,0,0,0
		c-0.3-0.1-0.6-0.3-0.9-0.5c-0.3-0.2-0.6-0.4-0.9-0.6c-0.3-0.2-0.6-0.4-1-0.4c-0.3,0-0.6,0-0.8,0.2c-0.2,0.1-0.4,0.3-0.6,0.5
		c-0.1,0.2-0.2,0.5-0.2,0.8v0v0C50.4,7,50.5,7.3,50.6,7.6">
  </path>
  <path class="st0" d="M85.5,10.9h3.3c-0.7-0.4-0.9-0.8-1.3-1.7C85.3,3.9,84.5,2,84.5,2s-0.5,0.8-2.2,1.2c0.1,0.1,0.2,0.3,0.2,0.5
		c0,0.1,0,0.3-0.1,0.6l-2.2,4.9c-0.5,1-0.7,1.5-1.4,1.7c-0.5-0.3-0.6-0.6-0.6-1.6v-5c0-1.1,0.1-1.3,0.7-1.6h-3
		c0.5,0.3,0.7,0.6,0.7,1.6v1.7h-4.2V4.2c0-1.1,0.1-1.3,0.7-1.6h-3c0.6,0.3,0.7,0.6,0.7,1.6v5c0,1.1-0.1,1.3-0.7,1.6h3
		c-0.6-0.3-0.7-0.6-0.7-1.6V7.1h4.2v2.2c0,1.1-0.1,1.3-0.7,1.6l5.9,0c-0.3-0.2-0.5-0.4-0.5-0.7c0-0.2,0.1-0.4,0.3-0.8L82,8.2h3.3
		l0.5,1.2C86,9.8,86,10,86,10.2C86,10.5,85.7,10.7,85.5,10.9 M82.4,7.2l1.3-3l1.2,3H82.4z">
  </path>
  <path class="st0" d="M91.2,9.2v-5c0-1.1,0.1-1.3,0.6-1.6h-3c0.5,0.3,0.6,0.6,0.6,1.6v5c0,1.1-0.1,1.3-0.6,1.6h3
		C91.3,10.6,91.2,10.3,91.2,9.2">
  </path>
  <path class="st0" d="M69.7,2L69.7,2c-0.3,0.2-0.8,0.6-2.1,0.6l-3.8,0c-0.7,0-1-0.4-1.2-0.7c-0.3,0.6-1,1.5-1.5,1.9h3.5
		c0,0.1,0,0.3,0,0.4v4.9c0,1.1-0.1,1.4-0.7,1.7h3c-0.5-0.3-0.6-0.6-0.6-1.6v-5c0-0.2,0-0.3,0-0.4H67c0.7,0,1.1-0.1,1.4-0.2
		C69.2,3.3,69.7,2.8,69.7,2L69.7,2z">
  </path>
 </g>
</svg>