<?xml version="1.0" encoding="utf-8"?>
<!-- Generator: Adobe Illustrator 28.1.0, SVG Export Plug-In . SVG Version: 6.00 Build 0)  -->
<svg version="1.1"
	 id="svg5" xmlns:svg="http://www.w3.org/2000/svg" xmlns:sodipodi="http://sodipodi.sourceforge.net/DTD/sodipodi-0.dtd" xmlns:inkscape="http://www.inkscape.org/namespaces/inkscape" inkscape:version="1.2.2 (732a01da63, 2022-12-09)" sodipodi:docname="Tigerair Taiwan (2014).svg"
	 xmlns="http://www.w3.org/2000/svg" xmlns:xlink="http://www.w3.org/1999/xlink" x="0px" y="0px" viewBox="0 0 327.1 121.9"
	 style="enable-background:new 0 0 327.1 121.9;" xml:space="preserve">
<style type="text/css">
	.st0{fill-rule:evenodd;clip-rule:evenodd;fill:#51524F;}
	.st1{fill-rule:evenodd;clip-rule:evenodd;fill:#F6A021;}
	.st2{fill:#51524F;}
</style>
<sodipodi:namedview  bordercolor="#000000" borderopacity="0.25" id="namedview7" inkscape:current-layer="layer1" inkscape:cx="189.35644" inkscape:cy="79.207921" inkscape:deskcolor="#464646" inkscape:document-units="mm" inkscape:pagecheckerboard="true" inkscape:pageopacity="0" inkscape:showpageshadow="2" inkscape:window-height="705" inkscape:window-maximized="1" inkscape:window-width="1366" inkscape:window-x="-8" inkscape:window-y="-8" inkscape:zoom="2.02" pagecolor="#ffffff" showgrid="false">
	</sodipodi:namedview>
<g id="layer1" transform="translate(-72.686863,-163.55895)" inkscape:groupmode="layer" inkscape:label="Layer 1">
	<g id="g11338" transform="matrix(0.99999419,0,0,0.99999419,4.2240894e-4,9.5049861e-4)">
		<g>
			<path id="path2668-7" class="st0" d="M379.9,205.2c1.7-5.4,9.2-9.9,13.8-9.9c3.6,0,6.1,1.9,6.1,5.6v5.7c0,3.6-3.2,5.6-6.9,5.6
				c-8.3,0-12.3,7.1-12.3,15.6v14.7c0,3.6-1.9,5.6-5.5,5.6h-6.4c-3.6,0-5.6-1.9-5.6-5.6v-40.9c0-3.6,1.9-5.6,5.6-5.6h5.7
				c3.6,0,5.6,1.9,5.6,5.6V205.2"/>
		</g>
		<g>
			<path id="path2670-5" class="st0" d="M265.4,205.2c1.7-5.4,9.2-9.9,13.8-9.9c3.5,0,6.1,1.9,6.1,5.6v5.7c0,3.6-3.2,5.6-6.9,5.6
				c-8.3,0-12.3,7.1-12.3,15.6v14.7c0,3.6-1.9,5.6-5.6,5.6h-6.4c-3.6,0-5.6-1.9-5.6-5.6v-40.9c0-3.6,1.9-5.6,5.6-5.6h5.7
				c3.6,0,5.6,1.9,5.6,5.6V205.2"/>
		</g>
		<g>
			<path id="path2672-5" class="st1" d="M348.7,190.1c-7.3,0-13.2-6-13.2-13.3c0-7.3,6-13.3,13.2-13.3c7.4,0,13.3,5.8,13.3,13.3
				C361.9,184.1,355.9,190.1,348.7,190.1"/>
		</g>
		<g>
			<path id="path2674-1" class="st0" d="M121.8,190.1c-7.3,0-13.3-6-13.3-13.3c0-7.3,6-13.3,13.3-13.3c7.4,0,13.2,5.8,13.2,13.3
				C135,184.1,129,190.1,121.8,190.1"/>
		</g>
		<g>
			<path id="path2676-5" class="st0" d="M314.5,215.8h1.6v-0.9c0-4.3-3.7-5.7-7.7-5.7c-3.5,0-7,1.1-9.8,2.3
				c-3.5,1.4-6.1,0.8-7.8-2.4l-1.3-2.5c-1.6-3.1-0.9-5.8,2.3-7.4c4.1-1.8,10.4-4,18.1-4c14.9,0,24.1,7.9,24.1,21v26.2
				c0,3.6-2,5.5-5.7,5.5h-5c-3.8,0-5.8-1.8-5.8-5.6v-0.4c0-0.6,0.1-1.3,0.1-1.3l-0.2,0.3c0,0-5.1,8.2-15.9,8.2
				c-10.4,0-17.6-6.8-17.6-15.7C284,219.6,301.2,215.8,314.5,215.8 M305.8,237c6,0,10.5-5.6,10.5-10.4v-1.4h-1.9
				c-6.3,0-14.5,1.6-14.5,7C299.9,234.9,301.9,237,305.8,237"/>
		</g>
		<g>
			<path id="path2678-3" class="st0" d="M79.7,210.8h-1.5c-3.5,0-5.5-1.9-5.5-5.6v-2.5c0-3.6,1.9-5.6,5.6-5.6h1.9v-9.4
				c0-3.6,1.9-5.5,5.6-5.5h5.9c3.7,0,5.6,1.9,5.6,5.5v9.4h5.3c3.6,0,5.6,1.9,5.6,5.6v2.5c0,3.6-1.9,5.6-5.5,5.6h-5.5v15.8
				c0,4.4,2.9,6.2,6.1,6.6c4,0.5,5.5,1.7,5.5,5.6v4.6c0,4.1-2.5,5.6-7.2,5.6c-7.7,0-21.9-3.5-21.9-19L79.7,210.8"/>
		</g>
		<g>
			<path id="path2680-6" class="st0" d="M113,201.4c0-3.6,1.9-5.6,5.6-5.6h6.4c3.6,0,5.6,1.9,5.6,5.6v40.9c0,3.6-1.9,5.6-5.6,5.6
				h-6.4c-3.6,0-5.6-1.9-5.6-5.6V201.4"/>
		</g>
		<g>
			<path id="path2682-2" class="st0" d="M340,201.4c0-3.6,1.9-5.6,5.6-5.6h6.4c3.6,0,5.6,1.9,5.6,5.6v40.9c0,3.6-1.9,5.6-5.6,5.6
				h-6.4c-3.6,0-5.6-1.9-5.6-5.6V201.4"/>
		</g>
		<g>
			<path id="path2684-7" class="st0" d="M220.8,195c15.5,0,24.1,10.9,24.1,24.8c0,2.7-2.4,5.8-5.9,5.8h-27.4
				c1.3,6.4,6.6,9.3,12.1,9.3c3.5,0,6.9-1.1,9.5-2.4c3.3-1.5,5.8-1.1,7.5,2.1l1.4,2.6c1.6,3.1,1.1,5.8-1.9,7.6
				c-3.7,2.1-9.9,4.6-17.9,4.6c-18.6,0-28.6-13.4-28.6-27.3C193.8,206.9,204.1,195,220.8,195 M228.4,215.6c0-4.5-2.9-8.2-7.5-8.2
				c-5.3,0-7.8,3.8-8.8,8.2H228.4z"/>
		</g>
		<g>
			<path id="path2686-5" class="st0" d="M172.4,243.1v0.1v0c0,2.2,0,5.3,0,8.2c1.3-1.3,3.2-2,5.5-2h6.4c2.4,0,4.2,0.7,5.4,2v-50.7
				c0-3.6-1.9-5.6-5.6-5.6h-6.3c-3.3,0-5.2,1.6-5.5,4.5l0,0.4h-0.2c0,0-3.1-5.1-13.6-5.1c-13.8,0-23.7,10.7-23.7,27.2
				c0,16.2,9.3,27.3,23.5,27.3C166.2,249.5,170.7,245.2,172.4,243.1 M162.2,235c-6.1,0-10.4-5-10.4-12.8c0-8,4.9-12.4,10.4-12.4
				c6.9,0,10.6,6.2,10.6,12.4C172.8,231.2,167.4,235,162.2,235"/>
		</g>
		<g>
			<path id="path2688-3" class="st1" d="M189.7,261.7v-1.8c0-3.9-2-5.7-5.4-5.7H178c-1.6,0-3.1,0.6-4,1.6c-0.8,0.9-1.3,2.2-1.3,3.9
				c0,3.4-1.6,5.9-2.8,7.1c-1.4,1.3-3.6,2-6.7,2.1c-3.1-0.1-5.3-0.8-6.8-2.1c-1.3-1.2-2.9-3-2.8-7c0-1.8-0.5-3-1.2-3.9
				c-0.9-1-2.4-1.6-4.1-1.7h-6.3c-3.6,0-5.5,1.9-5.5,5.7l0,2.1c0,0.3-0.1,0.3,0.1,2.6c0.9,11.1,13.2,20.8,26.4,20.8h0
				c13.2,0,25.7-9.8,26.5-20.8C189.7,264.3,189.7,263,189.7,261.7"/>
		</g>
		<g>
			<path id="path2672-5-2" class="st0" d="M224.4,254.2c-1.4,0-2.5,1.1-2.5,2.5c0,1.4,1.1,2.5,2.5,2.5c1.4,0,2.5-1.1,2.5-2.5
				C226.9,255.3,225.8,254.2,224.4,254.2z M223.5,260.1c-1,0-1.6,0.6-1.6,1.6v11.8c0,1,0.6,1.6,1.6,1.6h1.8c1,0,1.6-0.6,1.6-1.6
				v-11.8c0-1-0.6-1.6-1.6-1.6H223.5z"/>
		</g>
		<path id="path9629" class="st2" d="M195.6,269.7c0,4.5,4.1,5.5,6.3,5.5c1.3,0,2.1-0.4,2.1-1.6v-1.3c0-1.1-0.4-1.5-1.6-1.6
			c-0.9-0.1-1.7-0.6-1.7-1.9v-4.5h1.6c1,0,1.6-0.6,1.6-1.6v-0.7c0-1-0.6-1.6-1.6-1.6h-1.5v-2.7c0-1-0.6-1.6-1.6-1.6h-1.7
			c-1,0-1.6,0.6-1.6,1.6v2.7h-0.6c-1,0-1.6,0.6-1.6,1.6v0.7c0,1,0.6,1.6,1.6,1.6h0.4L195.6,269.7z"/>
		<path id="path9631" class="st2" d="M205.2,270.8c0,2.6,2,4.6,4.9,4.6c3,0,4.4-2.4,4.4-2.4h0.1c0,0,0,0.1,0,0.3v0.1
			c0,1.1,0.6,1.6,1.6,1.6h1.4c1,0,1.6-0.6,1.6-1.6v-7.6c0-3.8-2.6-6.1-6.7-6.1c-2.2,0-3.9,0.6-5,1.2c-0.9,0.5-1.1,1.3-0.6,2.2
			l0.3,0.7c0.5,0.9,1.2,1.1,2.2,0.7c0.8-0.3,1.7-0.7,2.7-0.7c1.1,0,2.1,0.4,2.1,1.7v0.3h-0.4C210,265.7,205.2,266.8,205.2,270.8
			L205.2,270.8z M210.2,270.4c0-1.4,2-1.8,3.5-1.8h0.5v0.4c0,1.2-1.1,2.6-2.6,2.6C210.7,271.6,210.2,271.1,210.2,270.4L210.2,270.4z
			"/>
		<path id="path9635" class="st2" d="M232.2,273.7c0.3,0.9,0.8,1.4,1.8,1.4h2.9c1,0,1.5-0.5,1.8-1.4l1.3-5.5
			c0.2-0.8,0.3-1.6,0.3-1.6h0.1c0,0,0.1,0.8,0.3,1.6l1.3,5.5c0.2,0.9,0.8,1.4,1.8,1.4h2.8c0.9,0,1.5-0.4,1.8-1.4l3.3-11.8
			c0.3-1.1-0.2-1.8-1.4-1.8h-1.9c-1,0-1.5,0.5-1.7,1.4l-1.6,7.4c-0.2,0.8-0.2,1.6-0.2,1.6h-0.1c0,0,0-0.8-0.2-1.6l-1.7-7.5
			c-0.2-0.9-0.8-1.4-1.7-1.4h-1.5c-1,0-1.5,0.5-1.7,1.4l-1.7,7.5c-0.2,0.8-0.3,1.6-0.3,1.6h-0.1c0,0,0-0.8-0.2-1.6l-1.6-7.4
			c-0.2-1-0.8-1.4-1.7-1.4h-2c-1.1,0-1.7,0.7-1.4,1.8L232.2,273.7z"/>
		<path id="path9637" class="st2" d="M252.3,270.8c0,2.6,2,4.6,4.9,4.6c3,0,4.4-2.4,4.4-2.4h0.1c0,0,0,0.1,0,0.3v0.1
			c0,1.1,0.6,1.6,1.6,1.6h1.4c1,0,1.6-0.6,1.6-1.6v-7.6c0-3.8-2.6-6.1-6.7-6.1c-2.2,0-3.9,0.6-5,1.2c-0.9,0.5-1.1,1.3-0.6,2.2
			l0.3,0.7c0.5,0.9,1.2,1.1,2.2,0.7c0.8-0.3,1.7-0.7,2.7-0.7c1.1,0,2.1,0.4,2.1,1.7v0.3h-0.4C257.1,265.7,252.3,266.8,252.3,270.8
			L252.3,270.8z M257.3,270.4c0-1.4,2-1.8,3.5-1.8h0.5v0.4c0,1.2-1.1,2.6-2.6,2.6C257.8,271.6,257.3,271.1,257.3,270.4L257.3,270.4z
			"/>
		<path id="path9639" class="st2" d="M269,273.4c0,1,0.6,1.6,1.6,1.6h1.8c1,0,1.6-0.6,1.6-1.6v-5.2c0-2.1,1-4,3.3-4
			c1.1,0,1.7,0.6,1.7,2v7.2c0,1,0.6,1.6,1.6,1.6h1.8c1,0,1.6-0.6,1.6-1.6v-8.1c0-4.2-2.4-5.6-5.4-5.6c-2.6,0-4.1,1.4-4.8,2.6h-0.1
			c0,0,0-0.2,0-0.4v-0.3c0-1-0.5-1.6-1.6-1.6h-1.6c-1,0-1.6,0.6-1.6,1.6L269,273.4z"/>
	</g>
</g>
</svg>
