<?xml version="1.0" encoding="utf-8"?>
<!-- Generator: Adobe Illustrator 26.0.3, SVG Export Plug-In . SVG Version: 6.00 Build 0)  -->
<svg version="1.0" id="Layer_1" xmlns="http://www.w3.org/2000/svg" xmlns:xlink="http://www.w3.org/1999/xlink" x="0px" y="0px"
	 viewBox="0 0 120.7 78.7" style="enable-background:new 0 0 120.7 78.7;" xml:space="preserve">
<g>
	<g>
		<g>
			<path d="M69.4,35.9c-3.1-0.1-5.7,2.4-5.8,5.5c0,0.1,0,0.3,0,0.4c0.1,3.2,2.7,5.8,5.9,5.7c3.2-0.1,5.8-2.7,5.7-5.9
				C75.2,38.4,72.6,35.9,69.4,35.9z M69.4,44.9c-1.7,0-2.2-1.7-2.2-3.1c0-1.4,0.5-3.1,2.2-3.1s2.2,1.7,2.2,3.1
				C71.6,43.2,71.1,44.9,69.4,44.9z"/>
			<path d="M45.4,35.9c-1.4,0-2.7,0.7-3.5,1.9l0,0v-1.6h-3.5v11.2H42v-6.1c0-1.2,0.6-2.4,2-2.4c2,0,1.8,1.6,1.8,3.1v5.4h3.6v-7.2
				C49.4,38.6,49.1,35.9,45.4,35.9z"/>
			<path d="M18.9,44.8L18.9,44.8c-1.7,0-2.3-1.6-2.3-3.1c0-1.6,0.3-3.4,2.4-3.4c1,0,1.8,0.7,1.8,1.7h3.6c-0.3-3.1-2.8-4.6-5.7-4.6
				c-3.7,0-6,2.7-6,6.4c-0.1,3.2,2.4,5.9,5.5,6c0.2,0,0.3,0,0.5,0c3.1,0,5.4-1.8,5.8-4.9H21C21,43.9,20.1,44.8,18.9,44.8z"/>
			<path d="M58.6,37.4L58.6,37.4c-0.8-1-1.9-1.6-3.2-1.5c-3.1,0-4.6,2.8-4.6,5.7c0,3.1,1.5,6.2,4.9,6.2c1.2,0,2.4-0.6,3-1.6l0,0v1.3
				h3.4V32.1h-3.6L58.6,37.4L58.6,37.4z M56.6,44.9c-1.7,0-2.2-1.7-2.2-3.2c0-1.4,0.6-3,2.2-3l0,0c1.6,0,2.1,1.5,2.1,3.1
				C58.7,43.2,58.4,44.9,56.6,44.9z"/>
			<path d="M80.2,38.2L80.2,38.2v-2h-3.5v11.2h3.6v-5.5c-0.1-1.4,1-2.6,2.4-2.7c0.1,0,0.2,0,0.3,0c0.5,0,0.9,0.1,1.4,0.2v-3.3
				C84.1,36,83.8,36,83.5,36C82.1,35.9,80.7,36.8,80.2,38.2z"/>
			<path d="M31.2,35.9c-3.1-0.1-5.7,2.4-5.8,5.5c0,0.1,0,0.3,0,0.4c0.1,3.2,2.7,5.8,5.9,5.7s5.8-2.7,5.7-5.9
				C37,38.4,34.4,35.9,31.2,35.9z M31.2,44.9c-1.7,0-2.2-1.7-2.2-3.1c0-1.4,0.5-3.1,2.2-3.1s2.2,1.7,2.2,3.1S32.9,44.9,31.2,44.9z"
				/>
			<path d="M98.8,32c-0.1,0-0.1,0-0.2,0c-4.4,0.1-7.9,3.6-7.8,8c0,0.1,0,0.1,0,0.2c0.1,4.4,3.6,7.9,8,7.8c0.1,0,0.1,0,0.2,0
				c4.4,0,7.9-3.6,7.8-8c0-0.1,0-0.1,0-0.2C106.7,35.5,103.1,32,98.8,32z M98.8,47.3c-0.1,0-0.1,0-0.2,0c-4-0.1-7.1-3.3-7.1-7.3l0,0
				c0-0.1,0-0.1,0-0.2c0-4,3.3-7.2,7.3-7.1c0.1,0,0.1,0,0.2,0c4,0.1,7.2,3.3,7.1,7.3c0,0.1,0,0.1,0,0.2
				C106,44.2,102.7,47.3,98.8,47.3z"/>
			<path d="M97.1,38.1c-0.4,0.9,0.9,2,0.9,2l-2.5-1.6l0.8-0.2v-0.7h-3.8l11,7.2v-1.1l-1-0.6c-2.2-1.5-4.5-3.8-4.3-4.4
				c0.1-0.1,0.2-0.1,0.3-0.1h3.9l-2.1,2l0.5,0.5l4.2-3.3h-7C97.7,37.6,97.3,37.8,97.1,38.1z"/>
		</g>
	</g>
</g>
</svg>
