<svg xmlns="http://www.w3.org/2000/svg" viewBox="0 0 2764.55 503.27" xmlns:xlink="http://www.w3.org/1999/xlink">
 <defs>
  <style>
   .cls-1{fill:#22bcb9;}.cls-2{fill:#fff;}.cls-3{fill:#00729f;}
  </style>
 </defs>
 <g id="Layer_2" data-name="Layer 2">
  <g id="Chinese">
   <path class="cls-1" d="M591,503.27,702.52,0s-75.45.56-88.35,1.4c-1.47.1-16.77,1.36-21.94,5.32S582.41,17.85,576.87,25L316.34,354.15c-14.49,18.35-29,34.7-39,42.82-21.85,18.57-43.56,30.94-66.59,39.14S0,503.27,0,503.27Z">
   </path>
   <path class="cls-2" d="M468.55,418.28a46.9,46.9,0,0,1-8.39,16.87,65.44,65.44,0,0,1-20.38,17.58,56.22,56.22,0,0,1-23.28,6.83,62.23,62.23,0,0,1-24.17-3.32,77.79,77.79,0,0,1-23.14-12.76A79.72,79.72,0,0,1,351,423.63a63.94,63.94,0,0,1-9.16-23,56.28,56.28,0,0,1,1-24.4,64.26,64.26,0,0,1,12.28-24,62,62,0,0,1,14.12-13.15,54.14,54.14,0,0,1,17.13-7.7,46.94,46.94,0,0,1,37.55,6.47L407.29,359q-10-4.69-18.65-2.39a28.13,28.13,0,0,0-15,10.32q-5.88,7.46-7.11,14.92a30.41,30.41,0,0,0,1.08,14.54A43.66,43.66,0,0,0,375,409.84,70.23,70.23,0,0,0,386.6,421.4a64.46,64.46,0,0,0,13.48,8.22,42.29,42.29,0,0,0,14.46,3.78,30.58,30.58,0,0,0,14.32-2.4c4.66-1.95,8.94-5.41,12.88-10.37q8.64-11,7.8-21.34t-10.61-19.65l-17.52,22.21-16.45-13,33.27-42.18,54.28,42.81-11.1,14.05-13.16-6.73q2.94,11.9.3,21.45">
   </path>
   <path class="cls-2" d="M551.82,300.2A45,45,0,0,1,548,315.7a65.71,65.71,0,0,1-8.69,14.48L501,378.82l-100.4-79.18,37.26-47.25a79.94,79.94,0,0,1,11.57-12.08,35.85,35.85,0,0,1,12.13-6.84,24.64,24.64,0,0,1,12.83-.5q6.61,1.46,13.63,7c5.07,4,8.4,8.47,9.95,13.43s1.65,10.54.25,16.74q10-7.19,20.28-6.48c6.86.47,13.41,3.18,19.71,8.13A35.12,35.12,0,0,1,549,285.1a32.7,32.7,0,0,1,2.83,15.1m-93.2,9.41,17.63-22.35q4.67-5.91,4.85-11.92c.13-4-1.93-7.68-6.15-11a14.79,14.79,0,0,0-6.78-3.29,11.77,11.77,0,0,0-6.16.61,17.79,17.79,0,0,0-5.58,3.46,40.87,40.87,0,0,0-5,5.31l-16.3,20.66Zm66.31-10.31a17.55,17.55,0,0,0-5.43-6.44c-5.14-4.06-10-5.51-14.46-4.35s-8.63,4.14-12.41,8.93l-19,24.05,27.56,21.72,18.63-23.62a37.31,37.31,0,0,0,4.25-6.68,19.53,19.53,0,0,0,2-6.87,13.88,13.88,0,0,0-1.18-6.74">
   </path>
   <path class="cls-2" d="M642.82,199.05,624.75,222l-28.37-10-29.6,37.55L582.92,275,565.4,297.2,494.94,180.05l17.86-22.64Zm-67.44,5.67-46.81-16.4-.22.28,26.53,42.14Z">
   </path>
   <path class="cls-3" d="M790.89,433.85h51.3V500h-17.1l-2.57-15.39c-6.49,7.53-15.9,18.64-38.3,18.64-29.58,0-56.43-21.2-56.43-64.29,0-33.52,18.64-65.16,60-65,37.62,0,52.5,24.46,53.87,41.39H816c0-4.79-8.72-20.18-26.85-20.18-18.3,0-35.23,12.65-35.23,44.12,0,33.51,18.3,42.24,35.74,42.24,5.64,0,24.46-2.23,29.76-27H790.89Z">
   </path>
   <path class="cls-3" d="M866.3,377.24h62.07C961,377.24,967,401.35,967,412c0,13.51-6.84,25.14-19,29.24,10.09,4.45,15.56,8.21,15.56,31.12,0,18,0,22.4,5.47,24.46V500H940.69C939,494.21,938,487.88,938,475.23c0-16.76-1-23.26-20-23.26h-26.5v48H866.3Zm55.23,54c13.34,0,19.84-4.62,19.84-16.76,0-6.5-2.91-16.07-18-16.07h-32v32.83Z">
   </path>
   <path class="cls-3" d="M1080.05,399h-65.16v25.82h59.86V446.5h-59.86v31.81H1083V500H989.76V377.24h90.29Z">
   </path>
   <path class="cls-3" d="M1121.25,500h-27L1138,377.24h29.59L1210.86,500H1183l-7.87-25.3h-45.31Zm15.4-46.51h31.29L1152.72,405h-.34Z">
   </path>
   <path class="cls-3" d="M1264,500h-25.65V399h-37.11V377.24h99.87V399H1264Z">
   </path>
   <path class="cls-3" d="M1406.65,399H1341.5v25.82h59.85V446.5H1341.5v31.81h68.06V500h-93.2V377.24h90.29Z">
   </path>
   <path class="cls-3" d="M1430.42,377.24h62.07c32.66,0,38.65,24.11,38.65,34.72,0,13.51-6.84,25.14-19,29.24,10.09,4.45,15.56,8.21,15.56,31.12,0,18,0,22.4,5.47,24.46V500H1504.8c-1.71-5.81-2.73-12.14-2.73-24.79,0-16.76-1-23.26-20-23.26h-26.51v48h-25.13Zm55.23,54c13.34,0,19.84-4.62,19.84-16.76,0-6.5-2.91-16.07-18-16.07h-32v32.83Z">
   </path>
   <path class="cls-3" d="M1601.42,377.24h59.68c30.09,0,37.79,18.81,37.79,31.47,0,17.61-9.92,22.57-15.05,25.14,15.05,5.64,19,17.61,19,29.75a35.67,35.67,0,0,1-10.6,25.31c-7,6.84-13.68,11.11-38.82,11.11h-52ZM1626,425.3h30.1c10.09,0,18.12-3.94,18.12-13.68,0-10.09-7.18-13.17-18.81-13.17H1626Zm0,53.52h31.46c12.49,0,19.67-5.47,19.67-18,0-10.77-9.23-14.87-18.47-14.87H1626Z">
   </path>
   <path class="cls-3" d="M1737.19,500h-27L1754,377.24h29.58L1826.79,500h-27.87l-7.87-25.3h-45.31Zm15.39-46.51h31.29L1768.65,405h-.34Z">
   </path>
   <path class="cls-3" d="M1882,500h-25.65V453.68L1814,377.24h30.26l25.48,53.36L1894,377.24h29.07L1882,454Z">
   </path>
   <path class="cls-3" d="M2003.43,500h-27l43.78-122.78h29.59L2093,500h-27.87l-7.87-25.3H2012Zm15.39-46.51h31.3L2034.9,405h-.34Z">
   </path>
   <path class="cls-3" d="M2133.05,500H2107.4V377.24h25.65Z">
   </path>
   <path class="cls-3" d="M2157,377.24h62.07c32.66,0,38.65,24.11,38.65,34.72,0,13.51-6.84,25.14-19,29.24,10.09,4.45,15.56,8.21,15.56,31.12,0,18,0,22.4,5.47,24.46V500h-28.38c-1.71-5.81-2.74-12.14-2.74-24.79,0-16.76-1-23.26-20-23.26h-26.51v48H2157Zm55.23,54c13.34,0,19.84-4.62,19.84-16.76,0-6.5-2.91-16.07-18-16.07h-32v32.83Z">
   </path>
   <path class="cls-3" d="M2306.1,477.79h61.05V500h-86.7V377.24h25.65Z">
   </path>
   <path class="cls-3" d="M2408.53,500h-25.65V377.24h25.65Z">
   </path>
   <path class="cls-3" d="M2507.36,377.24h23.95V500h-25.66l-50.1-87.55h-.34V500h-23.94V377.24h27L2507,462.75h.34Z">
   </path>
   <path class="cls-3" d="M2646.21,399h-65.15v25.82h59.85V446.5h-59.85v31.81h68.06V500h-93.2V377.24h90.29Z">
   </path>
   <path class="cls-3" d="M2688.28,462.23c.17,6.84,3.59,19.84,26,19.84,12.14,0,25.65-2.91,25.65-15.9,0-9.58-9.23-12.15-22.23-15.22l-13.17-3.08c-19.83-4.62-39-9.06-39-36.08,0-13.68,7.36-37.8,47.2-37.8,37.62,0,47.71,24.63,47.88,39.68H2736c-.69-5.47-2.74-18.47-25.14-18.47-9.75,0-21.38,3.59-21.38,14.71,0,9.57,7.87,11.62,13,12.82l29.93,7.35c16.76,4.11,32.15,10.95,32.15,33,0,36.93-37.63,40.18-48.4,40.18-44.8,0-52.5-25.82-52.5-41Z">
   </path>
   <path class="cls-3" d="M902,317.06a115.59,115.59,0,0,1-27.95-12.23,113.4,113.4,0,0,1-22.66-18,114.67,114.67,0,0,1-16.07-20.43,94.62,94.62,0,0,1-10.09-22.15A109.58,109.58,0,0,1,813.2,267.9a111,111,0,0,1-19.58,21.8,146.78,146.78,0,0,1-20.18,14.53,187.64,187.64,0,0,1-25.82,12.83V305.43q33.18-16.59,50.45-43.09a109.06,109.06,0,0,0,16.41-44.8h-64V205.91h65.15c.11-1.25.17-2.57.17-3.93V167.43H833v27.71c0,1.82,0,3.62-.08,5.38s-.15,3.57-.26,5.39h66.52v11.63H831.58c-.34,2.62-.77,5.19-1.28,7.69s-1,5.08-1.62,7.7H840a122.3,122.3,0,0,0,8.12,21.2,117.91,117.91,0,0,0,11,18,107.35,107.35,0,0,0,20.35,20.34,99.31,99.31,0,0,0,22.57,13Z">
   </path>
   <path class="cls-3" d="M975.39,252.25q-.17,7.35-.68,14.28A117.31,117.31,0,0,1,973,279.78a78,78,0,0,1-3.68,12.83,39.47,39.47,0,0,1-6.58,11.11,42.3,42.3,0,0,1-7.69,7.18,68.35,68.35,0,0,1-10.44,6.16V300.47a36.1,36.1,0,0,0,15.22-19.66,51.77,51.77,0,0,0,3-13.68q.58-7.19.59-14.88ZM974,203.69a60.52,60.52,0,0,1-12.14-5.39,32.7,32.7,0,0,1-8.38-7.1,30.9,30.9,0,0,1-5.56-10,63.55,63.55,0,0,1-2.82-13.77h16.58q.35,3.76.86,7.36a30.43,30.43,0,0,0,1.88,7,26.47,26.47,0,0,0,3.59,6.32,16.79,16.79,0,0,0,6,4.79Zm.51,39.67q-12-3.6-19.15-11Q947,223.7,945.13,208h16.58a63.33,63.33,0,0,0,1.12,7.61,34.64,34.64,0,0,0,2.3,7.1,21.57,21.57,0,0,0,3.68,5.64,18.92,18.92,0,0,0,5.73,4.27Zm19-19.33a36.8,36.8,0,0,1-2.22,12,18.26,18.26,0,0,1-4.62,6.59,41.92,41.92,0,0,1-8,5.56V237a17,17,0,0,0,1.71-2.73,12.22,12.22,0,0,0,1-3.43,25,25,0,0,0,.17-6.84Zm25.65-1.71a31.14,31.14,0,0,1-8-5.81A218.41,218.41,0,0,1,979.5,222V208c1.71-1.59,3.33-3.22,4.87-4.87s3.11-3.39,4.7-5.22c-1.71.23-3.41.43-5.12.6s-3.37.32-5,.43v-14a46.43,46.43,0,0,0,5.72-7.19,48.38,48.38,0,0,0,4.71-9.06h17.44a104.52,104.52,0,0,1-8.72,10.86,98.24,98.24,0,0,1-8.38,7.95,60.21,60.21,0,0,0,7.35-.51q1.36-1.89,2.48-3.76c.74-1.26,1.45-2.51,2.14-3.77h17.44q-3.25,4.46-7,8.81t-7.7,8.46a118.28,118.28,0,0,1-12.65,11.63l7.1-.34q3.5-.17,6.92-.51a38.59,38.59,0,0,1-1.71-9.75h12.31a35.91,35.91,0,0,0-.08,4.19,19.62,19.62,0,0,0,.43,3.33c.34,2.86,1.13,5,2.39,6.33ZM1094.92,302q0,8-4.27,11.46a13.63,13.63,0,0,1-5.9,2.56,41.44,41.44,0,0,1-8,.69h-53.7V306.46h49.76a7.27,7.27,0,0,0,4.19-1.11,4.32,4.32,0,0,0,1.63-3.85v-4.79h-93V286.45L993,268.67h74.21a5.51,5.51,0,0,0,3.94-1.46,4.65,4.65,0,0,0,1.53-3.5v-3.08H984.12V250.37h104.82v14q0,7.69-4.28,11.12a14.43,14.43,0,0,1-5.64,2.65,32.21,32.21,0,0,1-7.35.77h-66.35l-3.08,7.52h92.68Zm-87.38-53.86q-7-4.78-9.4-9.58a22.38,22.38,0,0,1-1.88-6.33,55.07,55.07,0,0,1-.52-8.21h9.07a44,44,0,0,0,.34,8.21c.45,2.4,1.25,4,2.39,4.79Zm11.63,0q-7.18-4.28-9.58-9.75a23.09,23.09,0,0,1-1.88-6.41,75,75,0,0,1-.68-8h9.4a39.76,39.76,0,0,0,.35,7.7,11.44,11.44,0,0,0,.94,3.25,7.56,7.56,0,0,0,1.45,2.05Zm1.54-62.42V175.64h11.8q-3.77-2.56-3.93-8.21h18.81a31.54,31.54,0,0,0,0,4.79,6.32,6.32,0,0,0,1.36,3.42h7.7v10.09Zm1.2,13.51v-9.92h33.34v9.92Zm0,13.51v-9.92h33.34v9.92Zm33.34,20.52q0,6.33-3.42,9.4-3.42,3.26-10.26,3.25h-19.66V217h33.34Zm-13.68-6.33h-6V236h2.73a4,4,0,0,0,2.57-.59,3.34,3.34,0,0,0,.68-2.48ZM1099,222.5a42.32,42.32,0,0,1-8-6.16c-3.88.91-8.63,1.91-14.28,3s-11.71,2-18.21,2.65V208c1.6-1.48,3.13-3.05,4.62-4.7s3-3.39,4.61-5.22c-1.59.23-3.19.4-4.78.52l-4.79.34v-14a83.27,83.27,0,0,0,6.41-8.21,32.87,32.87,0,0,0,4-8H1086a78,78,0,0,1-8.63,10.6q-4.55,4.62-8.81,8.21c.91,0,2.05,0,3.42-.08a33.33,33.33,0,0,0,4.1-.43c.92-1.26,1.74-2.51,2.48-3.76s1.46-2.51,2.14-3.77h17.44q-2.91,4.11-6.58,8.38t-7.78,8.38q-3.25,3.26-6.58,6.24t-6.42,5.9q3.6-.17,7.27-.42c2.45-.18,4.82-.37,7.1-.6a28.71,28.71,0,0,1-1.88-9.41h12.14a24.24,24.24,0,0,0,.68,8.72,13.94,13.94,0,0,0,2.91,5.13ZM1073,224a35.71,35.71,0,0,1-2.4,12.32q-2.91,6.84-12.48,11.8V237a9.51,9.51,0,0,0,1.62-2.31,11.78,11.78,0,0,0,1.11-3.85,12.52,12.52,0,0,0,.35-3.07c0-1.14-.06-2.4-.17-3.77Zm14,24.12a35.46,35.46,0,0,1-5.9-4.79,19.64,19.64,0,0,1-3.68-5.3,20.7,20.7,0,0,1-1.79-6.24,61.19,61.19,0,0,1-.43-7.79h9.06a36.14,36.14,0,0,0,.69,8.21,10.29,10.29,0,0,0,2,4.79Zm11.63,0a32.5,32.5,0,0,1-6.67-5.39,17.84,17.84,0,0,1-3.59-5.9,21.11,21.11,0,0,1-1.37-5.73c-.23-2.11-.4-4.47-.52-7.1H1096a35.16,35.16,0,0,0,.51,8.38c.57,2.29,1.31,3.82,2.23,4.62Z">
   </path>
   <path class="cls-3" d="M1146.22,316.72V172.56h148.09v10.95h-131.5V305.77h132.87v11Zm81.4-38.31a17.71,17.71,0,0,1-1.2,6.93,13.31,13.31,0,0,1-3.25,4.7,13.09,13.09,0,0,1-6,3.08,34.86,34.86,0,0,1-8,.85h-32V247h50.45Zm47.88-59q0,6.84-4.1,10.94a15,15,0,0,1-6,3.59,24.7,24.7,0,0,1-7.87,1.2h-68.91V195h86.87Zm-64,38.47h-18.29V283h13c3.54,0,5.3-1.77,5.3-5.3Zm47.71-52.15h-54.37v18.47h47.7a8.1,8.1,0,0,0,5.05-1.29q1.62-1.28,1.62-4.7ZM1287,278.41a17.71,17.71,0,0,1-1.2,6.93,13.31,13.31,0,0,1-3.25,4.7,13.09,13.09,0,0,1-6,3.08,34.86,34.86,0,0,1-8,.85h-32V247H1287Zm-16.08-20.52h-18.3V283h13q5.3,0,5.3-5.3Z">
   </path>
   <path class="cls-3" d="M1406.83,299.79q0,9.75-4.62,13.51a14.54,14.54,0,0,1-5.9,2.65,40.29,40.29,0,0,1-8.46.77h-19.16V305.6h15q6.84,0,6.84-6.32v-51h-25V268q0,13.86-4.45,23.94a50,50,0,0,1-8.81,13.25,79.9,79.9,0,0,1-14.1,11.89V305.77a55.9,55.9,0,0,0,6-10.09,58.78,58.78,0,0,0,3.42-9.74,47,47,0,0,0,1.37-7.87q.35-3.93.34-8.72v-21H1338.6V237h10.77V184.7h17.44a41.3,41.3,0,0,0,2-8.8,53,53,0,0,0,.35-8.47h18.29a41.68,41.68,0,0,1-2.65,9.75,26.35,26.35,0,0,1-4.7,7.52h26.68ZM1390.58,196h-25v41h25Zm-3.76,34.71a22.4,22.4,0,0,1-8.38-5,25.79,25.79,0,0,1-4.79-6.93,23.42,23.42,0,0,1-2.56-7.61,55.18,55.18,0,0,1-.69-9h12.15c0,1.59,0,3.16.08,4.7a39.49,39.49,0,0,0,.43,4.53,16.84,16.84,0,0,0,1.28,4.7,9.93,9.93,0,0,0,2.48,3.51Zm0,55.75a24.53,24.53,0,0,1-8.55-5.81,29.59,29.59,0,0,1-5-7.53,31.56,31.56,0,0,1-2.31-8.63,79.22,79.22,0,0,1-.6-10h12.15v5.22a54.48,54.48,0,0,0,.34,6.07,28.59,28.59,0,0,0,1.19,5.56,7.63,7.63,0,0,0,2.74,4Zm91,30.27a36.27,36.27,0,0,1-7.18-.6,9.24,9.24,0,0,1-4.79-2.48q-2.73-2.91-2.73-9.75V229.68h-22.92V262a144.45,144.45,0,0,1-.94,17.44,40.92,40.92,0,0,1-13.68,26.25,80.44,80.44,0,0,1-16.33,11V305.6A36,36,0,0,0,1417,297a40.64,40.64,0,0,0,4.36-9.49,56.06,56.06,0,0,0,1.8-10.52q.42-5.55.43-11.71V218.56h56.08v82.77q0,4.1,4.28,4.1h8.72v11.29Zm-65.32-117.65V188h34.2a30.61,30.61,0,0,1-5.47-9.32,41.38,41.38,0,0,1-2.57-11.2h17.79a39.32,39.32,0,0,0,.94,11.72,43.08,43.08,0,0,0,3.16,8.8h30.27v11.12Z">
   </path>
   <path class="cls-3" d="M1535.25,316.72V305.6h68.57V269.18h-58.65V258.06h134.06v11.12h-58.65V305.6h68.57v11.12ZM1669.14,213.6v-20h-30.27v32c0,1.6.46,2.68,1.37,3.25a6.33,6.33,0,0,0,3.42.86h39v11.11h-41.72q-11,0-15.39-5-3.26-3.75-3.25-10.94V193.6h-67v20h-16.59V182.48h70.79a27.56,27.56,0,0,1-5.21-7.18,19.15,19.15,0,0,1-2.14-7.87h18.81a41.39,41.39,0,0,0,.85,8.3,13.71,13.71,0,0,0,3.25,6.75h60.71V213.6Zm-64.81-10.94a55.23,55.23,0,0,1-7.35,18,42.32,42.32,0,0,1-11.63,11.8,56.69,56.69,0,0,1-19.24,8.13,182,182,0,0,1-23.85,3.67V233.1a143.42,143.42,0,0,0,20-4.53,39.93,39.93,0,0,0,13.85-7.27q7.7-6.17,10.26-18.64Z">
   </path>
  </g>
 </g>
</svg>