<svg version="1.1" id="Layer_1" xmlns="http://www.w3.org/2000/svg" xmlns:xlink="http://www.w3.org/1999/xlink" x="0px" y="0px" viewBox="0 0 692 184.8" style="enable-background:new 0 0 692 184.8;" xml:space="preserve">
 <style type="text/css">
  .st0{fill-rule:evenodd;clip-rule:evenodd;fill:#E30613;}
	.st1{fill-rule:evenodd;clip-rule:evenodd;fill:#164194;}
 </style>
 <polygon class="st0" points="527,133.8 555.5,133.8 562.2,112.8 533.8,112.8 ">
 </polygon>
 <path class="st1" d="M341.3,155.3c-7.7,0-12.3,5.9-12.4,13.2s3.8,14.2,11.8,14.4s12.8-5.5,13-13.2c0.1-3.5-0.5-7.3-2.7-10.1
	C348.6,156.7,345,155.1,341.3,155.3L341.3,155.3z M586.4,175.9c-0.1-2.9-0.8-5.2-3.8-6.3v-0.1c3.8-0.7,5-5.4,4.2-8.6
	c-0.9-3.9-4.9-4.8-8.4-4.9h-11.6v26.1h3.5v-11h7.5c2.4,0,4.2,0.9,4.7,3.3c0.4,2-0.1,4.2,0.4,6.2c0.1,0.6,0.4,1.1,0.8,1.5h3.7
	C586.2,180.5,586.5,178,586.4,175.9L586.4,175.9z M540.5,156l-9.8,26.1h3.8l2.5-6.8h11l2.5,6.8h3.8l-9.8-26.1H540.5z M478.1,156
	l-9.9,26.1h3.8l2.5-6.8h11l2.5,6.8h3.8l-9.8-26.1H478.1z M424.7,155.2c-7.7,0-12.2,5.9-12.4,13.2s3.8,14.2,11.8,14.4
	s12.8-5.5,13-13.2c0.1-3.5-0.5-7.3-2.7-10.1C432,156.7,428.4,155.1,424.7,155.2L424.7,155.2z M652.9,170.1h13.7v-2.9h-13.7V159h15.1
	v-3h-18.6v26.1h19v-2.9h-15.5V170.1z M681.9,166.9c-1.8-0.3-4.2-0.7-5.6-2s-1-4,0.4-5.2c3.3-2.9,10.5-1.9,11,3.1h3.5
	c-0.6-7.1-9-8.9-14.7-6.8c-2.9,0.9-4.8,3.6-4.8,6.7c-0.2,2.3,1.1,4.5,3.3,5.5c2.9,1.3,6.1,1.7,9.2,2.6s5.3,3.4,3.5,6.5
	c-1.5,2.7-5.4,2.9-8.1,2.4c-3-0.6-5.3-2.7-5.3-5.9h-3.5c0.2,3.8,2,7,5.7,8.3c3.5,1.2,8.6,1.2,11.9-0.7s4.4-6.5,2.8-9.9
	S685.1,167.5,681.9,166.9L681.9,166.9z M639.7,176.7L625.7,156h-3.9v26.1h3.5v-20.7l13.9,20.7h3.8V156h-3.5L639.7,176.7L639.7,176.7
	z M612,182.1h3.5V156H612V182.1L612,182.1z M595.8,156h-3.5v26.1h16.8v-2.9h-13.3V156z M578.4,168.1h-8V159h7.3
	c2.7,0,5.4,0.9,5.7,3.9c0.3,2.6-1.5,4.9-4.1,5.2C579,168.2,578.7,168.2,578.4,168.1L578.4,168.1z M557.1,182.1h3.5V156h-3.5V182.1z
	 M537.8,172.4l4.5-12.8l4.5,12.8H537.8z M512.5,176.7L498.6,156h-3.9v26.1h3.5v-20.7l13.9,20.7h3.8V156h-3.5L512.5,176.7
	L512.5,176.7z M475.5,172.4l4.5-12.8l4.5,12.8L475.5,172.4z M461.8,182.1h3.5V156h-3.5V182.1z M445.5,156H442v26.1h16.8v-2.9h-13.2
	V156z M431,177.3c-3.6,3.9-10.7,3.5-13.5-1.2c-2.5-4.3-2.3-11.5,1-15.4c3.4-4.1,10.6-3.2,13.2,1.3
	C434.2,166.2,434.4,173.6,431,177.3L431,177.3z M397.8,171.5h7.5c-0.1,4.8-3,8.5-8,8.5s-8-3.9-8.7-8.7c-0.6-4.4,0.2-10.1,4.7-12.2
	c4.2-2,10.9-0.7,11.3,4.7h3.5c-0.8-6.5-7-9.1-12.9-8.4s-9.7,5.2-10.4,11c-0.6,5.4,0.6,11.9,5.6,14.9c4.9,2.9,12.6,2.1,15.2-3.4h0.1
	v4.2h2.7v-13.6h-10.6L397.8,171.5L397.8,171.5z M376.4,176.7L362.5,156h-3.9v26.1h3.5v-20.7l13.9,20.7h3.8V156h-3.5L376.4,176.7
	L376.4,176.7z M347.6,177.3c-3.6,3.9-10.7,3.5-13.5-1.2c-2.6-4.3-2.3-11.5,1-15.4c3.4-4.1,10.6-3.2,13.2,1.3
	C350.8,166.2,351,173.6,347.6,177.3L347.6,177.3z M310.6,177.5l-8.1-21.5h-5.2v26.1h3.5v-20.9l-0.1-1h0.1l8.5,21.9h2.8l8.5-21.9h0.1
	l-0.1,1v20.9h3.5V156h-5.2L310.6,177.5z">
 </path>
 <path class="st1" d="M597.9,22.1v21.8h33.9V134h26.4V43.8H692V22.1H597.9z M542.1,51.2l27.4,82.8h28L555.4,22.1h-26.7L486.8,134
	h27.8L542.1,51.2z M475.5,22.1h-26.4V134h26.4C475.5,134,475.5,22.1,475.5,22.1z M323.1,54h0.5l28,80h17.9l28-80h0.5v80h26.4V22.1
	h-37.1L360.6,99l-26.8-76.9h-37.1V134h26.4L323.1,54z">
 </path>
 <path class="st1" d="M120.6,22.9c-2.4,0.4-4.8,1.1-7.1,2.1c-1.9,0.8-3.7,2-5.3,3.4c-1.7,1.5-2.9,3.3-4.8,4.7c-5.3,4-15.8,4.4-20-1.4
	c0.3-0.5,0.9-1.4,0.9-1.4c3.2,3.3,8.4,4.1,12.7,3.3c3.5-0.5,6.6-2.4,8.8-5.2c0.7-0.9,1.4-1.7,2.3-2.4c0.7-0.6,1.6-1.2,2.4-1.7
	c0.6-0.3,2.3-0.6,2.2-1.4H7.8c0.5,2.3-0.4,5.4-3,6H0l2,8h9.8l-5.9,6.1l5.8,6c2-3.4,5.6-5.7,9.6-6.1c5.8-0.3,10.6,3.7,14.3,7.8
	c3.5,3.8,5.2,9.1,10.1,11.5c5.7,2.8,11.9,1.3,16.2-3.2c1.9,2,3.5,4.1,4.9,6.5c1.7,2.6,3.3,5.2,4.6,8c2.6,5.4,4.4,11,5.6,16.8
	c2.8,13.8,0.1,27.7-5.5,40.4c-0.8,8.4,0.6,16.8,4,24.6c2.6,5.9,6.4,10.6,10.9,15.2c4.8,5,9.8,10.1,15.4,14.2
	c0.6-0.4,26.9-23.2,59.6-51.6h-6.4c-2.1-0.2-3.7-2-3.6-4.1H166c8.9-7.7,18.1-15.7,27.3-23.7h-49.9l-3.7-5.1h57.7
	c1.2-0.1,2.4-0.6,3.3-1.4l24.1-20.9h-96.3l-3.6-5h104c2.5-0.2,4.4-2.3,6.3-3.9l8.3-7.2l13.7-11.9l-152.2,0l-3.5-4.9h158.6
	c2.9-0.3,5.4-2.4,7.5-4.2l7.1-6.2c4.6-4,9.1-8,13.7-11.9L120.6,22.9L120.6,22.9z M61.6,18.9c0,0.7,1-0.3,1-0.5
	c0.2-0.4,0.2-0.9,0.4-1.3c0.8-1.2,1.9-2.1,3.2-2.7c3.4-1.6,6.4-0.5,10-0.6c3.7-0.1,7.4-1.6,9.3-5c0.7-1.2,1.3-2.4,1.8-3.6
	c0.5-1.2,1.7-3,1.6-4.3c-3.3,2.1-7.2,2.9-11,2.3c-2-0.4-3.5-1.5-5.4-2.2c-2.3-1-4.9-1.2-7.4-0.5c-2.8,1-4.9,3.2-5.9,6
	c-0.7,2.2-0.8,4.5-0.1,6.7C59.8,15.1,61.6,16.8,61.6,18.9L61.6,18.9z M50.1,28.1c2.3,0.4,4.8,2,7.3,4.2c-2,1.5-4.6,0.1-6.3-0.5
	c-0.9-0.4-3.9,1.5-4.2-0.1C46.4,29.5,47.9,28.1,50.1,28.1z">
 </path>
</svg>