<svg xmlns="http://www.w3.org/2000/svg" height="800" width="1200" viewBox="-15 -31.6515 130 189.909"><path d="M22.2 105.552h9.406l-4.701-4.699zm47.914 20.416l4.699-4.699h-9.399zM51.246 3.446c-21.934 0-39.717 17.782-39.717 39.719 0 21.933 17.783 39.713 39.717 39.713 21.932 0 39.715-17.78 39.715-39.713C90.96 21.228 73.177 3.446 51.246 3.446z" fill="#FEE407"/><path d="M97.453 124.263v-21.001s1.145-1.676 2.547-2.215H88.464s1.879.805 2.615 1.945v21.416l-.673.858s-1.743-1.876-4.356-5.503c-2.617-3.621-12.752-18.717-12.752-18.717h-8.785c.938.537 1.41 1.607.873 2.55-.535.942-13.084 20.53-13.084 20.53s-4.359-19.123-4.561-20.127c-.201-1.01-.201-2.082 2.146-2.953H38.952v.672l-11 17.509-12.276-18.515H4.74l2.35 1.673s-3.642 18.518-3.989 19.78c-.203.756-2.267 3.604-3.089 3.604 0 .02-.012.234-.012.234h9.728l-.019-.258c-1.203 0-2.42-1.422-2.017-3.233.403-1.811 3.823-17.374 3.823-17.374s9.394 13.955 11.941 17.509c1.475 1.944 5.031 3.959 5.031 3.959l13.33-21.29s3.51 15.991 3.812 17.501c.297 1.509-1.277 2.918-2.451 2.918v.229h16s-.032-.229 0-.229c-.737 0-1.965-1.185-1.076-2.667.89-1.482 11.492-18.544 11.492-18.544s11.242 17.972 11.982 19.245c.736 1.275-.721 2.247-1.617 2.247v.239h19.84v-.223c-.753-.047-2.346-1.769-2.346-1.769zM11.214 25.288c1.731.121 4.268 1.422 4.947 6.557.68 5.132 2.475 9.52 5.442 13.044 2.967 3.524 3.956 2.532 8.097 5.129 2.348 1.469 14.379 7.573 19.723 12.676 2.439 2.325.681 2.162 3.34 5.067 2.662 2.914 6.615 5.197 6.615 5.197s5.834 7.754 10.943 13.418c6.598 7.313 12.738 12.365 16.508 12.918l-1.914-7.049s-3.093.498-5.07-1.23c-1.913-1.676-5.379-4.822-5.379-4.822s-.744-1.922-1.916-5.01c-1.176-3.092-3.957-7.979-5.442-8.104 0 0 1.793-5.195 1.485-11.373 0 0 4.168.854 8.467-.127 5.662-1.289 5.878-5.256 5.136-8.531 1.603-.307 5.562-1.67 5.007-5.379-.332-2.221-1.73-7.48-.931-9.025 0 0-3.466 1.749-5.164 4.613-1.506 2.561-1.263 6.267-1.263 6.267s-1.483-2.163-6.43-3.955c-4.287-1.555-8.844.187-8.844.187s1.188.972 3.094 2.41c2.533 1.916 1.24 1.859 3.024 3.894 3.094 3.526 6.806 2.907 9.03 1.86 0 0 .578 3.373-1.381 4.218-2.531 1.083-7.891-.449-9.562-2.121-2.287-6.864-7.293-9.896-10.322-10.819.245-2.537 1.791-4.082 5.129-3.771 1.742.162 8.225 1.361 12.984.188 4.762-1.178 5.255-4.145 5.255-4.145s-4.021 0-5.067-1.111c3.398-.559 14.713-1.854 16.254-14.285 0 0-3.416 2.157-6.485 1.672 9.892-6.679 8.347-19.91 8.347-19.91s-3.095 3.09-8.656 7.541c-5.567 4.453-14.81 9.648-19.664 10.945-5.428 1.455-6.551.312-14.403 2.102-6.608 1.511-9.705 4.763-9.705 8.102 0 3.833 2.284 6.553 2.284 6.553s-2.335-1.824-3.833-4.822c-2.163-4.326-1.021-7.469 4.112-10.188 6.539.277 7.278-1.809 7.278-1.809s-4.312.051-4.728-1.668c0 0 1.109-.233 3.061-.789 1.948-.555 5.334-2.131 5.562-3.848 0 0-3.569.971-8.393.74l1.902-2.966s-5.844 2.04-6.166.647l2.227-1.113s-.886-.692-2.877-1.807c-1.992-1.113-4.729-1.113-5.703-.836-.976.276-1.112.465-2.133-.092-1.018-.554-1.346-1.482-.791-2.229.557-.74 1.256-.93 2.504-1.623 1.254-.695 1.719-2.502.883-3.659A262.368 262.368 0 0035.408 0s-.325.974-.094 1.578c0 0-1.114-.045-1.81.278 0 0 .912.442 1.346 1.341.648 1.346-1.854 2.459-2.83 3.25-1.348 1.092-1.482 2.271-1.482 2.271s-3.617-1.809-4.543-4.127c.184 6.027 4.588 7.697 4.588 7.697s0 2.18.233 3.666l5.192.508s-.277 1.716-1.389 1.716c-1.115 0-2.043-.14-3.25-1.019 0 0-.602 2.547-1.712 4.035 0 0 1.481-.436 2.597-.436 1.346 0 2.054.959 1.037 2.645-.935 1.54-2.244 2.538-4.578 2.129-3.215-.553-5.563 0-8.779 3.403 0 0-2.348-3.771-2.348-6.679l-11.378-.185s-2.535 6.559-4.08 7.916l7.234-.742c-1.98-3.713.122-4.08 1.852-3.957zM35.45 13.536a.916.916 0 111.832 0 .916.916 0 01-1.832 0z" fill="#015396"/></svg>