<svg id="Layer_1" data-name="Layer 1" xmlns="http://www.w3.org/2000/svg" xmlns:xlink="http://www.w3.org/1999/xlink" viewBox="0 0 618 116.32"><defs><linearGradient id="linear-gradient" x1="0.55" y1="305.63" x2="88.18" y2="305.63" gradientTransform="matrix(0.66, 0, 0, -0.66, 74.75, 615.26)" gradientUnits="userSpaceOnUse"><stop offset="0" stop-color="#00aacb"/><stop offset="0.25" stop-color="#00a7c8"/><stop offset="0.46" stop-color="#009ebe"/><stop offset="0.64" stop-color="#008ead"/><stop offset="0.82" stop-color="#017895"/><stop offset="0.98" stop-color="#015c77"/><stop offset="1" stop-color="#015973"/></linearGradient><linearGradient id="linear-gradient-2" x1="0.64" y1="391.12" x2="87.98" y2="391.12" gradientTransform="matrix(0.66, 0, 0, -0.66, 74.75, 615.26)" gradientUnits="userSpaceOnUse"><stop offset="0" stop-color="#d5dd26"/><stop offset="0.24" stop-color="#d2db27"/><stop offset="0.43" stop-color="#c8d429"/><stop offset="0.61" stop-color="#b7c82e"/><stop offset="0.78" stop-color="#9fb834"/><stop offset="0.94" stop-color="#81a33b"/><stop offset="1" stop-color="#72993f"/></linearGradient><linearGradient id="linear-gradient-3" x1="86.4" y1="332.93" x2="100.15" y2="356.75" gradientTransform="matrix(0.66, 0, 0, -0.66, 74.75, 615.26)" gradientUnits="userSpaceOnUse"><stop offset="0" stop-color="#00aacb"/><stop offset="0.19" stop-color="#00a2c2"/><stop offset="0.49" stop-color="#008baa"/><stop offset="0.87" stop-color="#016782"/><stop offset="1" stop-color="#015973"/></linearGradient><linearGradient id="linear-gradient-4" x1="75.75" y1="357.72" x2="113.37" y2="357.72" gradientTransform="matrix(0.66, 0, 0, -0.66, 74.75, 615.26)" gradientUnits="userSpaceOnUse"><stop offset="0" stop-color="#72993f"/><stop offset="0.06" stop-color="#81a33b"/><stop offset="0.22" stop-color="#9fb834"/><stop offset="0.39" stop-color="#b7c82e"/><stop offset="0.57" stop-color="#c8d429"/><stop offset="0.76" stop-color="#d2db27"/><stop offset="1" stop-color="#d5dd26"/></linearGradient></defs><title>SalamAir logo - Brandlogos.net</title><g id="layer1"><g id="g110"><g id="g40"><g id="g28"><path id="path12" d="M654.18,426.81a42.2,42.2,0,0,1-11.73,0,2.94,2.94,0,0,1-.55-2.18V389.69a31.31,31.31,0,0,1,1.64-10.1,20.72,20.72,0,0,1,9-10.92,38.34,38.34,0,0,1,12.28-4.09,80.6,80.6,0,0,1,11.46-.55,34.31,34.31,0,0,1,9,1.36,19,19,0,0,1,3.55,1.36c4.64,2.46,5.46,6.82,2.18,10.64-.27.27-.55.27-.82.55-.55-.27-1.09-.27-1.64-.55a32.36,32.36,0,0,0-11.46-3,41.83,41.83,0,0,0-11.73.82c-5.73,1.09-9.82,4.91-10.37,12v36.29A14.39,14.39,0,0,0,654.18,426.81Z" transform="translate(-75 -325.84)" style="fill:#72993f"/><path id="path14" d="M618.43,426.53c-.82-1.64-.55-2.73-.55-4.09V368.68c.27-3.55,1.91-5.46,5.46-5.73,1.64,0,3.55-.27,5.18.55,1.64.55,1.64.82,1.91,2.46v56.49c0,4.09,0,4.09-3.82,4.09h-8.19Z" transform="translate(-75 -325.84)" style="fill:#72993f"/><path id="path16" d="M601,426.53h-3.55a1.73,1.73,0,0,1-1.64-1.36c-.55-1.64-1.36-3.55-1.91-5.18-1.64-4.64-3.27-9.28-4.64-13.92l-.82-2.46c-1.09-3.27-3.55-4.64-6.82-4.91H555.12a16,16,0,0,0-3.55.55,6.19,6.19,0,0,0-4.37,3.82c-.27.82-.55,1.36-.82,2.18-2.18,6-4.09,12-6.28,18-1.09,3.55-.82,3.27-4.91,3.27h-3.82a3.69,3.69,0,0,1-3.27-4.91c.27-1.09.82-2.18,1.09-3.27,8.19-21,16.37-42,24.83-63L558.94,343a21.65,21.65,0,0,1,1.09-2.46,9.34,9.34,0,0,1,16.1.55,8.17,8.17,0,0,1,1.09,2.73C587,369,596.87,394.33,607,419.71a7.27,7.27,0,0,1,.82,3.27,3.73,3.73,0,0,1-3.55,4.09,6.92,6.92,0,0,0-3.27-.55h0Zm-33.84-35.75h10.64a3.92,3.92,0,0,0,3.55-4.09,5.06,5.06,0,0,0-.55-1.91c-3.55-9.55-7.09-19.1-10.37-28.65l-.82-1.64a2.29,2.29,0,0,0-3.82,0,13.3,13.3,0,0,0-.82,1.91c-3.55,9.28-7.09,18.83-10.64,28.11a11.6,11.6,0,0,0-.55,3,3.85,3.85,0,0,0,2.73,3h1.91C561.4,390.78,564.13,390.78,567.13,390.78Z" transform="translate(-75 -325.84)" style="fill:#72993f"/><path id="path18" d="M419.5,403.34V386.42a20.57,20.57,0,0,1,3.27-11.19c2.73-4.91,7.09-7.64,12.28-9.28a32.19,32.19,0,0,1,10.1-1.36A27.93,27.93,0,0,1,454.7,366a21.32,21.32,0,0,1,10.1,6c2.46,2.73,3.82,2.18,6,0a23.16,23.16,0,0,1,16.37-7.09,36.66,36.66,0,0,1,13.37,1.36c7.37,2.46,12.28,7.09,14.19,14.46a23.26,23.26,0,0,1,.82,6.28v36.29a2.17,2.17,0,0,1-2.46,2.46h-8.46c-1.64,0-1.91-.27-1.91-1.91V391.88a23,23,0,0,0-1.09-7.37,9.81,9.81,0,0,0-4.91-6c-5.73-3.27-13.64-2.73-18.56,1.91-2.46,2.18-3.55,4.91-4.09,8.19a53,53,0,0,0-.55,6.55v26.74c0,3.82-.55,4.09-4.09,4.09h-6.28c-1.91,0-2.18-.27-2.18-2.18V397.06a66.49,66.49,0,0,0-.27-7.37c-.82-6-3.55-10.1-9.55-12a15.84,15.84,0,0,0-11.73.55c-4.37,1.91-6.55,5.73-7.09,10.37a61.67,61.67,0,0,0-.27,7.09v26.2c0,4.37,0,4.37-4.37,4.37h-6c-1.36,0-1.91-.55-2.18-2.18V403.34h0Z" transform="translate(-75 -325.84)" style="fill:#72993f"/><path id="path20" d="M356.74,378.51c-4.37-3.55-3.82-8.73.82-11.19a21.18,21.18,0,0,1,9-2.46,100.54,100.54,0,0,1,12.83,0A29.24,29.24,0,0,1,393,368.68c6.82,3.55,10.1,9.55,10.92,16.92a26.48,26.48,0,0,1,.27,4.64v31.65c0,3.82,0,3.82-4.09,4.09l-9.82.82h-1.36c-6,0-12,.27-18,0a40,40,0,0,1-13.64-3.27,12.63,12.63,0,0,1-4.91-3.55,14.09,14.09,0,0,1-3.27-5.18,21.84,21.84,0,0,1,.27-15c1.09-3.27,3.27-5.46,6.28-7.37a25.89,25.89,0,0,1,10.1-3.27,49.9,49.9,0,0,1,9-.55,125.74,125.74,0,0,1,14.19.55c2.73.27,3.27-.27,2.73-3-1.09-6.28-4.64-10.1-11.19-10.92a41.3,41.3,0,0,0-14.19,0,20.58,20.58,0,0,0-6.55,2.18A13.3,13.3,0,0,0,356.74,378.51Zm34.66,38.2c0-.27.27-.55.27-.82V400.34a1.8,1.8,0,0,0-1.64-1.91c-1.91-.27-4.09-.55-6-.82H373.65a25.26,25.26,0,0,0-6.28,1.09,9.54,9.54,0,0,0-6.28,11.73,7.68,7.68,0,0,0,4.64,5.73,23,23,0,0,0,4.64,1.36,55.26,55.26,0,0,0,17.74,0,5.82,5.82,0,0,0,3.27-.82Z" transform="translate(-75 -325.84)" style="fill:#72993f"/><path id="path22" d="M335.72,424.9a3.65,3.65,0,0,1-1.36.27h-9.55c-1.36,0-1.64-.27-1.64-1.64V346.31c0-1.36.27-2.73.27-4.09.27-2.18,1.91-3.27,3.82-3.82a11.65,11.65,0,0,1,6.82.27c1.36.55,1.64.82,1.91,2.18v80.23A18,18,0,0,0,335.72,424.9Z" transform="translate(-75 -325.84)" style="fill:#72993f"/><path id="path24" d="M294.25,389.42c.82-4.91-1.09-9.82-5.46-12a13.44,13.44,0,0,0-4.64-1.64,39.83,39.83,0,0,0-13.92-.55,28.45,28.45,0,0,0-9.28,3c-.55.27-.82.27-1.36.55-3.55-2.73-4.09-7.64-.55-10.37a10.08,10.08,0,0,1,3.82-1.91,23.67,23.67,0,0,1,7.64-1.36h10.64a29.2,29.2,0,0,1,11.73,2.46c4.09,1.64,7.91,4.09,10.37,7.91a20.93,20.93,0,0,1,3.82,12c.27,4.09,0,8.46,0,12.55V423.8c0,1.36-.55,1.91-2.18,2.18a33.44,33.44,0,0,1-5.18.55,171.53,171.53,0,0,1-26.47.55,37,37,0,0,1-13.1-3.27c-6.28-3-9.28-7.91-9.28-14.46a28.8,28.8,0,0,1,.55-6.82,15,15,0,0,1,7.37-9.82,30,30,0,0,1,9.55-3,76.83,76.83,0,0,1,11.19-.55c3.82,0,7.64-.27,11.46.55A17,17,0,0,1,294.25,389.42Zm0,27.56a6.09,6.09,0,0,0,.82-3.55v-13.1c-.27-1.36-.55-1.64-1.64-1.91-2.18-.27-4.09-.55-6.28-.82h-9.28a37,37,0,0,0-5.46.55c-4.91,1.09-8.46,4.09-8.19,10.64a8.68,8.68,0,0,0,4.09,6.82A16.69,16.69,0,0,0,271.6,417a30,30,0,0,0,8.46,1.09,62.64,62.64,0,0,0,10.1-.55A21.06,21.06,0,0,0,294.25,417Z" transform="translate(-75 -325.84)" style="fill:#72993f"/><path id="path26" d="M176.09,407.16A13.3,13.3,0,0,1,178,408a50.6,50.6,0,0,0,17.74,6,41.65,41.65,0,0,0,8.19.82,42.8,42.8,0,0,0,11.73-1.09,18.19,18.19,0,0,0,5.73-2.46c5.46-3.82,6.28-13.64-.55-17.46-2.73-1.64-5.73-2.18-8.73-3-6.28-1.09-12.55-2.18-18.56-3.55a35.4,35.4,0,0,1-10.64-3.82c-3.27-1.91-6.28-4.09-8.19-7.37a17.19,17.19,0,0,1-2.73-8.19,25.1,25.1,0,0,1,.55-9,20.61,20.61,0,0,1,9.28-12.55,34.4,34.4,0,0,1,11.46-4.37,55.11,55.11,0,0,1,13.37-.82A54.28,54.28,0,0,1,220,342.48a29.77,29.77,0,0,1,10.64,4.09,18.79,18.79,0,0,1,3.55,3,5.56,5.56,0,0,1,1.36,5.73,11.1,11.1,0,0,1-3.82,5.46,1,1,0,0,0-.82-.27c-4.64-3.55-9.82-5.46-15.28-6.82a49.88,49.88,0,0,0-14.19-1.09c-2.46.27-4.91.82-7.37,1.09a3.88,3.88,0,0,0-1.64.55c-5.18,2.18-7.64,6-6.82,11.46a8.89,8.89,0,0,0,3.27,5.73,31.11,31.11,0,0,0,5.18,2.73,54.07,54.07,0,0,0,9.55,2.18c5.73,1.09,11.46,2.18,17.19,3.55A36.07,36.07,0,0,1,232,384.51c5.73,3.55,8.46,8.73,8.73,15.28a22,22,0,0,1-2.18,11.73A23,23,0,0,1,225.75,423a41.72,41.72,0,0,1-13.1,3c-1.64,0-3.55.55-5.18.55a74.68,74.68,0,0,1-28.93-5.46c-1.36-.55-2.73-1.36-4.09-1.91-2.18-1.09-3.55-2.73-2.18-6.28A14,14,0,0,1,176.09,407.16Z" transform="translate(-75 -325.84)" style="fill:#72993f"/></g><g id="g38"><path id="path30" d="M402.85,353.4a16.16,16.16,0,0,0-1.64,1.09,9.17,9.17,0,0,1-3.82,1.36,62.36,62.36,0,0,1-10.1,0,8,8,0,0,1-2.46-.55,3.12,3.12,0,0,1-1.91-2.18,2.54,2.54,0,0,1,1.36-3c1.36.27,2.73,1.36,4.37.82.82-.82.55-1.64.55-2.46V337.57a13.29,13.29,0,0,1,.27-3.27c.27-1.36.82-1.91,2.18-1.91a5.4,5.4,0,0,1,2.73.55c0,.55.27,1.36.27,2.46v13.37c0,1.91.82,2.46,2.73,2.18a3.18,3.18,0,0,0,2.73-2.73,16.78,16.78,0,0,0,.27-3.82V328c.27-1.36.82-2.18,2.18-2.18h1.36c.27,0,.82.27,1.09.27.55,1.09.27,2.18.27,3.55v15a9.28,9.28,0,0,0,.27,2.73,3.61,3.61,0,0,0,3.55,3.55h33.29a7.55,7.55,0,0,0,2.46-.27,3.5,3.5,0,0,0,3.27-3,7.55,7.55,0,0,0,.27-2.46V337a1.17,1.17,0,0,1,1.09-1.09,5.43,5.43,0,0,1,3.55.27c0,.55.27,1.36.27,2.18v6.82a13.7,13.7,0,0,0,.55,3.27,3.32,3.32,0,0,0,3.55,2.46c1.64,0,3-.55,3.55-2.18a11.6,11.6,0,0,0,.55-3V337.3a1.29,1.29,0,0,1,1.36-1.36h3a2.75,2.75,0,0,1,.82,2.18v6.28a18,18,0,0,0,.27,3.82,3.81,3.81,0,0,0,3.55,3c1.91,0,3.27-.55,3.82-2.18a7.55,7.55,0,0,0,.27-2.46v-9a1.17,1.17,0,0,1,1.09-1.09,6.14,6.14,0,0,1,3.82.27c0,.55.27,1.36.27,2.18v8.46c.27,2.73,1.36,4.09,4.09,4.09h12c2.73,0,3.82-1.36,4.09-3.82v-19.1a2,2,0,0,1,2.18-2.18h1.64a1.17,1.17,0,0,1,1.09,1.09v21.83c0,3-2.73,5.73-5.73,6.28a20.65,20.65,0,0,1-4.09.27h-8.73c-3.27,0-6.82-.27-9.55-2.73-2.18,1.36-4.37,2.46-6.82,2.46a9.78,9.78,0,0,1-6.55-2.46c-4.64,3.55-9,3.55-13.1.27h-.55a13.39,13.39,0,0,1-8.46,2.46h-7.91c-6.82,0-13.37,0-20.19.27h-1.91c-2.46,0-5.73-.27-8.46-2.73Z" transform="translate(-75 -325.84)" style="fill:#007c96"/><path id="path32" d="M363.83,340.3c.27-.27.27-.27.55-.27,2.73-4.37,7.09-4.64,11.46-3.82,3.82.82,5.46,3.55,5.46,6.28v6.82a6.5,6.5,0,0,1-6,6.28,18.29,18.29,0,0,1-5.46,0c-3.27-.55-5.46-2.46-6-5.73-.27-.82,0-1.64-.27-2.18a3.87,3.87,0,0,0-5.18-3,3.93,3.93,0,0,0-2.46,3,9.15,9.15,0,0,0,0,2.73v3.55c0,1.64-.55,1.91-2.18,2.18h-1.09c-1.36,0-1.91-.55-1.91-1.91a61.49,61.49,0,0,1,0-7.09c.27-3.82,2.46-6,6-7.09a11.08,11.08,0,0,1,5.18,0A5.33,5.33,0,0,1,363.83,340.3Zm5.18,5.46a7.56,7.56,0,0,0,.27,2.46,3.6,3.6,0,0,0,6.82.55,11.2,11.2,0,0,0,0-6,3.6,3.6,0,0,0-6.82.55A7.56,7.56,0,0,0,369,345.76Z" transform="translate(-75 -325.84)" style="fill:#007c96"/><path id="path34" d="M514.19,355.58a7.56,7.56,0,0,1-4.91,0c0-.55-.27-1.36-.27-1.91V328.84a3,3,0,0,1,4.64-2.18c.27.27.55.55.55.82v25.65a3.79,3.79,0,0,1,0,2.46Z" transform="translate(-75 -325.84)" style="fill:#007c96"/><path id="path36" d="M623.89,356.4,616.52,349a.51.51,0,0,1,0-.82l7.37-7.37a.51.51,0,0,1,.82,0l7.37,7.37a.51.51,0,0,1,0,.82l-7.37,7.37A.51.51,0,0,1,623.89,356.4Z" transform="translate(-75 -325.84)" style="fill:#007c96"/></g></g><g id="g108"><path id="path57" d="M103.23,384.51c0,.55.27.82.82,1.09l16.65,16.65a37.93,37.93,0,0,1,7.37,11.19,57.15,57.15,0,0,1,3.55,9.55c.27.82.27,1.91.55,3a24.57,24.57,0,0,1,.82,4.37,40.71,40.71,0,0,1,.55,5.73V441a1.64,1.64,0,0,1-.27,1.09c-.55.27-.82-.27-1.09-.55l-7.64-7.64-17.19-17.19c-4.09-4.09-8.19-8.46-12.55-12.55L76.21,385.6c-.27-.27-1.09-.55-.55-1.09a11.73,11.73,0,0,1,3.27-.55,73,73,0,0,1,13.37-.27A25,25,0,0,1,97,384,48.72,48.72,0,0,1,103.23,384.51Z" transform="translate(-75 -325.84)" style="fill:url(#linear-gradient)"/><path id="path74" d="M103.23,384.51c-1.91-.27-4.09-.55-6-.82a28.06,28.06,0,0,0-4.64-.27c-4.64,0-9-.27-13.64.55a19.12,19.12,0,0,0-3.82.82c-.27-.27,0-.27,0-.27l4.37-4.37a52.39,52.39,0,0,1,4.09-3.82c1.36-1.36,2.73-3,4.37-4.37l2.46-2.46c2.18-2.18,4.37-4.37,6.28-6.55l9.28-9.28,15.55-15.55,9.82-9.82.27-.27c.27-.27.55-.55.82-.27.27,0,.55.55.55.82v2.73c0,2.73,0,5.46-.27,8.19a63.46,63.46,0,0,1-1.36,7.64,53.41,53.41,0,0,1-3.27,9.28,43.22,43.22,0,0,1-10.37,13.92l-13.92,13.92C103.5,384.24,103.23,384.24,103.23,384.51Z" transform="translate(-75 -325.84)" style="fill:url(#linear-gradient-2)"/><path id="path87" d="M150.16,384.24c.27,0,.27.27.55.27a.51.51,0,0,1,0,.82,25.73,25.73,0,0,0-2.73,2.73L143.07,393l-4.37,4.37c-.82.82-1.36.82-2.18,0-3.82-3.82-7.91-7.64-11.73-11.73-.27-.27-.82-.82,0-1.09,1.91.27,3.82-.55,5.73-1.09l5.73-1.64a17.45,17.45,0,0,1,11.19.82c.82.27,1.36.82,2.18,1.09h0C149.89,384.24,149.89,384.24,150.16,384.24Z" transform="translate(-75 -325.84)" style="fill:url(#linear-gradient-3)"/><path id="path104" d="M149.89,384c-.82-.27-1.36-.82-2.18-1.09a17.45,17.45,0,0,0-11.19-.82l-5.73,1.64a21.26,21.26,0,0,1-5.73,1.09,12.94,12.94,0,0,1,2.73-2.73c3-3.27,6.28-6.28,9.55-9.55.82-.82.82-.82,1.36,0,3.55,3.82,7.09,7.37,10.92,10.92C149.62,383.69,149.89,383.69,149.89,384Z" transform="translate(-75 -325.84)" style="fill:url(#linear-gradient-4)"/><path id="path106" d="M150.16,384.24a.27.27,0,0,1-.27-.27A.27.27,0,0,0,150.16,384.24Z" transform="translate(-75 -325.84)" style="fill:#b5ca30"/></g></g></g></svg>