<?xml version="1.0" encoding="utf-8"?>
<!-- Generator: Adobe Illustrator 27.8.0, SVG Export Plug-In . SVG Version: 6.00 Build 0)  -->
<svg version="1.0"
	 id="katman_1" image-rendering="optimizeQuality" text-rendering="geometricPrecision" shape-rendering="geometricPrecision"
	 xmlns="http://www.w3.org/2000/svg" xmlns:xlink="http://www.w3.org/1999/xlink" x="0px" y="0px" viewBox="0 0 497.11 363.89"
	 style="enable-background:new 0 0 497.11 363.89;" xml:space="preserve">
<style type="text/css">
	.st0{opacity:0.974;fill-rule:evenodd;clip-rule:evenodd;fill:#006936;enable-background:new    ;}
	.st1{opacity:0.988;fill-rule:evenodd;clip-rule:evenodd;fill:#006936;enable-background:new    ;}
	.st2{opacity:0.952;fill-rule:evenodd;clip-rule:evenodd;fill:#006936;enable-background:new    ;}
	.st3{opacity:0.976;fill-rule:evenodd;clip-rule:evenodd;fill:#006936;enable-background:new    ;}
	.st4{opacity:0.975;fill-rule:evenodd;clip-rule:evenodd;fill:#006936;enable-background:new    ;}
	.st5{opacity:0.983;fill-rule:evenodd;clip-rule:evenodd;fill:#006936;enable-background:new    ;}
	.st6{opacity:0.973;fill-rule:evenodd;clip-rule:evenodd;fill:#006936;enable-background:new    ;}
	.st7{opacity:0.946;fill-rule:evenodd;clip-rule:evenodd;fill:#006936;enable-background:new    ;}
	.st8{opacity:0.977;fill-rule:evenodd;clip-rule:evenodd;fill:#006936;enable-background:new    ;}
	.st9{opacity:0.97;fill-rule:evenodd;clip-rule:evenodd;fill:#006936;enable-background:new    ;}
	.st10{opacity:0.984;fill-rule:evenodd;clip-rule:evenodd;fill:#006936;enable-background:new    ;}
	.st11{opacity:0.972;fill-rule:evenodd;clip-rule:evenodd;fill:#006936;enable-background:new    ;}
</style>
<g>
	<path class="st0" d="M248.29,47.6c1.63,2.16,2.61,4.6,2.96,7.34c2.95-2.54,6.32-3.32,10.12-2.33c-1.76,0.87-3.2,2.12-4.3,3.76
		c12.59-1.32,22.44,3.22,29.56,13.61c-0.09,0.18-0.21,0.21-0.36,0.09c-7.18-5.16-15.18-7.37-24-6.63
		c13.23,3.25,20.9,11.58,23.02,24.99c-4.37-5.21-9.29-9.77-14.78-13.7c-1.59-1.09-3.26-1.99-5.02-2.69c6,7.44,8.24,15.88,6.72,25.35
		c-2.38-8.4-6.86-15.45-13.43-21.14c1.26,6.39,1.5,12.84,0.72,19.35c-0.23,1.89-0.62,3.74-1.16,5.55
		c-1.45-5.88-3.21-11.68-5.28-17.38c-1.14-3.05-2.69-5.86-4.66-8.42c-1.97,2.69-3.52,5.61-4.66,8.78
		c-2.02,5.59-3.76,11.27-5.19,17.02c-2.06-8.32-2.21-16.62-0.45-24.9c-6.57,5.67-11.02,12.71-13.34,21.14
		c-1.6-9.48,0.64-17.93,6.72-25.35c-3.2,1.46-6.19,3.32-8.96,5.55c-3.94,3.22-7.52,6.81-10.75,10.75
		c1.41-11.46,7.62-19.34,18.63-23.64c1.4-0.53,2.83-0.94,4.3-1.25c-4.25-0.52-8.43-0.16-12.54,1.07c-4.25,1.26-8.19,3.14-11.82,5.64
		c3.6-5.83,8.67-9.98,15.23-12.45c4.69-1.48,9.47-1.9,14.33-1.25c-1.1-1.65-2.53-2.94-4.3-3.85c3.71-0.95,7.06-0.24,10.03,2.15
		C246.1,52.22,246.99,49.83,248.29,47.6z"/>
	<path class="st1" d="M143.14,87.55c32.96,6.44,65.89,13.01,98.79,19.7c0.51,10.77,0.89,21.51,1.16,32.24
		c-10.34-5.33-21.03-9.84-32.06-13.52c-11.6-3.8-23.42-4.7-35.47-2.69c7.18,0.21,14.29,1.05,21.32,2.51
		c8.53,2.42,16.77,5.59,24.72,9.49c6.26,3.13,12.41,6.45,18.45,9.94c-9.82,6.08-19.8,11.93-29.91,17.55
		c1.63,2.02,3.36,3.96,5.19,5.82c0.18,0.12,0.36,0.12,0.54,0c9.13-5.9,18.35-11.67,27.67-17.29c0.77,16.97,1.4,33.93,1.88,50.87
		c-9.96-11.01-19.96-21.99-30-32.96c-3.08,2-6.34,3.71-9.76,5.11c-6.72,2.17-13.52,2.53-20.42,1.07c-2.44-0.63-4.89-1.22-7.34-1.79
		c11.66-0.55,22.22-4.19,31.71-10.93c-22.3-24.52-44.55-49.09-66.72-73.71C142.71,88.44,142.8,87.96,143.14,87.55z"/>
	<path class="st1" d="M352.54,87.55c1.25-0.27,1.76,0.21,1.52,1.43c-22.31,24.52-44.55,49.09-66.72,73.71
		c9.46,6.78,20.03,10.42,31.71,10.93c-3.78,1.01-7.61,1.84-11.46,2.51c-7.81,0.75-15.15-0.74-22.03-4.48
		c-1.37-0.81-2.75-1.61-4.12-2.42c-9.98,10.99-19.95,21.98-29.91,32.96c-0.06-0.33-0.12-0.66-0.18-0.99
		c0.62-16.63,1.31-33.26,2.06-49.89c9.27,5.69,18.5,11.46,27.67,17.29c0.18,0.12,0.36,0.12,0.54,0c1.69-1.94,3.42-3.86,5.19-5.73
		c-10.1-5.7-20.07-11.58-29.91-17.64c11.43-6.91,23.43-12.67,36-17.29c4.48-1.61,9.08-2.75,13.79-3.4
		c4.88-0.62,9.77-1.04,14.69-1.25c-11.85-1.98-23.49-1.15-34.93,2.51c-11.22,3.73-22.08,8.29-32.6,13.7
		c0.21-10.75,0.6-21.49,1.16-32.24C287.53,100.67,320.04,94.1,352.54,87.55z"/>
	<path class="st2" d="M149.59,212.76h7.34v7.34c-2.45,0-4.9,0-7.34,0C149.59,217.65,149.59,215.2,149.59,212.76z"/>
	<path class="st3" d="M163.92,212.76h7.17v7.34c-2.39,0-4.78,0-7.17,0C163.92,217.65,163.92,215.2,163.92,212.76z"/>
	<path class="st4" d="M335.34,212.76h7.34c0.03,11.94,0,23.88-0.09,35.83c-2.3,2.3-4.6,4.6-6.9,6.9
		c-25.79,0.09-51.59,0.12-77.38,0.09c0.03,2.39,0,4.78-0.09,7.17c-2.36,2.36-4.72,4.72-7.08,7.08c-7.16,0.09-14.33,0.12-21.5,0.09
		c0-2.45,0-4.9,0-7.34h21.32c0.03-4.6,0-9.2-0.09-13.79c-2.24,2.24-4.48,4.48-6.72,6.72c-4.84,0.09-9.67,0.12-14.51,0.09
		c-0.03-7.22,0-14.45,0.09-21.67c2.3-2.3,4.6-4.6,6.9-6.9c7.22-0.09,14.45-0.12,21.67-0.09v21.32h4.12c-0.03-4.72,0-9.43,0.09-14.15
		c2.36-2.36,4.72-4.72,7.08-7.08c7.16-0.09,14.33-0.12,21.5-0.09v7.34c-7.11,0-14.21,0-21.32,0v13.97h25.61c0-7.11,0-14.21,0-21.32
		h7.34v21.32h6.81c0-7.11,0-14.21,0-21.32h7.34v21.32h6.99c0-7.11,0-14.21,0-21.32h7.34v21.32h4.12
		C335.34,236.4,335.34,224.58,335.34,212.76z M237,234.25h13.97v13.97c-4.66,0-9.31,0-13.97,0C237,243.56,237,238.91,237,234.25z"/>
	<path class="st0" d="M346.98,212.76h7.34v42.81c-2.45,0-4.9,0-7.34,0C346.98,241.3,346.98,227.03,346.98,212.76z"/>
	<path class="st5" d="M149.59,226.91h21.5v21.32h14.15c0-7.11,0-14.21,0-21.32h7.17c0.03,7.22,0,14.45-0.09,21.67
		c-2.3,2.3-4.6,4.6-6.9,6.9c-7.16,0.09-14.33,0.12-21.5,0.09c0.03-2.27,0-4.54-0.09-6.81c-2.24,2.24-4.48,4.48-6.72,6.72
		c-4.9,0.09-9.79,0.12-14.69,0.09c-0.03-7.17,0-14.33,0.09-21.5C144.91,231.71,147.27,229.32,149.59,226.91z M149.77,234.25h14.15
		v14.15c-4.72,0-9.43,0-14.15,0C149.77,243.68,149.77,238.97,149.77,234.25z"/>
	<path class="st6" d="M203.86,226.91h21.5c0.03,7.22,0,14.45-0.09,21.67c-2.3,2.3-4.6,4.6-6.9,6.9c-7.22,0.09-14.45,0.12-21.67,0.09
		c0-2.45,0-4.9,0-7.34h21.32c0-4.66,0-9.31,0-13.97c-4.72,0-9.43,0-14.15,0C203.86,231.8,203.86,229.35,203.86,226.91z"/>
	<path class="st7" d="M170.9,262.55h7.34v7.34c-2.45,0-4.9,0-7.34,0C170.9,267.45,170.9,265,170.9,262.55z"/>
	<path class="st3" d="M185.23,262.55h7.17v7.34c-2.39,0-4.78,0-7.17,0C185.23,267.45,185.23,265,185.23,262.55z"/>
	<path class="st8" d="M282.5,273.3h7.34v42.81c-2.45,0-4.9,0-7.34,0c0.03-2.33,0-4.66-0.09-6.99c-2.3,2.3-4.6,4.6-6.9,6.9
		c-4.78,0.09-9.55,0.12-14.33,0.09c-0.03-7.22,0-14.45,0.09-21.67c2.3-2.3,4.6-4.6,6.9-6.9c4.78-0.09,9.55-0.12,14.33-0.09
		C282.5,282.73,282.5,278.02,282.5,273.3z M268.35,294.79h14.15v13.97c-4.72,0-9.43,0-14.15,0
		C268.35,304.11,268.35,299.45,268.35,294.79z"/>
	<path class="st9" d="M293.96,273.3h7.34v7.17c-2.45,0-4.9,0-7.34,0C293.96,278.08,293.96,275.69,293.96,273.3z"/>
	<path class="st3" d="M169.47,280.29h21.67v7.34c-7.11,0-14.21,0-21.32,0v6.99h21.32c0.03,4.78,0,9.55-0.09,14.33
		c-2.36,2.36-4.72,4.72-7.08,7.08c-7.16,0.09-14.33,0.12-21.5,0.09c0-2.45,0-4.9,0-7.34h21.32c0-2.33,0-4.66,0-6.99
		c-7.11,0-14.21,0-21.32,0c-0.03-4.84,0-9.67,0.09-14.51C164.91,284.97,167.21,282.64,169.47,280.29z"/>
	<path class="st10" d="M202.43,287.45h21.5v28.66c-2.39,0-4.78,0-7.17,0c0.03-2.33,0-4.66-0.09-6.99c-2.3,2.3-4.6,4.6-6.9,6.9
		c-4.78,0.09-9.55,0.12-14.33,0.09c-0.03-7.22,0-14.45,0.09-21.67C197.87,292.13,200.17,289.8,202.43,287.45z M202.61,294.79h14.15
		v13.97c-4.72,0-9.43,0-14.15,0C202.61,304.11,202.61,299.45,202.61,294.79z"/>
	<path class="st6" d="M228.22,287.45h7.34v21.32h13.97c0-7.11,0-14.21,0-21.32h7.34c0.03,7.17,0,14.33-0.09,21.5
		c-2.36,2.36-4.72,4.72-7.08,7.08c-7.16,0.09-14.33,0.12-21.5,0.09C228.22,306.56,228.22,297,228.22,287.45z"/>
	<path class="st9" d="M293.96,287.45h7.34v28.66c-2.45,0-4.9,0-7.34,0C293.96,306.56,293.96,297,293.96,287.45z"/>
	<path class="st11" d="M312.59,287.45h21.67v28.66c-2.45,0-4.9,0-7.34,0c0.03-2.33,0-4.66-0.09-6.99c-2.3,2.3-4.6,4.6-6.9,6.9
		c-4.78,0.09-9.55,0.12-14.33,0.09c-0.03-7.22,0-14.45,0.09-21.67C308.03,292.13,310.33,289.8,312.59,287.45z M312.95,294.79h13.97
		v13.97c-4.66,0-9.31,0-13.97,0C312.95,304.11,312.95,299.45,312.95,294.79z"/>
</g>
</svg>
