<svg version="1.1" id="Layer_1" xmlns="http://www.w3.org/2000/svg" xmlns:xlink="http://www.w3.org/1999/xlink" x="0px" y="0px" viewBox="0 0 102.9 45.1" style="enable-background:new 0 0 102.9 45.1;" xml:space="preserve">
 <style type="text/css">
  .st0{fill:#E01F27;}
	.st1{fill-rule:evenodd;clip-rule:evenodd;fill:#E01F27;}
	.st2{fill:#FCD20A;}
	.st3{fill:#FCD800;}
	.st4{fill:#F8A81B;}
	.st5{fill:#F9BB16;}
	.st6{fill:#F9B517;}
	.st7{fill:#FAC113;}
	.st8{fill:#F7A11C;}
	.st9{fill:#F7991D;}
	.st10{fill:#F9BD15;}
	.st11{fill:#F9A81A;}
	.st12{fill:#F79A1D;}
 </style>
 <g>
  <path class="st0" d="M49.3,36.9c-0.2,0.7-0.7,1.5-1.1,1.5c-0.3,0-0.4-0.2-0.4-0.6c0.1-0.6,2.1-6.3,2.5-7.2c0.1-0.2-0.4-0.4-0.8-0.4
		c-0.1,0-0.2,0-0.3,0.2c-0.1,0.5-0.6,1.8-0.9,2.8c0,0-0.3-0.3-0.7-0.3c-1.8,0-3.1,2.5-3.4,4.1c-0.3,0.8-1.3,1.9-2.2,1.9
		c-0.7,0-0.9-0.4-0.8-1c0.2-1,0.5-1.6,0.5-1.6s0.1,0.5,0.7,0.5c1.1,0,1.8-1.4,2.1-2.9c0.2-1.1-0.4-1.4-0.9-1.4c-1.2,0-2.9,3-3.2,5
		c-0.3,1.5,0.6,2.3,1.6,2.3c0.9,0,1.6-0.6,2.1-1.3c0.1,0.5,0.5,1,1.2,1c0.6,0,1.3-0.8,1.5-1.2h0c-0.1,0.5,0.2,0.9,0.8,0.9
		c1,0,1.8-1.3,1.9-1.9C49.7,36.9,49.3,36.9,49.3,36.9 M43.2,33.4c0.1-0.2,0.2-0.2,0.2-0.2c0.1,0,0.1,0.1,0.1,0.5
		c-0.2,1.1-0.8,2.4-1.3,2.4c-0.3,0-0.3-0.3-0.3-0.3C42.2,35,42.8,34.1,43.2,33.4 M45.2,38.7c-0.3,0-0.2-0.5-0.2-0.8
		c0.3-1.7,1.6-4.4,2.6-4.4c0.2,0,0.2,0.2,0.2,0.4c-0.1,0.4-0.4,0.9-0.6,1.3c0.1,0.2,0.2,0.2,0.4,0.2C47.4,35.9,45.9,38.7,45.2,38.7">
  </path>
  <path class="st0" d="M65,32.9c-0.3,0-0.5,0.1-0.5,0.1c0-0.1-0.1-0.2-0.3-0.3c-0.9,0.2-2.1,2.2-2.4,3.7c-0.3,1.3,0,2.9,1.4,2.9
		c1.8,0,2.8-2.8,3.1-4.1C66.5,34,66.4,32.9,65,32.9 M65.4,34.7c-0.1,0.7-1.1,3.8-2.4,3.8c-0.6,0-0.7-0.7-0.5-1.6
		c0.1-0.4,0.2-0.8,0.2-0.8l0.4,0.1c0.2-0.7,1.3-2.7,2-2.7C65.7,33.5,65.5,34.4,65.4,34.7">
  </path>
  <path class="st0" d="M70.8,32.9c-0.1-0.1-0.3-0.1-0.6-0.1c-0.2,0-0.4,0-0.7,0.1l0.4-0.9c0.1-0.1-0.6-0.6-0.8-0.4
		c-0.2,0.1-0.5,0.7-0.9,1.5c-0.7,0.1-1.4,0.3-1.5,0.4c-0.2,0.1,0.1,0.8,0.5,0.7l0.6-0.1c-0.6,1.3-1.1,2.7-1.2,3.4
		c-0.2,1.2,0.4,2,1.3,2c0.9,0,2.3-0.9,2.5-1.7c0.1-0.7-0.4-0.6-0.4-0.6c-0.2,0.6-1.4,1.5-2.2,1.5c-0.3,0-0.4-0.2-0.4-0.5
		c0.2-1.1,0.9-2.7,1.6-4.2c0.7-0.1,1.5-0.2,2.1-0.2c0.2,0,0.2-0.1,0.2-0.2L71.1,33C71,32.9,70.8,33,70.8,32.9">
  </path>
  <path class="st0" d="M78.4,32.7c0.7-0.4,3.3-1.2,3.3-0.9c0,0.1-0.6,0.6-0.6,0.7c0,0.1,0,0.1,0.1,0.1c0.3,0,1.5-0.7,1.6-1.3
		c0-0.1-0.4-0.6-0.6-0.6c-1.4-0.1-5.1,0.9-5.2,1.6c0,0.1,0.2,0.6,0.3,0.6c0.9,0,3,1.5,2.6,3.8c-0.2,1.3-1.4,2-2.7,2
		c-0.8,0-1.1-0.6-1-1c0.1-0.6,0.7-1.2,1-1.5c0-0.3-0.3-0.4-0.7-0.4c-0.6,0-1.1,0.8-1.2,1.3c-0.2,1.1,0.7,2.4,2.4,2.4
		c1.3,0,2.8-0.8,3.1-2.3C81.4,34.6,79,33,78.4,32.7">
  </path>
  <path class="st0" d="M85.1,32.9c-0.4,0-0.9,0.2-1.4,0.7l0.1-0.3c0-0.1-0.4-0.4-0.7-0.4c-0.4,0-1.2,2.5-1.5,3.9
		c-0.8,2.2-2.7,7.9-2.5,8c0.2,0.1,0.8,0.3,0.9,0.2c0.1,0,0.1,0,0.2-0.2c0.2-0.5,1.6-5.3,1.9-6.3l0.1-0.2c0.1,0.5,0.4,0.9,1.1,0.9
		c1.8,0,2.8-2.8,3.1-4.1C86.6,34,86.6,32.9,85.1,32.9 M85.6,34.7c-0.2,0.7-1.1,3.8-2.4,3.8c-0.6,0-0.7-0.7-0.5-1.6
		c0.1-0.4,0.2-0.8,0.2-0.8l0.3,0.1c0.3-0.7,1.3-2.7,2.1-2.7C85.9,33.5,85.6,34.4,85.6,34.7">
  </path>
  <path class="st0" d="M88.7,32.9c0.9,0,1.3-0.7,1.3-1.1c0.1-0.3-0.1-0.5-0.3-0.6c0.2-0.4,0-0.4-0.4-0.4c-0.7,0-1,1-1.1,1.3
		C88.2,32.7,88.5,32.9,88.7,32.9">
  </path>
  <path class="st0" d="M50.5,39.2c0.9,0,1.3-0.7,1.3-1.1c0.1-0.3-0.1-0.4-0.3-0.5c0.2-0.4,0-0.4-0.4-0.4c-0.7,0-1,1-1.1,1.3
		C50,39,50.3,39.2,50.5,39.2">
  </path>
  <path class="st0" d="M71.5,39.6c0.9,0,1.3-0.7,1.3-1.1c0.1-0.3-0.1-0.4-0.3-0.5c0.2-0.4,0-0.4-0.4-0.4c-0.7,0-1,1-1.1,1.3
		C71,39.4,71.3,39.6,71.5,39.6">
  </path>
  <path class="st0" d="M97.3,39.6c0.9,0,1.3-0.7,1.3-1.1c0.1-0.3-0.1-0.4-0.3-0.5c0.2-0.4,0-0.4-0.4-0.4c-0.7,0-1,1-1.1,1.3
		C96.7,39.4,97,39.6,97.3,39.6">
  </path>
  <path class="st0" d="M97.2,32.9c-0.5,0-1.4,3.3-1.6,3.8c-0.2,0.5-1,1.7-1.5,1.7c-0.2,0-0.3-0.3-0.2-0.6c0.2-1.4,0.9-2.9,1.6-4.2
		c0-0.3-0.4-0.5-0.6-0.5c-0.2,0-0.3,0-0.4,0.1c-0.6,1.1-1.2,2.2-1.5,3.4h0c-0.2,0.7-1.3,2.2-2.4,2.2c-0.6,0-0.9-0.3-0.7-1.4
		c0.3-1.8,1.3-3.6,2-3.6c0.2,0,0.2,0.1,0.2,0.3c-0.1,0.8-0.7,1.2-0.7,1.2l0,0.1c-0.1,0.3,0.1,0.6,0.5,0.6c0.5,0,1.1-0.5,1.3-1.6
		c0.1-0.6-0.5-1.2-1.2-1.2c-1.7,0-3,2.5-3.2,3.9c-0.1,0.5-0.6,1.7-1.4,1.7c-0.2,0-0.4-0.2-0.3-0.6c0.1-0.9,1.2-3.2,1.8-4.5
		c0.2-0.4-1-0.4-0.9-0.4c-0.1,0-0.2,0-0.3,0.1c-0.4,0.8-1.5,3.5-1.8,4.7c-0.2,0.9,0.2,1.4,0.9,1.4c1,0,1.6-0.5,2-1.1
		c0.2,0.8,0.9,1.3,1.8,1.3c1,0,1.7-0.6,2.2-1.1c0.1,0.3,0.4,0.6,1,0.6c0.5,0,0.9-0.4,1.1-0.7c-0.2,0.9-1.8,5.4-1.9,5.8
		c0,0.2,0,0.2,0.1,0.3c0.2,0.1,0.6,0.3,0.8,0.3l0.2-0.1c0.2-1.2,2-6.6,2.4-7.8c0.4-1.1,1.2-2.3,1.4-3.4C98,33.1,97.6,32.9,97.2,32.9
		">
  </path>
  <path class="st0" d="M39.7,37.9c-0.5-0.7-1.1-1.4-1.6-2.1c1.6-0.2,2.8-1.1,3.1-2.5c0.2-1.3-1-2.4-2.7-2.6c0,0-0.4,0-1.1,0
		c-1.9,0.2-2.5,1.4-2.5,1.4c0,0.2,0.7,0.5,0.8,0.5l0.1,0c0.2-0.4,0.6-0.8,1.3-1.1c-0.7,1.8-3,8.1-3.7,10.4c0,0.2,0.1,0.4,0.3,0.4
		c0.6,0.1,0.8-0.3,0.8-0.3l0.3-1l1.8-5.3h0c0.6,0.6,1.8,2.2,2.5,3.2c0.1,0.2,0.4,0.4,0.7,0.2c0.1-0.1,0.3-0.2,0.3-0.2
		c0.2-0.2,0-0.5,0-0.5L39.7,37.9z M38.2,31.4l0.2,0c1.1,0,1.9,0.6,1.7,1.5c-0.3,1.5-1.6,2.1-3.3,2.1C37.3,33.7,37.8,32.4,38.2,31.4">
  </path>
  <path class="st0" d="M62.1,30.3c-0.3,0-0.4,0.2-0.4,0.3c-0.5,0.9-1,2.4-1.5,3.9l-0.2-0.2c-0.1-0.1-1.2,0-2.4,0.2
		c0.4-0.9,0.7-1.8,1.1-2.7l0,0l0.1-0.1l0,0c0.1-0.2,0.2-0.4,0.2-0.6c0-0.2-0.1-0.3-0.3-0.4l-0.2,0h0c-0.2,0-0.3,0.1-0.4,0.1
		c-0.5,0.9-1.1,2.4-1.7,4c-0.7,0.1-1.3,0.3-1.4,0.3c-0.2,0.1,0.1,0.8,0.5,0.7l0.6-0.1c-0.5,1.4-2.2,7.8-2.4,8.9
		c0.1,0.1,1,0.6,1.1,0.2c0.2-1.2,2-7.7,2.5-9.3c1-0.1,2-0.3,2.7-0.3c-0.3,1-0.6,2-0.9,2.9c0,0-0.3,0.9-0.2,1c0.1,0.1,1,0.5,1.1,0.2
		c0.3-1.6,1.8-6,2.9-8.7C62.7,30.4,62.4,30.3,62.1,30.3">
  </path>
  <path class="st0" d="M42.4,10.6c-0.3-0.8-0.3-2.1-1.7-2c-1.4,0-2,0.9-2,2.1c0,1.8,4.5,2.1,4.8,5.7c0.2,2.2-1.9,5.7-6.1,5.8
		c-1.7,0-3.8-0.8-3.9-4.4l3-0.6c0,0.9,0,2.5,1.7,2.5c1.3,0,2-1.3,2.1-2.2c0.2-2.3-4.8-2.9-4.7-5.8c0-2.7,1.8-5.5,5.9-5.4
		c4.1,0,3.6,3.7,3.6,3.7L42.4,10.6z">
  </path>
  <path class="st1" d="M48.6,12.9L47,19.3c0.4,0.6,0.8,0.9,1.4,0.8c0.4,0,0.7-0.1,1.1-0.5c0.3-0.4,0.7-1.1,1-2.3l0.6-2.5
		c0.3-1.1,0.3-1.9,0.2-2.3c-0.2-0.4-0.4-0.6-0.8-0.5C49.9,12,49.3,12.3,48.6,12.9 M46.6,10.2h2.4l-0.4,1.4h0
		c0.3-0.4,0.8-0.7,1.4-1.1c0.6-0.3,1.2-0.5,1.8-0.5c1,0,1.7,0.4,1.9,1.2c0.3,0.8,0.2,1.9-0.2,3.4L53,17.5c-0.4,1.5-0.9,2.7-1.5,3.4
		c-0.7,0.8-1.5,1.2-2.5,1.2c-0.3,0-0.7-0.1-1-0.3c-0.4-0.2-0.8-0.5-1.3-1L45,27.4h-2.7L46.6,10.2z">
  </path>
  <path class="st1" d="M69.7,14.3H67l0.1-0.5c0.1-0.5,0-0.8-0.2-1c-0.2-0.2-0.6-0.4-1-0.4c-0.5,0-0.9,0.1-1.2,0.4
		c-0.3,0.2-0.6,0.6-0.7,1l-1.2,4.6c-0.1,0.5-0.1,0.8,0.2,1c0.2,0.2,0.6,0.3,1,0.3c0.5,0,0.9-0.1,1.2-0.3c0.3-0.2,0.6-0.6,0.7-1
		l0.2-0.7h2.7l0,0c-0.4,1.5-1.1,2.7-2,3.4c-0.9,0.7-2,1.1-3.4,1c-1.3,0-2.3-0.3-2.8-1c-0.6-0.7-0.6-1.8-0.3-3.4l0.8-3.3
		c0.4-1.5,1.1-2.7,2-3.4c0.9-0.7,2-1.1,3.4-1.1c1.3,0,2.2,0.3,2.8,1C69.9,11.7,70,12.8,69.7,14.3">
  </path>
  <path class="st1" d="M79.1,16.7h-5.8L73,18.3c-0.1,0.6-0.1,1,0.1,1.3c0.2,0.3,0.6,0.4,1,0.4c0.6,0,1-0.2,1.3-0.5
		c0.3-0.3,0.5-0.7,0.7-1.2h2.7c-0.4,1.2-1,2.2-1.9,2.8c-0.9,0.7-2,1-3.3,1c-1.3,0-2.2-0.4-2.8-1.1c-0.6-0.7-0.7-1.7-0.4-3l1-3.8
		c0.3-1.3,1-2.3,1.9-3c0.9-0.7,2-1.1,3.3-1.1c1.3,0,2.2,0.4,2.8,1.1c0.6,0.7,0.7,1.7,0.5,2.9L79.1,16.7z M73.9,14.5H77l0.2-0.6
		c0.1-0.5,0.1-0.9-0.1-1.2c-0.2-0.3-0.5-0.4-1.1-0.4c-0.5,0-1,0.2-1.3,0.4c-0.3,0.3-0.5,0.7-0.7,1.2L73.9,14.5z">
  </path>
  <path class="st1" d="M95,16.7h-5.8l-0.4,1.5c-0.1,0.6-0.1,1,0.1,1.3c0.2,0.3,0.6,0.4,1,0.4c0.6,0,1-0.2,1.3-0.5
		c0.3-0.3,0.5-0.7,0.6-1.2h2.6c-0.4,1.2-1,2.2-1.9,2.8c-0.9,0.7-2,1-3.3,1c-1.3,0-2.2-0.4-2.8-1.1c-0.6-0.7-0.7-1.7-0.4-3l1-3.8
		c0.3-1.3,1-2.3,1.9-3c0.9-0.7,2-1.1,3.3-1.1c1.3,0,2.2,0.4,2.8,1.1c0.6,0.7,0.7,1.7,0.5,2.9L95,16.7z M89.8,14.5h3.1l0.2-0.6
		c0.1-0.5,0.1-0.9-0.1-1.2c-0.2-0.3-0.5-0.4-1.1-0.4c-0.5,0-1,0.2-1.3,0.4c-0.3,0.3-0.6,0.7-0.7,1.2L89.8,14.5z">
  </path>
  <path class="st1" d="M98,12.9h-1.4l0.5-2.2h1.4l1-4.1h2.7l-1,4.1h1.7l-0.6,2.2h-1.7l-1.5,6c-0.1,0.3,0,0.5,0.2,0.6
		c0.2,0.1,0.5,0.2,0.8,0.2c0.2,0,0.4,0,0.5,0l-0.6,2.3c-0.5,0.1-1,0.1-1.5,0.1c-0.9,0-1.5-0.2-1.9-0.5c-0.4-0.4-0.5-1-0.3-1.8
		L98,12.9z">
  </path>
  <path class="st0" d="M81.3,18.3l1.9-7.5l1-4.1h2.7l-1,4.1l-3.2,12.4c-0.4,1.5-1.1,2.6-2,3.4c-0.9,0.7-2,1.1-3.4,1.1
		c-1.3,0-2.3-0.3-2.8-1.1c-0.6-0.7-0.6-1.8-0.3-3.4l2.7,0l-0.2,0.7c-0.1,0.5-0.1,0.8,0.2,1c0.2,0.2,0.6,0.4,1,0.4
		c0.5,0,0.9-0.1,1.2-0.4c0.3-0.2,0.6-0.6,0.7-1l0.2-0.9L81.3,18.3z">
  </path>
  <polygon class="st1" points="57.1,10.2 59.7,10.2 56.8,21.9 54.1,21.9 	">
  </polygon>
  <polygon class="st1" points="60,9.2 57.4,9.2 58,6.7 60.6,6.7 	">
  </polygon>
  <g>
   <path class="st2" d="M27,15.9c-0.8,0.8-1.9,1-2.3,0.5c-0.5-0.5-0.2-1.6,0.6-2.3c0.8-0.8,1.9-1,2.3-0.6C27.9,14,27.7,15.2,27,15.9">
   </path>
   <path class="st3" d="M30.2,15.8c-0.6,0.6-1.3,0.9-1.7,0.5c-0.4-0.3-0.2-1.1,0.3-1.8c0.6-0.6,1.4-0.9,1.7-0.6
			C30.9,14.3,30.7,15.2,30.2,15.8">
   </path>
   <path class="st4" d="M16.8,11.9c-1.1-0.2-2.5,0.1-3.5,1.1c-1.1,1-1.8,2.5-1.4,3.7c0.2,0.5,0.9,0.9,1.4,1c1.1,0,2.3-0.5,3.2-1.2
			c0.9-0.8,1.4-2.1,1.4-2.9c0-0.2,0-0.3,0-0.5C17.7,12.4,17.2,12,16.8,11.9">
   </path>
   <path class="st5" d="M22.6,16.1c-1.1,1-2.6,1.4-3.2,0.8c-0.6-0.6-0.2-2.1,0.8-3.1c1-1,2.5-1.3,3.1-0.7
			C23.9,13.7,23.7,15,22.6,16.1">
   </path>
   <path class="st2" d="M29.5,11.1c-0.7,0.9-1.7,1.3-2.2,0.9c-0.5-0.4-0.5-1.5,0.1-2.4c0.7-0.9,1.7-1.3,2.2-1
			C30.2,9,30.2,10.2,29.5,11.1">
   </path>
   <path class="st3" d="M32.1,12c-0.5,0.7-1.3,1.1-1.7,0.8c-0.4-0.3-0.4-1.1,0.2-1.9c0.5-0.7,1.3-1.1,1.7-0.8
			C32.6,10.4,32.6,11.3,32.1,12">
   </path>
   <path class="st6" d="M21.1,8.3c-1.3,1.6-3.3,2.2-4.2,1.4c-1-1-1-2.5,0.4-4.4c1.6-2,3.3-2.1,4.3-1.3C22.5,4.8,22.4,6.7,21.1,8.3">
   </path>
   <path class="st7" d="M26,9.9c-1,1.6-2.5,1.6-3.1,1.1c-0.7-0.5-0.5-2.1,0.5-3.2c0.9-1.1,2.4-1.6,3-1C26.9,7.3,26.7,8.6,26,9.9">
   </path>
   <path class="st8" d="M15.5,0.3C12-1.2,8.6,3.5,8.9,6.1c0.2,2,1.5,2.8,3.3,2.5c0,0,0.1,0,0.1,0c1.9-0.2,3.5-1.8,4.2-3.2
			c0.2-0.5,0.4-1,0.5-1.6c0-0.2,0-0.5,0-0.7C17,1.9,16.5,0.7,15.5,0.3">
   </path>
   <path class="st9" d="M8.3,10.7c-0.8,0.1-1.5,0.5-2.2,0.9c-1.1,0.7-2,1.5-2.6,2.5c-0.7,1.3-0.6,2.4,0,3.2c0.2,0.4,0.6,0.7,0.9,0.8
			c0.2,0.1,0.4,0.1,0.6,0.2c0.6,0.1,1.3,0.1,2-0.1c2.2-0.6,4.7-3,4.6-5.2C11.7,10.9,10.1,10.3,8.3,10.7">
   </path>
   <path class="st3" d="M29.5,19.3c-0.6,0.6-1.4,0.8-1.7,0.4c-0.3-0.3-0.2-1.1,0.5-1.7c0.6-0.6,1.4-0.8,1.8-0.5
			C30.4,17.8,30.1,18.7,29.5,19.3">
   </path>
   <path class="st2" d="M25.8,20.4c-0.8,0.7-1.9,0.9-2.3,0.4c-0.4-0.5-0.1-1.4,0.7-2.2c0.8-0.7,1.8-0.9,2.2-0.4
			C26.9,18.7,26.6,19.7,25.8,20.4">
   </path>
   <path class="st10" d="M20.8,21.9c-1.1,0.9-2.5,1.2-3,0.6c-0.6-0.6-0.1-1.9,1-2.9c1.1-0.9,2.4-1.2,3-0.6
			C22.3,19.7,21.9,21,20.8,21.9">
   </path>
   <path class="st11" d="M14.6,19.8c-2.2-0.6-5.7,2.2-5.2,4.4c0.1,0.5,0.8,0.9,1.4,1c2.2,0.2,4.7-2.1,4.8-3.8c0-0.2,0-0.4,0-0.6
			C15.5,20.3,15,19.9,14.6,19.8">
   </path>
   <path class="st12" d="M8.7,22.3c-0.4-1.7-2.4-1.5-3.8-1.1c-0.5,0.1-1,0.3-1.5,0.6c-0.7,0.3-1.3,0.8-1.8,1.3
			c-0.7,0.6-1.8,2-1.5,3.4c0.2,1.4,2,1.8,3.6,1.5C5.6,27.3,9.3,24.8,8.7,22.3">
   </path>
  </g>
 </g>
</svg>