<?xml version="1.0" encoding="utf-8"?>
<!-- Generator: Adobe Illustrator 19.2.1, SVG Export Plug-In . SVG Version: 6.00 Build 0)  -->
<svg version="1.1" id="layer" xmlns="http://www.w3.org/2000/svg" xmlns:xlink="http://www.w3.org/1999/xlink" x="0px" y="0px"
	 viewBox="0 0 652 652" style="enable-background:new 0 0 652 652;" xml:space="preserve">
<style type="text/css">
	.st0{fill:#EC2127;}
</style>
<g>
	<g>
		<path class="st0" d="M355.2,312c-4.5,12-8.4,24.4-11.9,37.2h18.4c2.8-7.8,4.2-17.1,8.3-23.6c4.7,0.6,7.9-2.5,9.2,1.8
			c-1,8.1-5.1,13.1-5.5,21.8h17.5c2-10,9.7-19.3,7.4-29.1C394.4,303.9,370.6,315.4,355.2,312z M317.5,312
			c-14.3,2.6-29.4,13.6-23,29.1c7,16.9,37.5,5.5,44.1-1.8C353.2,323.3,337.9,308.2,317.5,312z M310.2,332.9
			c-0.7-8.5,13.5-12.5,17.5-5.5C328.8,336.1,313.9,340.1,310.2,332.9z M299.2,298.4c-1.3-5.3-6.8-5.1-12.9-3.6
			c-6.6,1.6-9.7,4-9.2,8.2C278.3,313.1,301.6,308.3,299.2,298.4z M277.1,312c-5,11.4-8.5,24.3-11.9,37.2h18.4
			c3.4-12.7,8-24.2,11-37.2H277.1z M239.4,330.2c2.1-11.9,7.4-20.5,10.1-31.8h-20.2c-2.2,16.1-20.4,35.7-7.4,50
			c10.1,1.9,23.4,0.5,34.9,0.9c2.9-4.4,5.2-9.4,5.5-16.4C255,331.7,242.5,335.6,239.4,330.2z M180.6,302.9
			c1.1,9.5,22.5,6.6,22.1-4.5C197.7,289.5,179.7,295,180.6,302.9z M168.7,349.3h17.5c4.7-11.7,8.2-24.6,11.9-37.2h-18.4
			C176.2,324.6,171.3,335.8,168.7,349.3z M126.4,318.4c-3,3.4-6.8,10.1-7.4,15.4c-2.2,20,21.1,18.7,24.8,5.5c-2.5,1-7.9,1.8-9.2-0.9
			c-2.3-9.4,4.4-22.1,15.6-18.2c1.3,9.8-6,18.1-6.4,29.1h17.5c3.6-11.9,9.6-26.2,11-37.2C154.6,309,137.5,305.7,126.4,318.4z
			 M91.5,314.7c1.8-5.2,4.1-9.8,4.6-16.4c-4.5-1.2-16.2-2.2-19.3,0.9c-4,16.7-12.1,34-13.8,50h18.4c4.7-7.5,2.1-22.1,12.9-23.6
			c6.5,5.3-2.8,15.1-2.8,22.7c4.4,2,12.4,0.4,18.4,0.9c0.9-9.4,10.7-21.8,7.4-31.8C114.1,308.2,99.6,310.7,91.5,314.7z M67.6,313.8
			c2.7-4.3,3.8-10.2,5.5-15.4H25.3c-1.4,5.1-5.4,12-4.6,16.4c5.5,0.6,13.5-1.2,17.5,0.9c-3.8,11.1-8,21.8-11,33.6h19.3
			c4.8-11,7.9-23.7,12.9-34.5C62.2,314.6,66.1,315.3,67.6,313.8z M502.1,296l-4.3-0.4l-0.9-0.4h-1.7l-1.7-1.3c0,0,1.6-2,0-3
			c0,0-10.9-5.2-11.3-9.1c0,0-4-1.5-3.9,2.2c0,0-0.6,0.3-0.9-0.4c0,0,0.5-0.4-5.6-3c0,0-3.8-0.6-4.8-1.7c0,0-3-0.3-3,3.9
			c0,0-10.1-0.3-12.1,0c0,0-2.3,0.7-1.3,4.8c0,0-7.1,2.9-9.1,1.3c0,0-1.7,5.3,2.2,7.8l-3,1.3c0,0,1.3,19,13,28.5
			c0,0,8.7-8.9,20.8-4.3c0,0,15.3,5.3,13,22c0,0-2.7,15.3-18.3,16.4c-0.2-1.3-0.3-2.1-0.3-2.1c18.3-1.7,16.9-18.6,16.9-18.6
			c-1.8-17.5-17.8-16.9-17.8-16.9c-10.3-0.2-13.9,6.5-13.9,6.5c-24.6-24.5-16-60.9-16-60.9c-13.1-5.8-14.7,11.7-14.7,11.7
			c-0.5,34.4,28.6,52.7,28.6,52.7l-0.9,1.7c-30.9-19.9-31.7-42.8-31.7-42.8c-7.9-1.3-8.2,8.6-8.2,8.6c0.2,23.8,39,37.2,39,37.2v2.2
			c-27.6-5-38.2-21.2-38.2-21.2c-2.5,0.3-3,6-3,6c1.2,21.5,41.2,18.1,41.2,18.1v2.6c-20.8,5.4-36.9-5.2-36.9-5.2
			c-4.9,11.3,10.8,14.3,10.8,14.3c12,2,27.8-6,27.8-6l1.3,2.2c-14.6,11.8-29.5,6.9-29.5,6.9c-0.2,6.6,7.4,8.2,7.4,8.2
			c10.9,2.4,23.9-12.5,23.9-12.5l1.7,1.3c-8.8,13.3-21.3,14.3-21.3,14.3c2.5,4.9,6.5,4.3,6.5,4.3c10.7-0.3,16.9-16.9,16.9-16.9
			l1.7,0.9c-2.9,12.9-12.6,16-12.6,16c1.2,2.3,5.2,2.2,5.2,2.2c8.9-0.5,10-17.3,10-17.3c0.8,0.2,2.2,0.4,2.2,0.4
			c0.9,10.8-3.9,14.7-3.9,14.7c4.6,1.5,6.5-0.9,6.5-0.9c1.8-1.5,1.8-6.1,1.4-9.5c3.2-0.3,18.4-2.3,22.8-16.8c0,0,1.1-3.5,1.7-3.9
			c0,0,2-0.1,2.2-2.2c0,0-0.4-1.6-1.3-1.7c0,0-2.3-2.6-1.7-3.9c0,0,0.3-1,1.7-1.7c0,0,1.6-0.8,0.9-2.2c0,0,0.3-0.6-3-2.2
			c0,0-2.8-2.2-3-8.2c0,0,0.2-1.3,2.2-0.4c0,0,4.6,1.3,5.6-2.2l0.4-3.9v-0.9c0,0-1.9,2.3-3.9,1.7c0,0-3.6-0.1-3-5.2
			c0,0,1.4-6.1,6.5-4.8c0,0,2.1,0.3,2.2,3c0,0,4.2-2.5,3.9-6.9l-0.4-0.4V299h0.4C503.4,299,503.8,296.4,502.1,296z M472.6,295.2
			c-1.5-0.8-2.2-1.7-2.2-1.7c-1.5-2.7,0.9-3.9,0.9-3.9c3.7-1.2,5.2,1.7,5.2,1.7C469.5,289.8,472.6,295.2,472.6,295.2z M490.8,298.6
			l-2.2-2.2v-0.9h3l0.9-0.4L490.8,298.6z M591.2,312.9c-3.5,12-7.4,23.5-11,35.4h18.4c2.5-7.5,3-17,8.3-21.8
			c7.4,0.2,11.3-4.9,13.8-11.8C614.1,308.8,601.6,314.3,591.2,312.9z M589.4,296.6c-7-5.3-22-2.4-21.1,8.2
			C573.6,311.7,592.1,308.8,589.4,296.6z M567.3,312c-3.7,11.8-9.5,26.3-11,37.2h17.5c3.7-11.8,9.6-26.2,11-37.2H567.3z
			 M534.2,308.4c-19.3,1-33.8,21.4-24.8,39.1c9.1,4.8,19.8-0.6,22.1-8.2c-3.1,1.4-9.1,1.5-10.1-1.8c-0.3-11,5.5-20.5,16.5-17.3
			c-0.3,11.8-5.3,19-7.4,29.1h18.4c3.5-12.6,8.4-23.8,11-37.2C550,313.1,542.9,307.9,534.2,308.4z"/>
	</g>
</g>
</svg>
