<?xml version="1.0" encoding="UTF-8" standalone="no"?>
<svg
   version="1.1"
   width="845.59875pt"
   height="220.43437pt"
   viewBox="0 0 845.59872 220.43436"
   id="svg3503"
   sodipodi:docname="Vietjet Air Thailand logo.svg"
   inkscape:version="1.1 (c68e22c387, 2021-05-23)"
   xmlns:inkscape="http://www.inkscape.org/namespaces/inkscape"
   xmlns:sodipodi="http://sodipodi.sourceforge.net/DTD/sodipodi-0.dtd"
   xmlns="http://www.w3.org/2000/svg"
   xmlns:svg="http://www.w3.org/2000/svg">
  <defs
     id="defs3507" />
  <sodipodi:namedview
     id="namedview3505"
     pagecolor="#ffffff"
     bordercolor="#666666"
     borderopacity="1.0"
     inkscape:pageshadow="2"
     inkscape:pageopacity="0.0"
     inkscape:pagecheckerboard="0"
     inkscape:document-units="pt"
     showgrid="false"
     inkscape:zoom="0.70710678"
     inkscape:cx="458.9123"
     inkscape:cy="-4.9497475"
     inkscape:window-width="1920"
     inkscape:window-height="1002"
     inkscape:window-x="-8"
     inkscape:window-y="-8"
     inkscape:window-maximized="1"
     inkscape:current-layer="g3499" />
  <g
     enable-background="new"
     id="g3501"
     transform="translate(-111.61605,-816.95296)">
    <g
       id="g3499">
      <clipPath
         id="cp0">
        <path
           transform="matrix(1,0,0,-1,0,841.89)"
           d="M 0,0 H 1190.55 V 841.89 H 0 Z"
           id="path824" />
      </clipPath>
      <clipPath
         id="cp308">
        <path
           transform="matrix(1,0,0,-1,0,841.89)"
           d="m 0,603.781 h 276.416 v 195.59 H 0 Z"
           id="path3274" />
      </clipPath>
      <clipPath
         id="cp311">
        <path
           transform="matrix(1,0,0,-1,0,841.89)"
           d="M 0,0 H 1190.551 V 841.89 H 0 Z"
           id="path3307" />
      </clipPath>
      <path
         d="m 649.00675,980.38058 h -22.56 v 55.68752 h -8.4 v -55.68752 h -22.56 v -7.4625 h 53.52 z"
         fill="#575756"
         id="path3423"
         style="stroke-width:7.5" />
      <clipPath
         id="cp313">
        <path
           transform="matrix(1,0,0,-1,0,841.89)"
           d="M 0,0 H 1190.551 V 841.89 H 0 Z"
           id="path3425" />
      </clipPath>
      <g
         clip-path="url(#cp313)"
         id="g3432"
         transform="matrix(7.5,0,0,7.5,-4915.9602,-1649.9259)">
        <path
           transform="matrix(1,0,0,-1,748.3231,358.13243)"
           d="m 0,0 h -1.063 v 3.596 c 0,0.291 -0.017,0.563 -0.051,0.818 C -1.148,4.668 -1.21,4.867 -1.3,5.01 -1.395,5.169 -1.531,5.286 -1.708,5.364 -1.885,5.441 -2.115,5.48 -2.398,5.48 -2.688,5.48 -2.991,5.408 -3.308,5.265 -3.624,5.121 -3.928,4.939 -4.218,4.716 V 0 h -1.063 v 8.799 h 1.063 V 5.615 c 0.331,0.276 0.675,0.491 1.029,0.645 0.354,0.154 0.718,0.232 1.091,0.232 0.682,0 1.203,-0.206 1.561,-0.616 C -0.179,5.464 0,4.873 0,4.1 Z"
           fill="#575756"
           id="path3428" />
        <path
           transform="matrix(1,0,0,-1,755.2791,358.13243)"
           d="M 0,0 H -1.058 V 0.673 C -1.152,0.609 -1.279,0.52 -1.439,0.405 -1.599,0.29 -1.755,0.198 -1.905,0.13 -2.083,0.043 -2.287,-0.029 -2.516,-0.087 c -0.23,-0.059 -0.5,-0.089 -0.809,-0.089 -0.569,0 -1.052,0.189 -1.448,0.566 -0.396,0.377 -0.594,0.858 -0.594,1.442 0,0.479 0.103,0.866 0.308,1.163 0.206,0.296 0.499,0.528 0.88,0.698 0.384,0.17 0.846,0.285 1.386,0.345 0.538,0.06 1.117,0.105 1.735,0.136 v 0.163 c 0,0.242 -0.042,0.442 -0.127,0.6 C -1.27,5.096 -1.391,5.22 -1.55,5.31 -1.7,5.397 -1.881,5.455 -2.093,5.485 -2.303,5.515 -2.524,5.531 -2.754,5.531 -3.033,5.531 -3.344,5.494 -3.687,5.42 -4.031,5.347 -4.385,5.24 -4.75,5.101 h -0.057 v 1.08 c 0.207,0.056 0.507,0.118 0.899,0.187 0.393,0.067 0.779,0.101 1.16,0.101 0.445,0 0.832,-0.036 1.161,-0.11 C -1.256,6.286 -0.971,6.161 -0.73,5.983 -0.492,5.809 -0.311,5.586 -0.187,5.31 -0.062,5.035 0,4.693 0,4.286 Z M -1.058,1.555 V 3.314 C -1.382,3.295 -1.764,3.267 -2.202,3.229 -2.642,3.191 -2.99,3.137 -3.246,3.065 -3.551,2.978 -3.798,2.843 -3.987,2.661 -4.175,2.478 -4.27,2.226 -4.27,1.906 c 0,-0.362 0.11,-0.634 0.329,-0.818 0.218,-0.182 0.552,-0.274 1.001,-0.274 0.372,0 0.714,0.073 1.023,0.219 0.309,0.145 0.596,0.319 0.859,0.522"
           fill="#575756"
           id="path3430" />
      </g>
      <path
         d="m 772.54975,980.7591 h -8.99198 v -8.2725 h 8.99198 z m -0.5025,55.305 h -7.9725 v -47.37742 h 7.9725 z"
         fill="#575756"
         id="path3434"
         style="stroke-width:7.5" />
      <path
         d="m 795.88225,1036.0641 h -7.9725 v -65.9925 h 7.9725 z"
         fill="#575756"
         id="path3436"
         style="stroke-width:7.5" />
      <clipPath
         id="cp314">
        <path
           transform="matrix(1,0,0,-1,0,841.89)"
           d="M 0,0 H 1190.551 V 841.89 H 0 Z"
           id="path3438" />
      </clipPath>
      <g
         clip-path="url(#cp314)"
         id="g3447"
         transform="matrix(7.5,0,0,7.5,-4915.9602,-1649.9259)">
        <path
           transform="matrix(1,0,0,-1,768.5905,358.13243)"
           d="M 0,0 H -1.057 V 0.673 C -1.152,0.609 -1.279,0.52 -1.439,0.405 -1.599,0.29 -1.755,0.198 -1.906,0.13 c -0.177,-0.087 -0.381,-0.159 -0.61,-0.217 -0.23,-0.059 -0.5,-0.089 -0.809,-0.089 -0.57,0 -1.052,0.189 -1.448,0.566 -0.396,0.377 -0.594,0.858 -0.594,1.442 0,0.479 0.104,0.866 0.309,1.163 0.205,0.296 0.499,0.528 0.879,0.698 0.385,0.17 0.846,0.285 1.386,0.345 0.538,0.06 1.118,0.105 1.736,0.136 v 0.163 c 0,0.242 -0.043,0.442 -0.128,0.6 C -1.27,5.096 -1.391,5.22 -1.549,5.31 -1.7,5.397 -1.881,5.455 -2.093,5.485 -2.303,5.515 -2.524,5.531 -2.754,5.531 -3.033,5.531 -3.344,5.494 -3.687,5.42 -4.03,5.347 -4.384,5.24 -4.75,5.101 h -0.057 v 1.08 c 0.208,0.056 0.508,0.118 0.9,0.187 0.391,0.067 0.778,0.101 1.159,0.101 0.445,0 0.832,-0.036 1.162,-0.11 C -1.257,6.286 -0.97,6.161 -0.729,5.983 -0.492,5.809 -0.311,5.586 -0.187,5.31 -0.062,5.035 0,4.693 0,4.286 Z M -1.057,1.555 V 3.314 C -1.382,3.295 -1.764,3.267 -2.202,3.229 -2.641,3.191 -2.99,3.137 -3.246,3.065 -3.551,2.978 -3.798,2.843 -3.987,2.661 -4.175,2.478 -4.27,2.226 -4.27,1.906 c 0,-0.362 0.11,-0.634 0.329,-0.818 0.218,-0.182 0.552,-0.274 1.001,-0.274 0.373,0 0.714,0.073 1.023,0.219 0.309,0.145 0.596,0.319 0.86,0.522"
           fill="#575756"
           id="path3441" />
        <path
           transform="matrix(1,0,0,-1,775.9191,358.13243)"
           d="m 0,0 h -1.063 v 3.596 c 0,0.291 -0.017,0.563 -0.051,0.818 -0.034,0.254 -0.096,0.453 -0.187,0.596 -0.094,0.159 -0.23,0.276 -0.407,0.354 -0.177,0.077 -0.407,0.116 -0.69,0.116 -0.29,0 -0.593,-0.072 -0.91,-0.215 -0.317,-0.144 -0.62,-0.326 -0.91,-0.549 V 0 h -1.063 v 6.317 h 1.063 V 5.615 c 0.331,0.276 0.674,0.491 1.029,0.645 0.354,0.154 0.718,0.232 1.091,0.232 0.683,0 1.203,-0.206 1.561,-0.616 C -0.179,5.464 0,4.873 0,4.1 Z"
           fill="#575756"
           id="path3443" />
        <path
           transform="matrix(1,0,0,-1,783.09,358.13243)"
           d="M 0,0 H -1.064 V 0.662 C -1.368,0.398 -1.687,0.193 -2.019,0.045 c -0.332,-0.147 -0.692,-0.221 -1.08,-0.221 -0.754,0 -1.353,0.291 -1.795,0.872 -0.443,0.58 -0.665,1.385 -0.665,2.415 0,0.535 0.076,1.012 0.229,1.43 0.153,0.419 0.359,0.775 0.62,1.069 0.255,0.286 0.554,0.505 0.895,0.656 0.342,0.15 0.695,0.226 1.061,0.226 0.331,0 0.625,-0.035 0.882,-0.105 0.256,-0.07 0.526,-0.178 0.808,-0.325 V 8.799 H 0 Z M -1.064,1.555 V 5.18 c -0.286,0.128 -0.542,0.217 -0.769,0.266 -0.225,0.048 -0.472,0.073 -0.74,0.073 -0.596,0 -1.059,-0.207 -1.391,-0.621 -0.332,-0.416 -0.498,-1.004 -0.498,-1.765 0,-0.751 0.128,-1.321 0.384,-1.711 0.257,-0.389 0.668,-0.585 1.233,-0.585 0.302,0 0.607,0.067 0.917,0.201 0.309,0.133 0.597,0.306 0.864,0.517"
           fill="#575756"
           id="path3445" />
      </g>
      <clipPath
         id="cp315">
        <path
           transform="matrix(1,0,0,-1,0,841.89)"
           d="M 669.959,513.452 H 774.80398 V 493.46403 H 669.959 Z"
           id="path3449" />
      </clipPath>
      <clipPath
         id="cp317">
        <path
           transform="matrix(1,0,0,-1,0,841.89)"
           d="M 0,0 H 1190.551 V 841.89 H 0 Z"
           id="path3461" />
      </clipPath>
      <g
         clip-path="url(#cp317)"
         id="g3466"
         transform="matrix(7.5,0,0,7.5,-4915.9602,-1649.9259)">
        <path
           transform="matrix(1,0,0,-1,690.8045,340.7538)"
           d="m 0,0 c -1.664,0 -2.247,1.047 -2.184,2.503 h 6.619 c 0.316,0.962 0.492,2.345 0.492,2.971 0,2.495 -1.391,3.948 -3.869,3.948 -2.039,0 -3.681,-0.956 -4.761,-2.474 -0.959,-1.331 -1.519,-3.204 -1.519,-4.846 0,-2.704 1.664,-4.307 4.492,-4.307 1.662,0 3.121,0.376 4.037,0.832 L 2.991,0.645 C 2.372,0.355 1.187,0 0,0 m -1.605,5.786 c 0.545,1.097 1.333,1.743 2.268,1.743 0.893,0 1.394,-0.601 1.394,-1.724 C 2.057,5.45 1.975,4.911 1.885,4.583 H -2.02 c 0.152,0.591 0.191,0.722 0.415,1.203 m -10.559,3.325 -4.504,-9.802 -0.588,9.802 h -3.205 l 1.382,-14.416 h 2.928 L -8.855,9.111 Z M 7.478,-2.205 c 2.276,0 2.776,2.267 2.776,2.267 C 10.065,-0.021 9.636,-0.098 9.345,-0.08 8.317,-0.023 8.513,0.996 8.554,1.166 l 1.221,5.865 h 1.734 l 0.436,2.085 -1.733,-0.005 c 0,0 0.174,0.818 0.564,2.656 C 8.531,12.148 7.37,10.841 7.37,10.841 L 5.327,1.103 C 4.911,-0.879 5.713,-2.205 7.478,-2.205 m 23.405,2.125 c -1.028,0.057 -0.831,1.076 -0.79,1.246 l 1.219,5.865 h 1.735 l 0.442,2.085 -1.742,-0.005 c 0,0 0.178,0.818 0.569,2.656 C 30.07,12.148 28.91,10.841 28.91,10.841 L 26.867,1.103 c -0.417,-1.982 0.387,-3.308 2.148,-3.308 2.277,0 2.776,2.267 2.776,2.267 -0.189,-0.083 -0.62,-0.16 -0.908,-0.142 M 22.596,9.422 C 20.558,9.422 18.917,8.466 17.831,6.948 16.877,5.617 16.32,3.744 16.32,2.102 c 0,-2.704 1.66,-4.307 4.487,-4.307 1.667,0 3.124,0.376 4.04,0.832 L 24.531,0.645 C 23.908,0.355 22.722,0 21.536,0 19.875,0 19.289,1.047 19.354,2.503 h 6.621 c 0.316,0.962 0.493,2.345 0.493,2.971 0,2.495 -1.394,3.948 -3.872,3.948 M 23.42,4.583 h -3.899 c 0.148,0.591 0.184,0.722 0.415,1.203 0.539,1.097 1.332,1.743 2.265,1.743 0.895,0 1.396,-0.601 1.396,-1.724 0,-0.355 -0.084,-0.894 -0.177,-1.222 M 51.339,8.485 49.136,-2.097 h 3.189 l 1.894,9.173 c 0.538,0.226 1.372,0.205 2.142,-0.086 l 0.768,2.313 C 55.178,9.646 52.684,9.215 51.339,8.485 M 40.111,9.111 31.447,-5.305 h 3.161 l 1.784,3.212 h 4.42 l -0.033,-3.212 h 3.202 L 43.414,9.111 Z m 0.706,-9.125 h -3.26 l 3.325,5.921 z M 13.291,9.111 c 0,0 -1.257,-5.905 -1.934,-9.204 C 10.964,-2.028 10.49,-2.835 9.912,-3.336 8.338,-4.712 5.7,-4.707 4.28,-3.066 c -0.228,-1.95 1.338,-3.818 4.203,-3.818 2.864,0 5.062,2.145 5.795,5.438 l 2.22,10.557 z m -21.572,0 -2.351,-11.205 h 3.2 l 2.355,11.205 z m 55.061,0 -2.354,-11.205 h 3.204 l 2.354,11.205 z m 8.6,-9.16 c -0.693,0 -1.324,-0.632 -1.324,-1.287 0,-0.485 0.374,-0.869 0.902,-0.869 0.695,0 1.34,0.633 1.34,1.288 0,0.497 -0.385,0.868 -0.918,0.868 m 5.502,-0.371 c -0.668,0 -1.084,0.54 -1.084,1.565 0,0.803 0.26,1.887 0.667,2.582 0.433,0.759 1.002,1.117 1.638,1.117 0.388,0 0.71,-0.155 0.867,-0.281 l 0.775,1.27 c -0.276,0.278 -1.071,0.619 -2.011,0.619 -1.207,0 -2.387,-0.588 -3.223,-1.763 -0.695,-0.99 -1.16,-2.462 -1.16,-3.687 0,-1.964 1.16,-3.202 2.784,-3.202 0.962,0 1.675,0.277 2.079,0.618 l -0.203,1.484 C 61.78,-0.266 61.316,-0.42 60.882,-0.42 m 6.511,6.872 C 65.86,6.452 64.667,5.774 63.88,4.609 63.199,3.62 62.749,2.102 62.749,0.879 c 0,-1.812 1.024,-3.079 3.005,-3.079 1.578,0 2.755,0.709 3.529,1.854 0.663,0.991 1.131,2.508 1.131,3.732 0,1.813 -1.039,3.066 -3.021,3.066 m 0.014,-5.807 c -0.323,-0.742 -0.754,-1.206 -1.424,-1.206 -0.682,0 -0.896,0.497 -0.896,1.206 0,0.855 0.311,2.278 0.667,3.068 0.324,0.741 0.788,1.239 1.436,1.239 0.664,0 0.899,-0.511 0.899,-1.225 0,-0.85 -0.336,-2.289 -0.682,-3.082 m 13.31,5.807 c -1.385,0 -2.447,-0.405 -3.01,-0.843 -0.394,0.467 -1.296,0.843 -2.409,0.843 -1.405,0 -2.544,-0.219 -3.54,-0.623 l -1.659,-7.953 h 2.435 l 1.423,6.888 c 0.309,0.113 0.639,0.174 1.033,0.174 0.731,0 1.11,-0.312 1.11,-0.828 0,-0.094 -0.017,-0.188 -0.034,-0.296 l -1.233,-5.938 h 2.436 l 1.372,6.621 c 0.299,0.254 0.737,0.441 1.173,0.441 0.72,0 1.018,-0.344 1.018,-0.828 0,-0.112 -0.017,-0.204 -0.031,-0.312 l -1.235,-5.922 h 2.436 l 1.204,5.843 c 0.046,0.203 0.062,0.408 0.062,0.608 0,1.251 -0.844,2.125 -2.551,2.125"
           fill="#e30613"
           id="path3464" />
      </g>
      <clipPath
         id="cp318">
        <path
           transform="matrix(1,0,0,-1,0,841.89)"
           d="M 0,0 H 1190.55 V 841.89 H 0 Z"
           id="path3472" />
      </clipPath>
    </g>
  </g>
</svg>
