<svg width="271" height="24" xmlns="http://www.w3.org/2000/svg" xmlns:xlink="http://www.w3.org/1999/xlink"><defs><path id="a" d="M0 .194h47.26V16.87H0z"/><path id="c" d="M0 23.943h270.588V0H0z"/></defs><g fill="none" fill-rule="evenodd"><g transform="translate(0 4.743)"><mask id="b" fill="#fff"><use xlink:href="#a"/></mask><path d="M38.37 14.711c-3.91.176-7.346-1.31-5.437-5.064C34.838 5.89 44.187 1.572 47.259.2L30.03.196c-.59 0-1.322-.1-1.77 1.238-.333.996-1.879 4.855-5.316 6.062-4.256 1.496-7.806-.95-13.216-5.233C7.712.662 7.382.518 5.431.84 4.43 1 2.26.47 1.624.32.986.15 0 .219 0 .23c0 .073 3.92.64 11.486 6.053 2.879 2.06 8.01 6.071 13.348 8.39 5.769 2.507 14.145 3.846 21.812-1.49.01-.104.017-.21.025-.315 0 .14-4.386 1.745-8.301 1.842" fill="#008CD5" mask="url(#b)"/></g><mask id="d" fill="#fff"><use xlink:href="#c"/></mask><path d="M72.503 19.026h1.442V7.973h-1.442v11.053zm5.833-13.968h6.34c.321 0 .63.102.892.293.338.254.515.63.515 1.083v11.33c0 .912-.59 1.262-1.408 1.262h-1.94l-.566-1.168h2.119c.22 0 .35-.145.35-.388V6.608a.384.384 0 00-.38-.385h-5.922V5.058zm-5.833.005h1.444v.782c0 .189.193.318.384.318h3.019v1.074h-3.435c-1.055 0-1.412-.696-1.412-1.311v-.863zm21.892 11.129c-.285-.926-.437-1.74-.549-2.766h1.204c.109 1.018.309 1.92.58 2.766h-1.235zm8.173-6.734c1.058 0 1.41.8 1.41 1.377v6.671c0 .167.133.299.324.299h1.364l-.523 1.226h-1.124c-.559 0-.946-.157-1.176-.482-.199-.268-.296-.648-.296-1.155v-6.47c0-.094-.07-.261-.291-.261h-1.824c-.197 0-.304.128-.304.277v3.441c0 1.513-.292 3.245-.994 4.65h-1.732c.975-1.317 1.277-3.058 1.277-5.36v-2.836c0-.796.59-1.377 1.31-1.377h2.579zm-8.984 1.995h2.424l-.002-3.898c0-.13-.082-.28-.283-.28h-1.861c-.099 0-.278.07-.278.276v3.902zm.37-5.38c.164-.34.299-.732.398-1.139h1.542a6.84 6.84 0 01-.394 1.14h.67c.683 0 1.241.428 1.241 1.259v10.53c0 .604-.335 1.168-1.24 1.168h-1.312l-.488-1.162h1.292c.196 0 .345-.126.345-.313V12.64h-2.424c-.02 2.429-.221 4.56-.65 6.391H91.41c.67-2.09.787-4.306.817-6.39h-.81v-1.188h.81v-4.07c0-.785.485-1.31 1.188-1.31h.54zm.506 4.594a17.81 17.81 0 01-.536-2.425h1.151c.119.862.364 1.652.602 2.425H94.46zm6.144-3.862c-.201-.523-.433-1.03-.686-1.87h1.545c.159.47.454 1.1.818 1.87h3.113v1.183H97.82V6.805h2.783zm-36.066 6.152v-.401h-6.737v.38c0 .184.114.289.3.289h6.17a.273.273 0 00.267-.268zm-.323 2.763h-5.584a22.9 22.9 0 01-.52.525l2.183.002s.937.467 1.208.587c.909-.348 1.79-.702 2.713-1.114zm-6.414-4.038h6.737v-.67h-6.737v.67zm0-1.93v.399h6.737v-.378c0-.186-.114-.29-.3-.29h-6.169a.274.274 0 00-.268.268zm-2.243-2.77h11.211v.948h-4.562l-.312.66h2.793c.798 0 1.261.663 1.261 1.241v3.018c0 .747-.6 1.27-1.222 1.27h-4.699c-.133.177-.27.34-.532.65h5.714c.447 0 .827.237.931.609.022.074.033.15.032.233 0 .351-.22.677-.599.856-.547.258-1.957.815-2.553 1.062 0 0 2.696 1.189 3.744 1.543l-3.356-.002c-.355-.102-2.003-.889-2.003-.889s-1.695.68-2.23.891c0 0-.016-.01-3.872-.01 1.254-.35 4.598-1.615 4.598-1.615a92.495 92.495 0 01-1.982-1.02c-.18.166-.39.348-.626.544h-2.016c1.322-.898 2.582-2.333 2.976-2.852h-.64c-.674 0-1.24-.584-1.24-1.252V9.865c0-.635.461-1.275 1.276-1.275h2.696c.118-.24.21-.442.302-.66h-5.09v-.947zm-.472-1.633h11.682v1.073H55.353c-.21 0-.335.113-.335.302v7.762c0 1.448-.181 3.163-.504 4.586H52.96c.46-1.966.63-3.482.63-5.503V6.83c0-.962.481-1.482 1.496-1.482zm68.398 7.059v1.183h-5.077v4.183h6.243v1.163h-13.901v-1.163h6.241v-4.183h-5.073v-1.183h11.567zm-6.647-7.472h1.707c.1.306.3.761.516 1.118h3.665c1.318 0 1.823.879 1.823 1.709V9.33h-1.405l-.001-1.618c0-.279-.143-.463-.452-.463h-2.722v2.436c0 .238.17.38.32.38l3.789-.001-.493 1.203h-3.748c-.38 0-.841-.18-1.103-.498-.218-.25-.329-.657-.329-1v-2.52h-1.362c-.455 1.57-1.606 3.206-3.201 4.426h-2.738s3.343-1.632 4.282-4.426h-2.671c-.318 0-.46.153-.46.463V9.33h-1.407V7.763c0-.807.447-1.709 1.785-1.709h4.672a6.96 6.96 0 01-.467-1.118zM69.358 19.082h.522V4.938h-.522zm19.232 0h.524V4.938h-.524zm19.234 0h.522V4.938h-.522zm123.56-7.632h3.364c1.486 0 2.537-1.027 2.54-2.32-.003-1.29-1.054-2.335-2.54-2.335h-3.364v4.654zm3.163 1.16h-3.163v6.47h-1.543V5.635h5.08c2.227 0 3.773 1.56 3.778 3.494-.003 1.602-1.061 2.936-2.687 3.349l3.977 6.602h-1.54l-3.902-6.47zm-21.64 1.622h5.475l-2.738-6.783-2.738 6.783zm5.942 1.16h-6.412l-1.488 3.688h-1.54l5.421-13.444h1.545l5.505 13.444h-1.543l-1.488-3.688zm5.657 3.688h1.542V5.636h-1.542V19.08zM175.573 5.636h2.977l1.286 13.444h-2.742l-.895-9.342-4.52 9.342h-.167l-4.594-9.344-.895 9.344h-2.74l1.29-13.444h2.973l4.013 8.342 4.014-8.342zm9.866 11.639h6.23v1.805h-8.972V5.636h8.52v1.803h-5.778v3.852h4.927v1.801h-4.927v4.183zm-32.7-2.726h4.374l-2.188-5.558-2.187 5.558zm5.083 1.802h-5.795l-1.074 2.73h-2.739l5.29-13.445h2.742l5.393 13.444h-2.744l-1.073-2.73zm-30.052 2.73l5.106-7.273-4.334-6.172h3.074l2.795 3.984 2.796-3.984h3.077l-4.336 6.172 5.108 7.272h-3.074l-3.57-5.083-3.57 5.083h-3.072zm79.278 0h-1.726l-8.141-9.373v9.372h-2.744V5.636h2.576l7.291 8.436V5.636h2.744V19.08zm-63.767-.001h2.742V5.636h-2.742V19.08z" fill="#004384" mask="url(#d)"/><path d="M266.854 5.199l-.01.007a10.634 10.634 0 013.075 6.773c.405 5.868-4.015 10.954-9.878 11.364a10.606 10.606 0 01-7.352-2.27l-.009.01a10.602 10.602 0 007.996 2.834c5.874-.407 10.298-5.496 9.885-11.36a10.61 10.61 0 00-3.707-7.358m-18.867 12.112c-.339.187-.412.473-.242.91.16.4.411.58.679.467.215-.084.252-.27.166-.753l-.041-.184c-.086-.475-.101-.678-.047-.88a.636.636 0 01.388-.46c.478-.193.935.112 1.204.784.295.732.143 1.285-.436 1.52l-.139-.362c.4-.163.495-.536.28-1.07-.172-.433-.444-.629-.735-.506-.235.09-.289.311-.202.8l.033.207.032.184c.06.36.07.492.034.65a.576.576 0 01-.367.412c-.456.183-.891-.086-1.137-.69-.264-.666-.118-1.157.388-1.384l.142.355zm-.302-3.846l1.614-1.356.013.501-1.37 1.131.444.487.962-.019.007.398-2.743.057-.013-.394 1.08-.024h.288l-.088-.097-.094-.1-1.214-1.31-.015-.523zm1.218-4.255l1.052.374-.124.367-1.06-.367-1.895.572.16-.454 1.178-.327.142-.042c.06-.022.096-.024.2-.047a9.16 9.16 0 01-.216-.27l-.724-.99.154-.43 1.133 1.615zm1.853-5.043l-.579.706 1.733 1.419-.414.509-1.737-1.417-.576.705-.393-.32 1.574-1.925zm3.708-2.605l-1.387.812.297.507 1.271-.75.238.411-1.27.741.334.59 1.417-.833.26.438-1.987 1.16-1.386-2.37 1.954-1.148zm5.317 1.064l-.722.053-.357-.598-1.106.182-.152.669-.686.178.724-3.004.677-.102 1.622 2.622zm-1.575-1.41a4.28 4.28 0 01-.292-.559c-.027.197-.05.339-.119.624l-.115.524.797-.13-.27-.458zm5.981 2.294l-.578-.222.222-.818c.02-.094.06-.221.106-.396.047-.164.089-.304.113-.401.038-.111.076-.226.108-.346l.064-.193a6.92 6.92 0 01-.375.598c-.059.1-.119.186-.166.253l-.782 1.096-.5-.137-.156-1.313c-.012-.064-.015-.16-.024-.291-.01-.167-.019-.304-.022-.395-.004-.072-.004-.181-.004-.332l-.067.332c-.08.362-.118.521-.225.952l-.228.882-.613-.095.693-2.684.916.173.133 1.274c.032.296.042.553.028.903.107-.2.14-.272.26-.453.083-.128.15-.229.211-.328l.725-1.036.874.297-.713 2.68z" fill="#00307B" mask="url(#d)"/><path d="M258.94 8.797c-.337.299-.99.929-1.631 1.542l-.723.694a10.04 10.04 0 00-1.77-.158c-1.335 0-2.564.369-3.116.938-.217.224-.325.458-.319.708.016.648.757.976.98 1.059 1.191.44 2.185.314 3.235-.424.577-.4 1.272-1.046 1.82-1.575.419.102.897.225 1.414.378l.474.138c-.618.604-1.247 1.247-1.836 1.762l-.044.04c-.813.72-1.404 1.238-2.259 1.433-.596.133-1.02.004-1.16-.08-.02 0-.032.023-.032.023.49.408.958.637 1.762.572.762-.07 1.645-.552 2.55-1.4l1.219-1.195.856-.848a205.188 205.188 0 001.76.518c-.019 0-1.073 1.035-1.073 1.035l-.916.92c-.941.906-1.453 1.379-2.001 1.773-.908.646-1.685.974-2.372 1.024-.355.024-.867 0-1.294-.252-.019-.002-.048.019-.048.019.467.399 1.038.871 2.016.847 1.104-.033 2.088-.562 3.618-1.964.696-.64 1.385-1.355 1.996-1.987l1.135-1.15a8.607 8.607 0 002.153.217c1.073-.02 1.996-.537 2.005-1.127.01-.434-.346-.67-.563-.808a2.458 2.458 0 00-1.316-.384c-.807 0-1.653.36-2.505 1.06l-.57.507c.01-.005-.206-.06-.206-.06l-1.578-.446c.468-.436.861-.807 1.216-1.127.873-.765 1.82-1.089 2.381-1.122.412-.026 1.117.011 1.407.216.017 0 .037-.03.037-.03-.78-.664-1.451-.756-2.006-.756-.545 0-1.426.17-2.497 1.004-.442.343-1.008.913-1.604 1.512 0-.003-.797-.242-.797-.242l-.194-.064-.842-.255c.023 0 .481-.452.481-.452.566-.555 1.097-1.075 1.518-1.435 1.514-1.271 2.467-1.44 3.13-1.447.729 0 1.305.153 1.717.448a.12.12 0 00.028-.03c-.848-.77-1.461-1.018-2.516-1.026-.93-.005-2.036.517-3.12 1.457m-5.954 4.556c-.494-.036-.734-.232-.734-.613 0-.047.034-1.253 2.786-1.389a6.483 6.483 0 011.2.033c-.024 0-.313.267-.313.267l-.174.16c-.658.602-1.772 1.61-2.765 1.542m11.14-.977c.79-.536 1.45-.821 1.857-.806.244.008.536.081.536.384 0 .307-.297.564-.87.77-.5.18-1.273.226-2.113.135a4.55 4.55 0 01.59-.483m-5.461.594v.815-.816zm6.646-11.626a.512.512 0 01.658-.265.499.499 0 01.265.66.496.496 0 01-.655.262.515.515 0 01-.268-.657zm.835.4a.418.418 0 00-.168-.567.413.413 0 00-.57.157.426.426 0 00.165.576c.2.106.463.038.573-.166zm-.291.145l-.082-.043-.023-.3-.08-.043-.122.22-.067-.037.266-.477.208.115c.084.046.158.114.099.221-.05.09-.14.09-.224.05l.025.294zm-.067-.41c.063.034.158.102.198.024.026-.048-.031-.092-.079-.12l-.128-.07-.068.125.077.04z" fill="#00307B" mask="url(#d)"/></g></svg>